<svg width="123" height="115" viewBox="0 0 123 115" fill="none" xmlns="http://www.w3.org/2000/svg">
<path d="M57.5144 114.889C89.2078 114.889 114.9 89.1963 114.9 57.5029C114.9 25.8095 89.2078 0.116913 57.5144 0.116913C25.8209 0.116913 0.128357 25.8095 0.128357 57.5029C0.128357 89.1963 25.8209 114.889 57.5144 114.889Z" fill="#F5F5F5"/>
<path d="M114.9 57.5216C114.9 57.5216 114.9 57.2089 114.863 56.5882C114.863 56.2802 114.863 55.8976 114.83 55.4402C114.798 54.9829 114.807 54.4556 114.746 53.8582C114.686 53.2609 114.648 52.5889 114.588 51.8516C114.527 51.1142 114.396 50.3116 114.284 49.4436C113.997 47.4447 113.608 45.4619 113.118 43.5029C112.501 41.0518 111.722 38.6447 110.784 36.2976C109.675 33.5005 108.339 30.7989 106.79 28.2196C103.011 21.9164 98.0705 16.3881 92.2297 11.9282C85.1344 6.52359 76.8713 2.8571 68.103 1.2229C60.6735 -0.149782 53.0478 -0.0626031 45.6517 1.47957C40.3721 2.58317 35.2775 4.43591 30.5223 6.98156C28.0709 8.30706 25.7134 9.79923 23.4663 11.4476C21.1829 13.1536 19.0188 15.0137 16.989 17.0149C14.9503 19.0799 13.0603 21.2865 11.333 23.6182C9.58319 25.9983 8.02285 28.512 6.66634 31.1362C6.33501 31.8036 5.96634 32.4522 5.66768 33.1382L4.73434 35.1869C4.17901 36.5869 3.60968 37.9869 3.15234 39.4196C2.18546 42.3108 1.45659 45.2762 0.97301 48.2862C0.492729 51.3354 0.241581 54.4162 0.221677 57.5029C0.242178 60.5909 0.491751 63.6731 0.968343 66.7242C1.45151 69.7348 2.18198 72.7004 3.15234 75.5909C3.61901 77.0329 4.17901 78.4282 4.72968 79.8236L5.66301 81.8722C5.96168 82.5582 6.33501 83.2069 6.66168 83.8742C8.017 86.5006 9.57739 89.0159 11.3283 91.3969C13.0578 93.7238 14.9494 95.9257 16.989 97.9862C19.0153 99.9857 21.1747 101.846 23.4523 103.554C25.7035 105.204 28.0658 106.698 30.5223 108.024C32.9326 109.303 35.4273 110.416 37.989 111.356C40.4887 112.244 43.0437 112.967 45.6377 113.522C53.0354 115.063 60.6626 115.151 68.0937 113.778C76.8584 112.137 85.1186 108.471 92.2157 103.073C98.059 98.6144 103.002 93.0858 106.78 86.7816C108.331 84.2073 109.672 81.5121 110.789 78.7222C111.723 76.3755 112.503 73.9702 113.122 71.5216C113.664 69.3096 114.056 67.3216 114.289 65.5809C114.396 64.7082 114.513 63.9102 114.588 63.1729C114.662 62.4356 114.7 61.7729 114.746 61.1662C114.793 60.5596 114.816 60.0416 114.83 59.5842C114.844 59.1269 114.83 58.7489 114.863 58.4362C114.863 57.8249 114.9 57.5029 114.9 57.5029C114.9 57.5029 114.9 57.8202 114.9 58.4362C114.9 58.7489 114.9 59.1316 114.9 59.5842C114.9 60.0369 114.9 60.5689 114.83 61.1709C114.76 61.7729 114.737 62.4402 114.681 63.1776C114.625 63.9149 114.494 64.7176 114.392 65.5902C114.098 67.5859 113.704 69.5655 113.211 71.5216C112.595 73.9787 111.815 76.3921 110.878 78.7456C109.772 81.5507 108.441 84.2616 106.897 86.8516C103.121 93.179 98.1747 98.7299 92.323 103.208C85.2095 108.641 76.9228 112.333 68.1264 113.988C60.6717 115.372 53.0188 115.29 45.5957 113.746C40.2995 112.634 35.1893 110.772 30.4197 108.216C27.9555 106.884 25.5869 105.382 23.331 103.722C21.0416 102.006 18.8727 100.135 16.8397 98.1216C14.7918 96.0588 12.8924 93.8537 11.1557 91.5229C9.39538 89.1329 7.82566 86.6082 6.46101 83.9722C6.13434 83.3049 5.75634 82.6516 5.46234 81.9609C5.16834 81.2702 4.84168 80.5936 4.52901 79.9076C3.97834 78.5076 3.40434 77.1076 2.94234 75.6562C1.97117 72.7529 1.23917 69.7749 0.753677 66.7522C-0.251226 60.6222 -0.251226 54.3695 0.753677 48.2396C1.23916 45.2118 1.97275 42.2291 2.94701 39.3216C3.41368 37.8749 3.97834 36.4749 4.53368 35.0749L5.46701 33.0169C5.76101 32.3262 6.13434 31.6776 6.46568 31.0056C7.82972 28.3707 9.39948 25.8475 11.1603 23.4596C12.8956 21.1201 14.7934 18.9058 16.8397 16.8329C18.8751 14.8224 21.0438 12.9515 23.331 11.2329C27.7884 7.93967 32.6967 5.30553 37.905 3.41157C40.4179 2.51444 42.987 1.78331 45.5957 1.2229C53.0188 -0.321463 60.6717 -0.403891 68.1264 0.98023C76.9229 2.64691 85.2076 6.34818 92.3183 11.7882C98.1677 16.2597 103.114 21.8026 106.892 28.1216C108.441 30.7095 109.774 33.4206 110.878 36.2276C111.815 38.581 112.595 40.9944 113.211 43.4516C113.694 45.4159 114.077 47.4033 114.359 49.4062C114.462 50.2789 114.578 51.0816 114.648 51.8189C114.718 52.5562 114.751 53.2189 114.798 53.8256C114.844 54.4322 114.858 54.9549 114.868 55.4122C114.877 55.8696 114.868 56.2476 114.868 56.5602C114.9 57.1902 114.9 57.5216 114.9 57.5216Z" fill="#263238"/>
<path d="M40.061 112.252C40.061 112.252 48.8437 115.188 58.4897 114.884C69.223 114.544 76.223 111.772 76.223 111.772L72.3077 97.0949L59.9224 100.856L44.6624 98.6582L40.061 112.252Z" fill="#263238"/>
<path d="M65.597 49.0609L63.7303 44.3942L52.7123 43.8109L48.2557 44.3849L47.761 45.6822L44.7043 99.7129C44.7043 99.7129 55.377 101.869 60.711 101.113C66.045 100.357 72.3217 97.9302 72.3217 97.9302V67.2095L65.597 49.0609Z" fill="#F5F5F5"/>
<path d="M49.0117 51.2542C49.0339 51.2901 49.0606 51.323 49.0911 51.3522L49.3291 51.6182C49.5437 51.8516 49.8564 52.1829 50.2624 52.5935C51.3986 53.72 52.6033 54.7751 53.8697 55.7529L53.9211 55.7902L53.9677 55.7435C55.1571 54.4364 56.2607 53.0538 57.2717 51.6042L57.5984 51.1376H57.4677L60.1137 54.7029C60.2184 54.8441 60.3425 54.9697 60.4824 55.0762C60.6272 55.1874 60.8097 55.2377 60.9911 55.2162C61.1622 55.1823 61.3177 55.0939 61.4344 54.9642C61.5422 54.8519 61.6434 54.7334 61.7377 54.6095L62.7831 53.2982L64.2857 51.4035L64.6871 50.8855C64.7757 50.7642 64.8177 50.6989 64.8177 50.6989C64.7584 50.7466 64.7051 50.8015 64.6591 50.8622L64.2344 51.3662L62.6991 53.2329L61.6351 54.5302C61.4484 54.7542 61.2571 55.0342 60.9724 55.0809C60.6877 55.1275 60.4264 54.8755 60.2304 54.6142C59.4231 53.5175 58.5317 52.3135 57.5984 51.0395L57.5284 50.9509L57.4631 51.0442C57.3604 51.1935 57.2484 51.3522 57.1411 51.5109C56.1384 52.9551 55.0474 54.3359 53.8744 55.6455H53.9724C52.7052 54.6797 51.493 53.6436 50.3417 52.5422C49.9171 52.1409 49.5951 51.8189 49.3711 51.6089L49.1144 51.3569C49.0491 51.2775 49.0164 51.2496 49.0117 51.2542Z" fill="#263238"/>
<g opacity="0.3">
<path d="M61.6023 54.6796C61.6023 54.6796 60.2023 56.4016 59.8103 55.9676C59.4183 55.5336 57.351 52.3322 57.1036 52.2016C56.8563 52.0709 54.355 56.5602 53.3703 56.2429C52.3856 55.9256 48.8903 52.4349 48.8903 52.4349L48.825 51.0349L53.921 55.6736L57.5423 51.0676L60.585 55.0296C60.585 55.0296 61.229 55.5522 61.6023 54.6796Z" fill="black"/>
</g>
<path d="M59.2597 101.444C59.274 101.277 59.274 101.108 59.2597 100.94C59.2597 100.581 59.2317 100.096 59.213 99.4889C59.1617 98.1962 59.087 96.3856 58.9983 94.1549C58.807 89.6516 58.555 83.4216 58.317 76.5569C58.079 69.6922 57.9017 63.4576 57.7803 58.9496C57.715 56.7189 57.6637 54.9036 57.6263 53.6156C57.6263 53.0043 57.589 52.5236 57.575 52.1643C57.5788 51.9937 57.5647 51.8232 57.533 51.6556C57.5189 51.8248 57.5189 51.995 57.533 52.1643C57.533 52.5236 57.533 53.0089 57.533 53.6156C57.533 54.9083 57.561 56.7236 57.5843 58.9543C57.6497 63.4623 57.7943 69.6876 58.051 76.5662C58.3077 83.4449 58.5783 89.6609 58.8257 94.1642C58.9563 96.3902 59.0637 98.2056 59.1383 99.4936C59.185 100.1 59.2177 100.586 59.2457 100.94C59.2382 101.108 59.2429 101.277 59.2597 101.444Z" fill="#263238"/>
<g opacity="0.3">
<path d="M68.9617 79.6369C68.0751 92.9229 67.9491 100.026 70.1517 113.158C71.1411 112.971 72.4851 112.612 73.9364 112.224C72.0091 99.5496 70.8937 92.2976 68.9617 79.6369Z" fill="black"/>
</g>
<path d="M77.0023 92.1389C77.0023 92.1389 77.091 90.5476 77.119 90.1182L77.4456 83.6362L78.2343 70.0795L81.837 54.6329C81.179 52.5189 79.443 50.2509 77.441 49.5555C77.2823 49.4995 77.1236 49.4575 76.9743 49.4155L72.569 48.3095L69.1576 47.6422L63.8376 44.4829C63.8376 44.4829 68.7236 74.0602 69.0363 81.6669C69.349 89.2735 72.303 113.092 72.303 113.092C76.624 112.035 80.7723 110.368 84.623 108.141L77.0023 92.1389Z" fill="#F83758"/>
<path d="M69.377 77.8962C69.377 77.8962 69.3771 77.8962 69.4051 77.8169C69.4331 77.7376 69.4424 77.6722 69.4657 77.5742C69.517 77.3502 69.5917 77.0329 69.6804 76.6409C69.8531 75.8242 70.0911 74.6389 70.3151 73.1642C70.5391 71.6896 70.7584 69.9209 70.931 67.9562C71.1037 65.9916 71.239 63.8262 71.3464 61.5489C71.3837 60.6996 71.4211 59.8642 71.4584 59.0522C71.4584 58.6462 71.4911 58.2449 71.5097 57.8482L71.5377 57.2556V56.9616V56.8122C71.5377 56.7889 71.5377 56.7609 71.5377 56.7329C71.5377 56.7049 71.5377 56.7049 71.5377 56.6769V56.6489C71.5377 56.6256 71.4631 56.6116 71.449 56.6256C71.4351 56.6396 71.4071 56.6582 71.3931 56.6722H71.5051L69.7224 55.4216V55.5476L71.6217 54.6609L71.673 54.6376V54.5816C71.3884 53.4989 71.043 52.5422 70.7397 51.6929C70.4364 50.8436 70.1564 50.1109 69.923 49.5089C69.6897 48.9069 69.5031 48.4402 69.3724 48.1089L69.2184 47.7496C69.2032 47.7068 69.1828 47.666 69.1577 47.6282C69.1648 47.6731 69.1773 47.717 69.195 47.7589C69.2324 47.8522 69.2744 47.9736 69.3304 48.1276C69.4564 48.4589 69.6291 48.9302 69.8531 49.5276C70.0771 50.1249 70.3431 50.8716 70.6371 51.7209C70.9311 52.5702 71.2624 53.5316 71.5377 54.6049L71.5751 54.5256L69.6664 55.4076L69.5544 55.4589L69.6571 55.5336L71.4024 56.7609H71.5144C71.5144 56.7609 71.4584 56.7189 71.463 56.7189C71.458 56.7214 71.4524 56.7227 71.4467 56.7227C71.4411 56.7227 71.4355 56.7214 71.4304 56.7189H71.4071V56.9382V57.2276C71.4071 57.4189 71.407 57.6196 71.3744 57.8156C71.3744 58.2122 71.3417 58.6136 71.323 59.0196C71.2857 59.8362 71.2437 60.6716 71.2064 61.5209C71.099 63.7936 70.9684 65.9542 70.8051 67.9189C70.6417 69.8836 70.4317 71.6522 70.2264 73.1222C70.0211 74.5922 69.7924 75.7869 69.6431 76.6082C69.5637 77.0049 69.503 77.3222 69.4564 77.5416C69.4564 77.6442 69.4237 77.7236 69.4144 77.7889L69.377 77.8962Z" fill="#263238"/>
<path d="M48.7877 50.3909L48.2557 43.7922C46.795 45.1036 44.0557 47.6236 44.0557 47.6236L32.361 51.9216L36.5237 93.9729L30.485 108.15C34.0877 109.952 39.4543 112.276 43.2997 113.209C45.1243 104.37 45.3857 104.576 47.8777 90.9816C50.3697 77.3876 48.7877 50.3909 48.7877 50.3909Z" fill="#F83758"/>
<g opacity="0.3">
<path d="M63.007 98.4529C63.007 98.4529 63.805 99.4936 62.0457 99.8109C60.2864 100.128 40.369 98.6582 40.369 98.6582L33.0424 102.13L33.9757 99.5076L39.1557 95.0602L63.007 98.4529Z" fill="black"/>
</g>
<path d="M32.361 51.9216C32.361 51.9216 28.8143 53.6669 28.2823 58.6229C27.8157 62.9816 27.0457 89.7496 27.139 91.9102C27.2323 94.0709 29.099 100.17 32.445 100.38C37.7183 100.716 39.1743 96.6469 39.1743 96.6469L37.7743 82.9782L32.361 51.9216Z" fill="#F83758"/>
<path d="M45.787 76.4542C45.787 76.4542 45.787 76.4262 45.787 76.3702C45.787 76.3142 45.7637 76.2349 45.745 76.1416C45.703 75.9222 45.6423 75.6236 45.5677 75.2456C45.4277 74.4709 45.213 73.3462 45.0123 71.9462C44.597 69.1462 44.2423 65.2636 44.037 60.9562C43.9872 59.9389 43.9406 58.9496 43.897 57.9882C43.897 57.5216 43.8503 57.0549 43.8317 56.5882C43.8317 56.3596 43.8083 56.1216 43.7943 55.9022V55.5662V55.4029C43.7943 55.3796 43.7943 55.3516 43.7943 55.3282C43.7931 55.3189 43.7931 55.3095 43.7943 55.3002C43.7776 55.305 43.7598 55.305 43.743 55.3002C43.743 55.3002 43.6963 55.3002 43.701 55.3002H43.813L45.5537 54.0729L45.6517 54.0029L45.5443 53.9516L43.589 53.0976L43.6263 53.1676C43.7949 52.3968 43.9242 51.6181 44.0137 50.8342C44.1023 50.1482 44.1863 49.5556 44.2797 49.0796C44.373 48.6036 44.4757 48.2302 44.5503 47.9876C44.5877 47.8709 44.6203 47.7776 44.6437 47.7076C44.667 47.6376 44.6717 47.6096 44.667 47.6096L44.625 47.6982C44.6017 47.7636 44.5597 47.8522 44.5177 47.9736C44.3919 48.3303 44.2906 48.6951 44.2143 49.0656C44.107 49.5322 44.0137 50.1342 43.9157 50.8202C43.8177 51.5062 43.7103 52.2856 43.505 53.1256V53.1722H43.5517L45.451 54.0636V53.9422L43.6917 55.1882L43.799 55.2116V55.1882C43.7833 55.1731 43.7624 55.1647 43.7407 55.1647C43.7189 55.1647 43.698 55.1731 43.6823 55.1882C43.6804 55.1975 43.6804 55.207 43.6823 55.2162C43.6812 55.2349 43.6812 55.2536 43.6823 55.2722C43.6801 55.3017 43.6801 55.3314 43.6823 55.3609V55.5336C43.6823 55.6456 43.6823 55.7576 43.6823 55.8742C43.6823 56.0982 43.6823 56.3409 43.7197 56.5602C43.7383 57.0207 43.757 57.4873 43.7757 57.9602C43.8223 58.8936 43.869 59.9109 43.9157 60.9236C44.0653 64.607 44.408 68.28 44.9423 71.9276C45.157 73.3276 45.409 74.4476 45.549 75.2222C45.6377 75.5956 45.7077 75.8942 45.7543 76.1089L45.815 76.3376L45.787 76.4542Z" fill="#263238"/>
<path d="M39.0717 65.3289L64.1457 66.6076C64.4306 66.621 64.7004 66.7396 64.903 66.9404C65.1056 67.1413 65.2265 67.4101 65.2423 67.6949L66.9223 97.4402C66.9318 97.6022 66.9069 97.7644 66.8493 97.9162C66.7917 98.0679 66.7028 98.2058 66.5882 98.3208C66.4737 98.4357 66.3362 98.5252 66.1846 98.5834C66.0331 98.6415 65.871 98.667 65.709 98.6582L41.3817 97.3842C41.102 97.3704 40.837 97.2552 40.6361 97.0603C40.4351 96.8654 40.312 96.604 40.2897 96.3249L37.8817 66.5749C37.8684 66.4127 37.8896 66.2495 37.9439 66.096C37.9983 65.9426 38.0845 65.8024 38.1969 65.6847C38.3093 65.567 38.4454 65.4744 38.5962 65.4131C38.7469 65.3518 38.909 65.3231 39.0717 65.3289Z" fill="#263238"/>
<path d="M33.7891 58.8096C33.7966 58.8991 33.8107 58.988 33.8311 59.0756C33.8684 59.2622 33.9151 59.5189 33.9757 59.8362C34.1111 60.5082 34.2977 61.4602 34.5264 62.6362C34.9931 64.9929 35.5811 68.2362 36.1551 71.8716C36.7291 75.5069 37.1631 78.7782 37.4524 81.1629C37.5971 82.3436 37.7091 83.3049 37.7931 83.9862C37.8304 84.3082 37.8631 84.5602 37.8864 84.7516C37.8909 84.8418 37.9066 84.9312 37.9331 85.0176C37.9393 84.9275 37.9393 84.837 37.9331 84.7469C37.9331 84.5602 37.8957 84.3036 37.8677 83.9769C37.8117 83.3096 37.7137 82.3436 37.5831 81.1489C37.3217 78.7596 36.9017 75.4696 36.3277 71.8436C35.7537 68.2176 35.1377 64.9649 34.6524 62.6129C34.4097 61.4369 34.1857 60.4849 34.0504 59.8129C33.9804 59.4956 33.9197 59.2436 33.8777 59.0616C33.8551 58.9753 33.8254 58.891 33.7891 58.8096Z" fill="#263238"/>
<path d="M38.5583 84.8076C38.5583 84.8076 37.1163 84.8869 35.8376 87.0289L33.3923 88.5829C33.3923 88.5829 31.255 91.9429 33.3923 95.0789C35.5296 98.2149 38.115 95.5456 38.115 95.5456C38.115 95.5456 40.6956 96.8242 41.419 96.6002C42.1423 96.3762 47.019 93.7442 47.7516 93.1422C47.9616 92.9602 49.539 91.1542 49.539 91.1542C49.539 91.1542 51.723 90.6876 51.9703 90.1836C52.2176 89.6796 52.241 88.5363 50.7663 88.6483C50.7663 88.6483 52.199 88.2143 52.367 87.4956C52.535 86.7769 52.367 85.8296 49.8283 86.1889C47.2896 86.5482 42.427 87.9062 41.8623 87.7662C41.8042 87.7324 41.7568 87.6827 41.7259 87.6229C41.6949 87.5632 41.6816 87.4958 41.6875 87.4288C41.6933 87.3618 41.7182 87.2978 41.759 87.2443C41.7999 87.1909 41.8552 87.1502 41.9183 87.1269C42.1003 87.0429 47.8263 84.8169 48.7503 84.5649C49.7443 84.2896 49.889 82.0729 47.817 82.6002C45.745 83.1276 39.067 84.7422 39.067 84.7422L38.5583 84.8076Z" fill="#FFBF9D"/>
<path d="M42.3336 93.3102C42.6947 93.2254 43.0501 93.1178 43.3976 92.9882C44.0463 92.7736 44.947 92.4889 45.9503 92.1949C46.9536 91.9009 47.8636 91.6629 48.5263 91.4902C48.889 91.4154 49.246 91.3156 49.595 91.1916C49.4961 91.1917 49.3975 91.2027 49.301 91.2242C49.1096 91.2569 48.8343 91.3082 48.503 91.3829C47.831 91.5229 46.9116 91.7469 45.9036 92.0409C44.8956 92.3349 43.9996 92.6382 43.3603 92.8809C43.0383 93.0022 42.7816 93.1002 42.6043 93.1796C42.5093 93.2124 42.4185 93.2563 42.3336 93.3102Z" fill="#FF9A6C"/>
<path d="M41.5123 90.6549C41.6389 90.6582 41.7656 90.6488 41.8903 90.6269C42.1283 90.6036 42.4737 90.5569 42.903 90.4916C43.757 90.3656 44.933 90.1602 46.221 89.8849C47.509 89.6096 48.6663 89.3156 49.4877 89.0776C49.903 88.9609 50.239 88.8629 50.4677 88.7882C50.5903 88.7577 50.7092 88.7139 50.8223 88.6576C50.6972 88.6672 50.5736 88.6907 50.4537 88.7276L49.4597 88.9702C48.6243 89.1756 47.4623 89.4369 46.193 89.7262C44.9237 90.0156 43.7337 90.2256 42.889 90.3796L41.881 90.5662C41.755 90.5807 41.6312 90.6104 41.5123 90.6549Z" fill="#FF9A6C"/>
<path d="M34.5637 90.0809C34.5637 90.0809 34.5637 90.1742 34.5637 90.3422C34.5724 90.5811 34.6036 90.8186 34.6571 91.0516C34.9883 92.6187 35.9002 94.0025 37.2097 94.9249C37.4038 95.0632 37.6082 95.1865 37.8211 95.2936C37.8984 95.3379 37.9817 95.3709 38.0684 95.3916C38.0684 95.3636 37.7511 95.1909 37.2751 94.8316C36.0361 93.8813 35.1534 92.5415 34.7691 91.0282C34.6197 90.4496 34.5917 90.0762 34.5637 90.0809Z" fill="#FF9A6C"/>
<path d="M33.7517 95.9002C33.7517 95.9002 33.439 95.5549 33.061 94.9156C32.5618 94.088 32.2838 93.1461 32.2536 92.1801C32.2233 91.2142 32.4419 90.2567 32.8884 89.3996C33.229 88.7416 33.5417 88.3962 33.5184 88.3729C33.4307 88.4404 33.3536 88.5206 33.2897 88.6109C33.0998 88.8393 32.9311 89.0845 32.7857 89.3436C32.2998 90.2097 32.0595 91.192 32.0907 92.1846C32.122 93.1772 32.4236 94.1424 32.963 94.9762C33.1224 95.2278 33.3053 95.4637 33.509 95.6809C33.5774 95.7668 33.6593 95.8409 33.7517 95.9002Z" fill="#263238"/>
<path d="M28.105 85.2229C28.105 85.2509 28.511 84.9476 29.2203 84.6069C29.6395 84.4079 30.0751 84.2455 30.5223 84.1216C31.0659 83.9727 31.622 83.8743 32.1836 83.8276C32.7438 83.7882 33.3065 83.8038 33.8636 83.8742C34.3208 83.9333 34.772 84.0317 35.2123 84.1682C35.959 84.4062 36.393 84.6349 36.407 84.6349C36.3147 84.563 36.2145 84.5019 36.1083 84.4529C35.9917 84.3846 35.87 84.3253 35.7443 84.2756C35.5819 84.2003 35.4152 84.1348 35.245 84.0796C34.8043 83.9238 34.3495 83.8113 33.887 83.7436C32.7467 83.5777 31.5838 83.6637 30.4803 83.9956C30.0332 84.1326 29.6003 84.3123 29.1876 84.5322C29.0264 84.6122 28.8705 84.7026 28.721 84.8029C28.6046 84.8701 28.4938 84.9466 28.3896 85.0316C28.2873 85.0834 28.1917 85.1477 28.105 85.2229Z" fill="#263238"/>
<g opacity="0.3">
<path d="M44.4944 48.1882C44.4944 48.1882 42.3804 53.1162 42.6744 53.5269C42.9684 53.9376 44.0744 54.2316 44.0744 54.2316C44.0744 54.2316 42.2544 55.0156 42.2544 55.7156C42.2544 57.1156 44.2051 65.3476 44.2051 65.3476L43.7384 55.2862L45.4837 54.0636L43.5844 53.1769L44.4944 48.1882Z" fill="black"/>
</g>
<path d="M95.8184 73.3322C95.8184 73.3322 98.8237 69.4122 99.5517 68.0356C100.115 66.9074 100.941 65.9311 101.96 65.1889C103.126 64.2555 106.342 61.9782 107.504 62.1182C108.666 62.2582 113.258 61.7169 113.258 61.7169L109.795 67.1536C109.795 67.1536 110.84 70.9476 110.028 71.8202C109.216 72.6929 109.328 72.4736 108.162 72.8516C106.995 73.2296 102.636 73.4816 102.562 73.6076C102.487 73.7336 100.056 77.5882 100.056 77.5882L95.8184 73.3322Z" fill="#FFBF9D"/>
<path d="M110.593 64.5216L122.344 58.0116L122.694 57.3116C122.707 57.2852 122.713 57.256 122.712 57.2265C122.712 57.1971 122.703 57.1683 122.688 57.1428C122.674 57.1173 122.653 57.096 122.628 57.0806C122.602 57.0653 122.574 57.0564 122.544 57.0549L121.788 57.0129L110.042 63.5462L110.593 64.5216Z" fill="#263238"/>
<path d="M116.104 60.5782C116.104 60.5782 115.171 60.2189 114.438 61.4789C114.012 62.1996 113.624 62.9427 113.276 63.7049C112.992 63.7821 112.704 63.8444 112.413 63.8916L111.256 65.5016L111.601 66.5189C111.601 66.5189 113.958 66.0896 114.401 65.4036C115.138 64.062 115.752 62.6562 116.235 61.2036C116.314 60.6856 116.104 60.5782 116.104 60.5782Z" fill="#FFBF9D"/>
<path d="M108.283 69.9442L108.75 69.0856L107.933 68.2269C107.933 68.2269 106.3 68.8662 105.67 68.1196C105.04 67.3729 105.203 67.3029 105.203 67.3029L107.354 66.5469L106.024 66.2902C106.024 66.2902 104.256 67.0042 103.854 65.9636L103.92 65.3336C104.718 65.0675 105.536 64.8616 106.365 64.7176C107.456 64.7158 108.547 64.7718 109.632 64.8856L107.364 64.2976C106.885 64.3781 106.394 64.3623 105.922 64.2509C105.83 64.2217 105.746 64.1728 105.675 64.1076C105.605 64.0424 105.549 63.9625 105.513 63.8735C105.476 63.7846 105.46 63.6887 105.464 63.5926C105.469 63.4966 105.494 63.4027 105.539 63.3176C105.607 63.1901 105.716 63.0885 105.847 63.0282C106.406 62.7571 107.005 62.5759 107.62 62.4916C108.414 62.4402 111.078 62.7809 111.76 63.3502C112.441 63.9196 112.544 64.1949 112.352 64.8996C112.109 65.5711 111.796 66.2155 111.419 66.8222C111.428 67.3564 111.303 67.8844 111.055 68.3576C111.055 68.3576 111.522 69.9349 110.056 71.8062" fill="#FFBF9D"/>
<path d="M110.042 71.7969C110.103 71.739 110.158 71.6749 110.206 71.6056C110.357 71.4148 110.493 71.2119 110.612 70.9989C110.805 70.6586 110.955 70.2947 111.055 69.9162C111.197 69.3991 111.218 68.8561 111.116 68.3296V68.3949C111.388 67.9131 111.524 67.3661 111.508 66.8129V66.8642C111.727 66.5049 111.946 66.1269 112.152 65.7162C112.397 65.2881 112.539 64.8088 112.567 64.3162C112.538 64.0343 112.403 63.7741 112.189 63.5882C112.007 63.3846 111.793 63.2126 111.554 63.0796C111.051 62.8572 110.521 62.7004 109.977 62.6129C109.413 62.5029 108.842 62.425 108.269 62.3796C107.967 62.3471 107.661 62.3471 107.359 62.3796C107.055 62.434 106.757 62.5152 106.468 62.6222C106.318 62.672 106.174 62.728 106.034 62.7902C105.866 62.8426 105.708 62.9231 105.567 63.0282C105.427 63.155 105.337 63.3269 105.311 63.5138C105.285 63.7006 105.327 63.8906 105.427 64.0502C105.528 64.2129 105.686 64.3326 105.87 64.3862C106.034 64.4304 106.201 64.4586 106.37 64.4702C106.701 64.4972 107.035 64.4847 107.364 64.4329H107.308L108.241 64.6756L109.58 65.0209L109.627 64.7549C108.614 64.6662 107.625 64.5776 106.645 64.5776C106.159 64.6029 105.678 64.6859 105.212 64.8249C104.746 64.9462 104.316 65.0769 103.882 65.2216H103.808V65.3056C103.784 65.5156 103.766 65.7256 103.742 65.9356V65.9636V65.9916C103.828 66.215 103.995 66.3982 104.209 66.5049C104.413 66.5959 104.635 66.639 104.858 66.6309C105.269 66.6175 105.675 66.5322 106.057 66.3789H105.992L107.326 66.6262V66.4162L105.721 66.9902L105.348 67.1256L105.254 67.1582H105.212H105.189C105.171 67.166 105.156 67.1771 105.142 67.1909C105.063 67.3542 105.142 67.4009 105.142 67.4709C105.262 67.6955 105.409 67.9041 105.581 68.0916C105.744 68.2805 105.966 68.4087 106.211 68.4556C106.426 68.4971 106.646 68.5065 106.864 68.4836C107.238 68.4457 107.606 68.3578 107.956 68.2222H107.891L108.717 69.0669V69.0156L108.381 69.6782C108.342 69.7482 108.309 69.8216 108.283 69.8976C108.283 69.8976 108.334 69.8369 108.418 69.6969L108.792 69.0576V69.0296H108.768L107.989 68.1802L107.961 68.1522H107.919C107.577 68.2736 107.221 68.3504 106.86 68.3809C106.656 68.416 106.447 68.4021 106.25 68.3405C106.053 68.2788 105.873 68.1711 105.726 68.0262C105.569 67.8486 105.434 67.6528 105.324 67.4429C105.323 67.4196 105.323 67.3962 105.324 67.3729C105.324 67.3449 105.324 67.3729 105.268 67.3262C105.231 67.2702 105.315 67.3962 105.306 67.3869H105.352L105.446 67.3542L105.819 67.2236L107.429 66.6682L107.812 66.5376L107.41 66.4582L106.08 66.1969H106.052H106.015C105.661 66.3357 105.285 66.4115 104.904 66.4209C104.725 66.4456 104.542 66.414 104.382 66.3304C104.221 66.2468 104.091 66.1153 104.008 65.9542V66.0102C104.03 65.8049 104.053 65.5949 104.078 65.3802L103.99 65.4876C104.419 65.3522 104.858 65.2216 105.306 65.1049C105.752 64.9737 106.213 64.8954 106.678 64.8716C107.611 64.8716 108.624 64.9649 109.632 65.0536L109.678 64.7876L108.334 64.4376L107.401 64.1996H107.373H107.345C107.037 64.2496 106.723 64.2621 106.412 64.2369C106.262 64.2283 106.113 64.2033 105.968 64.1622C105.908 64.1468 105.851 64.1195 105.801 64.0818C105.752 64.0442 105.71 63.9969 105.679 63.9429C105.611 63.8366 105.584 63.7099 105.601 63.5851C105.618 63.4604 105.679 63.3457 105.772 63.2616C105.885 63.1798 106.009 63.1153 106.141 63.0702L106.561 62.9069C106.836 62.8069 107.118 62.7289 107.406 62.6736C107.688 62.6432 107.973 62.6432 108.255 62.6736C108.819 62.7144 109.38 62.7876 109.935 62.8929C110.458 62.984 110.968 63.1408 111.452 63.3596C111.668 63.4819 111.862 63.6396 112.026 63.8262C112.193 63.9793 112.3 64.1884 112.324 64.4142C112.295 64.8697 112.164 65.3129 111.942 65.7116C111.746 66.1176 111.536 66.4956 111.326 66.8502V66.8736V66.9016C111.346 67.4186 111.23 67.9318 110.99 68.3902V68.4182V68.4556C111.094 68.9553 111.084 69.472 110.962 69.9676C110.873 70.3421 110.738 70.7043 110.56 71.0456C110.243 71.5216 110.019 71.7829 110.042 71.7969Z" fill="#FF9A6C"/>
<path d="M107.662 70.3642C107.431 70.1281 107.157 69.9381 106.855 69.8042C106.155 69.427 105.403 69.1535 104.624 68.9922C103.845 68.832 103.047 68.7833 102.254 68.8476C101.923 68.8568 101.596 68.9231 101.288 69.0436C101.288 69.1322 102.786 68.8802 104.554 69.2582C106.323 69.6362 107.62 70.4436 107.662 70.3642Z" fill="#FF9A6C"/>
<path d="M107.186 66.5516C107.186 66.5982 107.452 66.5049 107.858 66.4676C108.386 66.4342 108.91 66.577 109.347 66.8736C109.79 67.1833 110.2 67.5383 110.57 67.9329C110.864 68.2362 111.06 68.3996 111.088 68.3996C111.116 68.3996 110.976 68.1522 110.714 67.8162C110.373 67.3648 109.96 66.9722 109.492 66.6542C109.006 66.3231 108.411 66.1911 107.83 66.2856C107.396 66.3882 107.172 66.5282 107.186 66.5516Z" fill="#FF9A6C"/>
<path d="M109.529 64.8669C109.923 65.0684 110.29 65.3193 110.621 65.6136C111.139 66.1362 111.391 66.7009 111.466 66.6682C111.418 66.185 111.185 65.7388 110.817 65.4222C110.581 65.1717 110.283 64.9868 109.954 64.8856C109.702 64.8109 109.534 64.8342 109.529 64.8669Z" fill="#FF9A6C"/>
<path d="M79.681 51.0536L81.837 54.6329L89.3877 76.1556L96.4577 68.8522L103.789 76.1556C103.789 76.1556 94.8617 88.1582 93.3263 90.0809C90.8717 93.1516 84.0303 92.9509 81.5663 87.4909C79.4523 82.8242 77.833 79.6369 77.833 79.6369L78.239 70.5602L79.681 51.0536Z" fill="#F83758"/>
<path d="M78.827 59.4489C78.8323 59.4923 78.8323 59.5362 78.827 59.5795V59.9622C78.827 60.3122 78.7897 60.8069 78.7664 61.4275C78.7057 62.7249 78.6124 64.5635 78.505 66.8315C78.2577 71.4049 77.9217 77.6955 77.5484 84.6442C77.399 87.2762 77.2544 89.8102 77.1237 92.1435V92.0875L82.551 103.591L84.1004 106.928L84.5064 107.824C84.5587 107.925 84.6009 108.031 84.6324 108.141C84.6324 108.141 84.5717 108.038 84.469 107.842L84.0304 106.96L82.4204 103.656C81.0484 100.805 79.1537 96.8149 76.9137 92.1855V92.1529C77.0444 89.8195 77.1844 87.2855 77.329 84.6535C77.7304 77.7095 78.0897 71.4189 78.3557 66.8455C78.5004 64.5775 78.6124 62.7389 78.6964 61.4462C78.7384 60.8255 78.7757 60.3355 78.799 59.9809C78.799 59.8269 78.827 59.7009 78.8317 59.5982C78.8206 59.5492 78.819 59.4985 78.827 59.4489Z" fill="#263238"/>
<path d="M88.4264 83.1882C88.3739 82.8438 88.366 82.494 88.403 82.1476C88.4264 81.5082 88.4964 80.6216 88.627 79.6509C88.7577 78.6802 88.9304 77.8076 89.0937 77.1822C89.1496 76.8388 89.2516 76.5044 89.397 76.1882C89.467 76.1882 89.145 77.7516 88.8837 79.6836C88.6224 81.6156 88.4964 83.1882 88.4264 83.1882Z" fill="#263238"/>
<path d="M70.357 17.9949C70.357 17.9949 73.241 28.7702 73.4883 36.3956L73.5723 38.9342C73.5723 38.9342 67.2116 44.2122 61.8776 44.5342L57.407 33.5396L70.357 17.9949Z" fill="#263238"/>
<path d="M42.1144 24.6029C43.3277 19.3483 43.7991 13.2349 48.1811 9.80492C51.4244 7.26158 55.1204 6.53825 59.2364 6.72492C61.2617 6.81358 63.5531 7.74692 65.3031 8.74559C67.7251 10.1176 68.7517 12.8989 69.9184 15.4236C72.2517 20.4823 71.9624 27.3283 70.3851 29.2323L49.2404 40.3949C45.0171 38.2016 42.3757 37.3242 41.6991 31.7009C41.4258 29.3287 41.5663 26.9271 42.1144 24.6029Z" fill="#263238"/>
<path d="M48.391 13.9816L61.6957 10.0569C65.9797 9.43157 69.0504 14.6209 69.4937 18.9236C69.9837 23.7069 70.3944 29.5729 69.9604 33.1756C69.1017 40.4182 63.6184 41.5522 63.6184 41.5522L63.6557 44.4549L57.589 50.8902L48.3304 44.7022L46.2117 16.6322C46.1774 15.9979 46.3822 15.3737 46.7857 14.8829C47.1892 14.3922 47.762 14.0706 48.391 13.9816Z" fill="#FFBF9D"/>
<path d="M68.2336 26.3669C68.243 26.6061 68.16 26.8398 68.0019 27.0196C67.8439 27.1994 67.6227 27.3115 67.3843 27.3329C67.2673 27.3471 67.1486 27.3378 67.0353 27.3054C66.9219 27.2729 66.8162 27.2181 66.7244 27.1442C66.6326 27.0702 66.5566 26.9786 66.5008 26.8748C66.445 26.7709 66.4106 26.6569 66.3996 26.5396C66.3903 26.3004 66.4732 26.0667 66.6313 25.8869C66.7894 25.7071 67.0105 25.5949 67.249 25.5736C67.3661 25.5587 67.485 25.5676 67.5986 25.5997C67.7122 25.6319 67.8182 25.6866 67.9101 25.7607C68.0021 25.8348 68.0781 25.9267 68.1337 26.0308C68.1893 26.135 68.2233 26.2493 68.2336 26.3669Z" fill="#263238"/>
<path d="M68.6117 23.2682C68.5044 23.3942 67.7811 22.9042 66.7871 22.9462C65.7931 22.9882 65.0884 23.5109 64.9764 23.4129C64.8644 23.3149 65.0277 23.1376 65.3357 22.8949C65.754 22.5803 66.2593 22.4026 66.7824 22.3862C67.2983 22.3654 67.8077 22.5074 68.2384 22.7922C68.5557 22.9882 68.6677 23.2122 68.6117 23.2682Z" fill="#263238"/>
<path d="M59.7123 26.3669C59.7215 26.6069 59.638 26.8411 59.4789 27.0211C59.3199 27.201 59.0976 27.3127 58.8583 27.3329C58.7413 27.3471 58.6226 27.3378 58.5092 27.3053C58.3959 27.2729 58.2902 27.2181 58.1984 27.1442C58.1066 27.0702 58.0306 26.9786 57.9748 26.8748C57.919 26.7709 57.8846 26.6569 57.8736 26.5396C57.8644 26.2996 57.9479 26.0653 58.107 25.8854C58.2661 25.7055 58.4883 25.5938 58.7276 25.5736C58.8446 25.5593 58.9633 25.5687 59.0767 25.6011C59.19 25.6335 59.2957 25.6883 59.3875 25.7623C59.4793 25.8362 59.5553 25.9279 59.6111 26.0317C59.6669 26.1355 59.7013 26.2495 59.7123 26.3669Z" fill="#263238"/>
<path d="M58.8397 23.3849C58.7277 23.5109 58.0091 23.0209 57.0151 23.0629C56.0211 23.1049 55.3117 23.6276 55.1997 23.5296C55.0877 23.4316 55.2557 23.2542 55.5637 23.0116C55.982 22.6969 56.4873 22.5193 57.0104 22.5029C57.5262 22.4827 58.0355 22.6247 58.4664 22.9089C58.7791 23.1142 58.8911 23.3289 58.8397 23.3849Z" fill="#263238"/>
<path d="M62.7223 29.8249C63.2392 29.6413 63.7768 29.5222 64.3229 29.4702C64.5796 29.4329 64.8176 29.3769 64.8503 29.1996C64.865 28.9377 64.7963 28.678 64.6543 28.4576C64.3867 27.8353 64.1114 27.2007 63.8283 26.5536C62.6756 23.8422 61.8356 21.6116 61.9616 21.5649C62.0876 21.5182 63.0909 23.6789 64.2436 26.3902L65.0369 28.3036C65.2077 28.6032 65.2688 28.9531 65.2096 29.2929C65.1764 29.3849 65.1226 29.4682 65.0522 29.5361C64.9818 29.6041 64.8968 29.655 64.8036 29.6849C64.6656 29.727 64.523 29.752 64.3789 29.7596C63.8318 29.8521 63.275 29.8741 62.7223 29.8249Z" fill="#263238"/>
<path d="M63.6556 41.5569C60.2674 41.7401 56.8946 40.9809 53.9116 39.3636C53.9116 39.3636 56.4923 44.3056 63.6696 43.3489L63.6556 41.5569Z" fill="#FF9A6C"/>
<path d="M59.4883 32.0322C59.6112 31.8285 59.7823 31.6581 59.9866 31.536C60.1909 31.4139 60.422 31.3439 60.6597 31.3322C60.9931 31.2936 61.3307 31.3457 61.637 31.4828C61.9434 31.62 62.2071 31.8372 62.4003 32.1116C62.5388 32.3687 62.577 32.6679 62.5077 32.9516C62.4517 33.0962 62.5077 33.0216 62.391 33.1242C62.0345 33.5222 61.5859 33.8266 61.0843 34.0109C60.813 34.0911 60.5237 34.0872 60.2546 33.9997C59.9856 33.9123 59.7493 33.7453 59.577 33.5209C59.427 33.3048 59.3393 33.0516 59.3237 32.789C59.3081 32.5264 59.365 32.2646 59.4883 32.0322Z" fill="#FF9A6C"/>
<path d="M59.633 30.6696C59.7964 30.6696 59.8477 31.7335 60.8044 32.4569C61.761 33.1802 62.9044 33.0076 62.9184 33.1616C62.9184 33.2269 62.671 33.3809 62.1857 33.4136C61.5556 33.4552 60.9315 33.2698 60.4264 32.8909C59.9301 32.5319 59.5949 31.9922 59.493 31.3882C59.4557 30.9216 59.5584 30.6696 59.633 30.6696Z" fill="#263238"/>
<path d="M59.213 19.7496C59.143 20.0249 58.1444 19.9969 56.9964 20.2489C55.8484 20.5009 54.9384 20.9069 54.7611 20.6829C54.6817 20.5756 54.8217 20.3049 55.1764 20.0062C55.6498 19.6378 56.2011 19.3824 56.7883 19.2594C57.3754 19.1365 57.9829 19.1493 58.5644 19.2969C58.989 19.4276 59.2457 19.6142 59.213 19.7496Z" fill="#263238"/>
<path d="M68.5277 20.5942C68.3037 20.7902 67.5943 20.4495 66.661 20.3049C65.7277 20.1602 64.9577 20.2115 64.7943 19.9502C64.7337 19.8289 64.8877 19.6235 65.261 19.4835C65.759 19.2865 66.3027 19.2348 66.829 19.3342C67.3487 19.4191 67.8339 19.6487 68.229 19.9969C68.5603 20.2489 68.6303 20.4962 68.5277 20.5942Z" fill="#263238"/>
<path d="M61.7423 9.28223C61.7423 9.33356 61.7423 9.38489 61.775 9.43623H61.7516C61.747 9.39423 61.7423 9.33823 61.7423 9.28223Z" fill="#263238"/>
<path d="M51.2284 44.1236C51.3891 44.1685 51.5575 44.1797 51.7228 44.1564C51.8881 44.1331 52.0468 44.0757 52.1888 43.9881C52.3309 43.9004 52.4532 43.7842 52.5481 43.6469C52.6431 43.5096 52.7085 43.3541 52.7404 43.1902C52.9673 41.7408 52.9799 40.2659 52.7777 38.8129C52.5444 36.8109 51.1864 34.7202 51.0184 32.7136C50.6964 28.8869 51.0184 26.7402 51.485 23.5296C53.3181 23.2253 54.9774 22.263 56.1517 20.8229C57.5937 19.1429 58.485 17.0569 59.3204 15.0082C59.2647 17.0332 58.5797 18.9905 57.3604 20.6082C57.7654 20.6699 58.1792 20.6363 58.5689 20.5099C58.9586 20.3835 59.3134 20.1679 59.605 19.8802C60.1825 19.2972 60.6309 18.5992 60.921 17.8316C61.7019 16.0085 62.134 14.0552 62.195 12.0729C62.4646 14.9073 62.1469 17.7668 61.2617 20.4729C61.781 20.3791 62.3146 20.3998 62.825 20.5336C63.0809 20.599 63.3483 20.6044 63.6066 20.5494C63.8648 20.4943 64.1068 20.3803 64.3137 20.2162C64.5346 19.9493 64.6768 19.6261 64.7244 19.2829C65.2208 16.8705 65.3013 14.391 64.9624 11.9516C65.6449 13.2474 66.1982 14.6073 66.6144 16.0116C67.0295 17.4255 67.0392 18.9277 66.6424 20.3469C66.7625 20.4632 66.9232 20.5283 67.0904 20.5283C67.2576 20.5283 67.4183 20.4632 67.5384 20.3469C67.7666 20.0974 67.9046 19.7787 67.9304 19.4416C68.0538 18.2203 67.9733 16.9871 67.6924 15.7922C68.411 17.0709 68.6537 18.5502 69.0504 19.9596C69.447 21.3689 70.0817 22.8156 71.309 23.6182C71.5143 21.7773 71.453 19.9163 71.127 18.0929C70.7959 16.5634 70.2508 15.0882 69.5077 13.7109C68.8059 12.1799 67.8138 10.7995 66.5864 9.64623C64.4677 7.77956 63.581 8.5869 62.2277 9.29623L62.0644 9.36156C62.0644 9.32889 62.0644 9.29623 62.0644 9.26356L62.0037 8.97423C58.449 8.17072 54.7437 8.33673 51.275 9.45489C48.7224 10.2902 48.475 15.7876 47.8684 13.1882C47.4904 11.6062 45.4417 13.0529 45.4137 13.0949C42.4037 18.5316 39.2117 27.1462 39.0624 40.7636L51.2284 44.1236Z" fill="#263238"/>
<path d="M50.995 30.8749C51.6589 32.0503 52.6144 33.0349 53.7693 33.7337C54.9243 34.4326 56.2398 34.8222 57.589 34.8649C57.66 34.8559 57.7253 34.8213 57.7726 34.7676C57.82 34.7139 57.8461 34.6448 57.8461 34.5732C57.8461 34.5016 57.82 34.4325 57.7726 34.3788C57.7253 34.3251 57.66 34.2906 57.589 34.2816C56.3457 34.2353 55.135 33.8708 54.0728 33.2229C53.0106 32.575 52.1324 31.6653 51.5224 30.5809C51.3404 30.2496 50.8364 30.5436 51.0184 30.8749H50.995Z" fill="#E0E0E0"/>
<path d="M58.3777 35.9756L57.0897 35.7749C56.9403 35.7516 56.797 35.6991 56.668 35.6202C56.539 35.5414 56.4268 35.4379 56.338 35.3156C56.2491 35.1934 56.1852 35.0547 56.15 34.9077C56.1149 34.7607 56.1091 34.6082 56.133 34.4589C56.1801 34.157 56.3452 33.8861 56.592 33.7058C56.8388 33.5255 57.147 33.4506 57.449 33.4976L58.7323 33.6982C59.0337 33.7465 59.3039 33.9119 59.4839 34.1583C59.664 34.4048 59.7393 34.7124 59.6937 35.0142C59.6454 35.3156 59.48 35.5858 59.2336 35.7658C58.9871 35.9459 58.6795 36.0213 58.3777 35.9756Z" fill="#F83758"/>
<path d="M48.3583 34.2116C51.281 34.2116 53.6503 31.8423 53.6503 28.9196C53.6503 25.9969 51.281 23.6276 48.3583 23.6276C45.4356 23.6276 43.0663 25.9969 43.0663 28.9196C43.0663 31.8423 45.4356 34.2116 48.3583 34.2116Z" fill="#F83758"/>
<path d="M46.8884 24.3882C46.8884 24.3882 45.9551 11.7602 54.7424 6.9629L57.1224 6.70157C57.1224 6.70157 48.0457 11.7882 49.9451 25.5689L46.8884 24.3882Z" fill="#F83758"/>
</svg>
