<svg width="135" height="193" viewBox="0 0 135 193" fill="none" xmlns="http://www.w3.org/2000/svg">
<path d="M128.088 0.140976H6.06833C2.76677 0.140976 0.090332 2.81742 0.090332 6.11898V186.43C0.090332 189.731 2.76677 192.408 6.06833 192.408H128.088C131.389 192.408 134.066 189.731 134.066 186.43V6.11898C134.066 2.81742 131.389 0.140976 128.088 0.140976Z" fill="#263238"/>
<path d="M128.083 192.403L128.503 192.375C128.676 192.37 128.847 192.349 129.016 192.314C129.253 192.28 129.487 192.228 129.716 192.16C130.495 191.934 131.22 191.553 131.848 191.039C132.475 190.525 132.991 189.888 133.366 189.169C133.621 188.666 133.808 188.131 133.921 187.578C134.018 186.96 134.056 186.335 134.033 185.711C134.033 184.39 134.033 182.948 134.033 181.385C134.033 178.254 134.033 174.646 134.033 170.586C134.033 154.332 134.005 130.822 133.986 101.767C133.986 87.2443 133.986 71.331 133.986 54.2463C133.986 45.7063 133.986 36.8816 133.986 27.7723V13.9403C133.986 11.5976 133.986 9.24254 133.986 6.87498C134.012 6.28845 133.981 5.70082 133.893 5.12031C133.797 4.5443 133.611 3.9869 133.342 3.46831C132.803 2.41758 131.961 1.55276 130.925 0.985647C130.405 0.711923 129.849 0.512429 129.273 0.39298C128.686 0.295327 128.09 0.256246 127.495 0.276314H6.087C4.72208 0.271392 3.39858 0.744882 2.34652 1.61449C1.29446 2.4841 0.580367 3.69485 0.328338 5.03631C0.228195 5.70803 0.193809 6.38792 0.225671 7.06631V29.5503C0.225671 40.3459 0.225671 50.975 0.225671 61.4376C0.225671 82.3443 0.225671 102.504 0.225671 121.717C0.225671 140.93 0.225671 159.181 0.225671 176.266V182.617C0.225671 183.667 0.225671 184.708 0.225671 185.748C0.211289 186.263 0.234682 186.777 0.295668 187.288C0.368725 187.789 0.506779 188.279 0.706337 188.744C1.10688 189.668 1.73754 190.474 2.53816 191.086C3.33878 191.697 4.28264 192.092 5.27967 192.235C5.7751 192.294 6.27429 192.316 6.773 192.3H11.267H34.0683L102.883 192.342L121.592 192.37L102.883 192.398L34.0683 192.44H11.267H6.773C6.26341 192.458 5.75323 192.436 5.247 192.375C4.21431 192.227 3.23658 191.818 2.40673 191.185C1.57687 190.553 0.922459 189.719 0.505674 188.763C0.300811 188.277 0.158124 187.768 0.0810055 187.246C0.0158871 186.726 -0.00751809 186.202 0.0110083 185.678C0.0110083 184.638 0.0110083 183.597 0.0110083 182.547V176.266C0.0110083 159.181 0.0110083 140.93 0.0110083 121.717C0.0110083 102.504 0.0110083 82.3443 0.0110083 61.4376C0.0110083 50.9843 0.0110083 40.3552 0.0110083 29.5503V7.06631C-0.0204315 6.3707 0.0155118 5.67367 0.11834 4.98498C0.381455 3.58133 1.1284 2.31437 2.22919 1.40458C3.32998 0.494786 4.71492 -0.00024063 6.14301 0.00564627H127.448C128.059 -0.0156711 128.67 0.0234077 129.273 0.122313C129.874 0.249057 130.455 0.457904 131 0.74298C132.075 1.33912 132.951 2.2403 133.515 3.33298C133.795 3.88002 133.989 4.46722 134.089 5.07365C134.179 5.66798 134.212 6.26967 134.187 6.87031V13.9403C134.187 18.607 134.187 23.2208 134.187 27.7816C134.187 36.8816 134.187 45.7063 134.187 54.2556C134.187 71.3403 134.187 87.2536 134.187 101.776C134.187 130.831 134.154 154.342 134.145 170.596C134.145 174.656 134.145 178.263 134.145 181.394C134.145 182.958 134.145 184.4 134.145 185.72C134.165 186.345 134.126 186.97 134.028 187.587C133.911 188.145 133.72 188.685 133.459 189.192C133.011 190.032 132.371 190.755 131.592 191.302C131.035 191.698 130.413 191.995 129.754 192.179C129.523 192.248 129.288 192.3 129.049 192.333C128.878 192.365 128.705 192.383 128.531 192.384C128.228 192.403 128.083 192.403 128.083 192.403Z" fill="#263238"/>
<path d="M70.7111 186.379C72.7194 184.371 72.7194 181.115 70.7111 179.107C68.7028 177.098 65.4466 177.098 63.4383 179.107C61.43 181.115 61.43 184.371 63.4383 186.379C65.4466 188.388 68.7028 188.388 70.7111 186.379Z" fill="#455A64"/>
<path d="M80.805 10.3003H53.4443C52.9381 10.3003 52.4526 10.0992 52.0947 9.74128C51.7368 9.38334 51.5357 8.89786 51.5357 8.39165C51.5344 8.14021 51.5829 7.89101 51.6783 7.65837C51.7736 7.42572 51.914 7.2142 52.0914 7.03598C52.2687 6.85775 52.4796 6.71633 52.7117 6.61982C52.9439 6.52332 53.1929 6.47365 53.4443 6.47365H80.805C81.0557 6.47365 81.3038 6.52302 81.5354 6.61894C81.767 6.71486 81.9774 6.85545 82.1546 7.03268C82.3319 7.20992 82.4725 7.42033 82.5684 7.6519C82.6643 7.88347 82.7137 8.13166 82.7137 8.38231C82.7149 8.63375 82.6664 8.88295 82.5711 9.1156C82.4757 9.34824 82.3353 9.55976 82.1579 9.73798C81.9806 9.91621 81.7698 10.0576 81.5376 10.1541C81.3054 10.2506 81.0564 10.3003 80.805 10.3003Z" fill="#455A64"/>
<path d="M129.721 13.8563H4.19702V174.422H129.721V13.8563Z" fill="white"/>
<path d="M63.4824 101.207H29.579C28.8859 101.207 28.2212 100.932 27.7311 100.442C27.241 99.9515 26.9657 99.2867 26.9657 98.5936C26.9657 97.9005 27.241 97.2358 27.7311 96.7457C28.2212 96.2556 28.8859 95.9803 29.579 95.9803H63.4824C64.1755 95.9803 64.8402 96.2556 65.3303 96.7457C65.8204 97.2358 66.0957 97.9005 66.0957 98.5936C66.0957 99.2867 65.8204 99.9515 65.3303 100.442C64.8402 100.932 64.1755 101.207 63.4824 101.207Z" fill="#E0E0E0"/>
<path d="M108.908 99.9937H98.9024C98.2093 99.9937 97.5446 99.7183 97.0545 99.2282C96.5644 98.7381 96.2891 98.0734 96.2891 97.3803C96.2891 96.6868 96.5642 96.0216 97.0542 95.5308C97.5442 95.0399 98.2089 94.7636 98.9024 94.7623H108.908C109.251 94.7623 109.592 94.8301 109.909 94.9617C110.226 95.0933 110.515 95.2862 110.757 95.5294C111 95.7726 111.192 96.0612 111.323 96.3788C111.455 96.6964 111.522 97.0367 111.521 97.3803C111.521 98.0734 111.246 98.7381 110.756 99.2282C110.266 99.7183 109.601 99.9937 108.908 99.9937Z" fill="#E0E0E0"/>
<path d="M74.9297 112.281H29.579C28.8859 112.281 28.2212 112.006 27.7311 111.516C27.241 111.025 26.9657 110.361 26.9657 109.668C26.9657 109.324 27.0333 108.985 27.1646 108.668C27.296 108.351 27.4885 108.062 27.7311 107.82C27.9738 107.577 28.2619 107.385 28.579 107.253C28.896 107.122 29.2358 107.054 29.579 107.054H74.9297C75.2729 107.054 75.6127 107.122 75.9298 107.253C76.2468 107.385 76.5349 107.577 76.7776 107.82C77.0203 108.062 77.2128 108.351 77.3441 108.668C77.4754 108.985 77.543 109.324 77.543 109.668C77.543 110.361 77.2677 111.025 76.7776 111.516C76.2875 112.006 75.6228 112.281 74.9297 112.281Z" fill="#E0E0E0"/>
<path d="M108.908 111.091H98.9024C98.2093 111.091 97.5446 110.816 97.0545 110.326C96.5644 109.835 96.2891 109.171 96.2891 108.478C96.2891 107.785 96.5644 107.12 97.0545 106.63C97.5446 106.14 98.2093 105.864 98.9024 105.864H108.908C109.251 105.864 109.591 105.931 109.909 106.062C110.226 106.193 110.514 106.386 110.757 106.628C111 106.871 111.192 107.16 111.323 107.477C111.454 107.794 111.522 108.134 111.521 108.478C111.521 109.171 111.246 109.835 110.756 110.326C110.266 110.816 109.601 111.091 108.908 111.091Z" fill="#E0E0E0"/>
<path d="M48.031 123.378H29.579C28.8859 123.378 28.2212 123.103 27.7311 122.613C27.241 122.123 26.9657 121.458 26.9657 120.765C26.9657 120.422 27.0333 120.082 27.1646 119.765C27.296 119.448 27.4885 119.16 27.7311 118.917C27.9738 118.674 28.2619 118.482 28.579 118.351C28.896 118.219 29.2358 118.152 29.579 118.152H48.031C48.3742 118.152 48.7141 118.219 49.0311 118.351C49.3482 118.482 49.6363 118.674 49.8789 118.917C50.1216 119.16 50.3141 119.448 50.4454 119.765C50.5768 120.082 50.6444 120.422 50.6444 120.765C50.645 121.108 50.5778 121.448 50.4467 121.766C50.3156 122.083 50.1231 122.371 49.8803 122.614C49.6375 122.857 49.3492 123.05 49.0318 123.181C48.7145 123.312 48.3744 123.379 48.031 123.378Z" fill="#E0E0E0"/>
<path d="M108.908 122.207H98.9024C98.5592 122.207 98.2194 122.139 97.9023 122.008C97.5853 121.877 97.2972 121.684 97.0545 121.442C96.8118 121.199 96.6193 120.911 96.488 120.594C96.3567 120.277 96.2891 119.937 96.2891 119.594C96.2891 119.25 96.3567 118.911 96.488 118.594C96.6193 118.277 96.8118 117.988 97.0545 117.746C97.2972 117.503 97.5853 117.311 97.9023 117.179C98.2194 117.048 98.5592 116.98 98.9024 116.98H108.908C109.251 116.98 109.591 117.048 109.908 117.179C110.225 117.311 110.513 117.503 110.756 117.746C110.998 117.988 111.191 118.277 111.322 118.594C111.453 118.911 111.521 119.25 111.521 119.594C111.521 119.937 111.453 120.277 111.322 120.594C111.191 120.911 110.998 121.199 110.756 121.442C110.513 121.684 110.225 121.877 109.908 122.008C109.591 122.139 109.251 122.207 108.908 122.207Z" fill="#E0E0E0"/>
<path d="M108.908 132.749H98.9024C98.2093 132.749 97.5446 132.474 97.0545 131.984C96.5644 131.493 96.2891 130.829 96.2891 130.136C96.2891 129.443 96.5644 128.778 97.0545 128.288C97.5446 127.798 98.2093 127.522 98.9024 127.522H108.908C109.601 127.522 110.266 127.798 110.756 128.288C111.246 128.778 111.521 129.443 111.521 130.136C111.522 130.479 111.454 130.819 111.323 131.136C111.192 131.454 111 131.742 110.757 131.985C110.514 132.228 110.226 132.42 109.909 132.551C109.591 132.682 109.251 132.75 108.908 132.749Z" fill="#455A64"/>
<path d="M86.0597 44.4977H51.4424C50.4527 44.4977 49.6504 45.3 49.6504 46.2897V80.907C49.6504 81.8967 50.4527 82.699 51.4424 82.699H86.0597C87.0494 82.699 87.8517 81.8967 87.8517 80.907V46.2897C87.8517 45.3 87.0494 44.4977 86.0597 44.4977Z" fill="#F83758"/>
<path d="M75.1163 66.5616H62.5163C62.4693 66.5616 62.4242 66.5429 62.3909 66.5097C62.3577 66.4764 62.339 66.4313 62.339 66.3843C62.339 66.3612 62.3436 66.3384 62.3526 66.3171C62.3615 66.2959 62.3747 66.2766 62.3912 66.2605C62.4077 66.2444 62.4273 66.2318 62.4488 66.2234C62.4703 66.215 62.4933 66.211 62.5163 66.2116H74.995L76.395 58.0496H61.3123C61.287 58.0538 61.261 58.0524 61.2362 58.0455C61.2114 58.0386 61.1884 58.0264 61.1688 58.0098C61.1492 57.9931 61.1335 57.9724 61.1227 57.9491C61.1119 57.9257 61.1063 57.9003 61.1063 57.8746C61.1063 57.8489 61.1119 57.8235 61.1227 57.8002C61.1335 57.7768 61.1492 57.7561 61.1688 57.7395C61.1884 57.7228 61.2114 57.7106 61.2362 57.7038C61.261 57.6969 61.287 57.6955 61.3123 57.6996H76.6237C76.6492 57.6997 76.6745 57.7051 76.6978 57.7156C76.7211 57.726 76.742 57.7412 76.759 57.7603C76.7751 57.7804 76.7868 57.8037 76.7932 57.8286C76.7996 57.8536 76.8007 57.8796 76.7963 57.905L75.289 66.417C75.2806 66.457 75.2591 66.493 75.2277 66.5192C75.1964 66.5455 75.1572 66.5604 75.1163 66.5616Z" fill="white"/>
<path d="M74.7009 69.5343L62.689 69.497C62.6462 69.4972 62.6049 69.4816 62.573 69.4532C62.5411 69.4247 62.5209 69.3855 62.5163 69.343L60.7756 55.7816H57.0703C57.0472 55.7823 57.0243 55.7783 57.0028 55.7699C56.9813 55.7615 56.9617 55.7488 56.9452 55.7327C56.9286 55.7167 56.9155 55.6974 56.9065 55.6761C56.8975 55.6549 56.8929 55.632 56.8929 55.609C56.8929 55.5619 56.9116 55.5168 56.9449 55.4836C56.9781 55.4503 57.0232 55.4316 57.0703 55.4316H60.9296C60.9721 55.4324 61.0128 55.4483 61.0445 55.4766C61.0762 55.5049 61.0967 55.5436 61.1023 55.5856L62.8616 69.147L74.7243 69.1843C74.7705 69.1855 74.8144 69.2047 74.8467 69.2379C74.8789 69.271 74.897 69.3154 74.897 69.3616C74.8972 69.3864 74.8921 69.411 74.882 69.4336C74.8719 69.4562 74.857 69.4764 74.8384 69.4928C74.8198 69.5092 74.7979 69.5214 74.7742 69.5285C74.7505 69.5357 74.7255 69.5377 74.7009 69.5343Z" fill="white"/>
<path d="M64.6443 73.8137C64.3139 73.8137 63.9909 73.7157 63.7161 73.5321C63.4414 73.3485 63.2273 73.0876 63.1008 72.7823C62.9744 72.4771 62.9413 72.1411 63.0057 71.8171C63.0702 71.493 63.2293 71.1953 63.463 70.9616C63.6966 70.728 63.9943 70.5689 64.3184 70.5044C64.6425 70.44 64.9784 70.473 65.2836 70.5995C65.5889 70.7259 65.8498 70.9401 66.0334 71.2148C66.217 71.4896 66.315 71.8126 66.315 72.143C66.315 72.5861 66.139 73.011 65.8256 73.3243C65.5123 73.6376 65.0874 73.8137 64.6443 73.8137ZM64.6443 70.8223C64.3831 70.8223 64.1278 70.8998 63.9106 71.0449C63.6934 71.19 63.5241 71.3963 63.4242 71.6376C63.3242 71.8789 63.2981 72.1445 63.349 72.4006C63.4 72.6568 63.5257 72.8921 63.7104 73.0768C63.8951 73.2615 64.1305 73.3873 64.3866 73.4383C64.6428 73.4892 64.9084 73.4631 65.1497 73.3631C65.391 73.2632 65.5973 73.0939 65.7424 72.8767C65.8875 72.6595 65.965 72.4042 65.965 72.143C65.965 71.9696 65.9308 71.7978 65.8644 71.6376C65.7981 71.4774 65.7008 71.3318 65.5782 71.2091C65.4555 71.0865 65.3099 70.9892 65.1497 70.9229C64.9895 70.8565 64.8177 70.8223 64.6443 70.8223Z" fill="white"/>
<path d="M72.937 73.8137C72.6066 73.8137 72.2836 73.7157 72.0088 73.5321C71.7341 73.3485 71.52 73.0876 71.3935 72.7823C71.2671 72.4771 71.234 72.1411 71.2985 71.8171C71.3629 71.493 71.522 71.1953 71.7557 70.9616C71.9893 70.728 72.287 70.5689 72.6111 70.5044C72.9352 70.44 73.2711 70.473 73.5764 70.5995C73.8816 70.7259 74.1426 70.9401 74.3261 71.2148C74.5097 71.4896 74.6077 71.8126 74.6077 72.143C74.6065 72.5857 74.43 73.0099 74.117 73.323C73.804 73.636 73.3797 73.8124 72.937 73.8137ZM72.937 70.8223C72.6758 70.8223 72.4205 70.8998 72.2033 71.0449C71.9861 71.19 71.8169 71.3963 71.7169 71.6376C71.6169 71.8789 71.5908 72.1445 71.6417 72.4006C71.6927 72.6568 71.8185 72.8921 72.0032 73.0768C72.1879 73.2615 72.4232 73.3873 72.6794 73.4383C72.9356 73.4892 73.2011 73.4631 73.4424 73.3631C73.6837 73.2632 73.89 73.0939 74.0351 72.8767C74.1802 72.6595 74.2577 72.4042 74.2577 72.143C74.2577 71.9696 74.2235 71.7978 74.1572 71.6376C74.0908 71.4774 73.9935 71.3318 73.8709 71.2091C73.7482 71.0865 73.6027 70.9892 73.4424 70.9229C73.2822 70.8565 73.1105 70.8223 72.937 70.8223Z" fill="white"/>
<path d="M66.3944 66.5616C66.3497 66.5605 66.3071 66.5426 66.2751 66.5115C66.2431 66.4803 66.224 66.4382 66.2217 66.3936L65.7084 58.1616C65.7064 58.1386 65.7092 58.1154 65.7164 58.0934C65.7237 58.0714 65.7352 58.0511 65.7505 58.0337C65.7657 58.0163 65.7843 58.0021 65.8051 57.9921C65.8259 57.982 65.8486 57.9762 65.8717 57.975C65.8947 57.9731 65.9179 57.9758 65.9399 57.9831C65.9619 57.9903 65.9822 58.0019 65.9996 58.0171C66.017 58.0324 66.0312 58.0509 66.0413 58.0718C66.0514 58.0926 66.0572 58.1152 66.0584 58.1383L66.5717 66.375C66.573 66.4205 66.5568 66.4648 66.5264 66.4986C66.496 66.5325 66.4537 66.5534 66.4084 66.557L66.3944 66.5616Z" fill="white"/>
<path d="M71.0097 66.5617C70.9866 66.5611 70.9639 66.5558 70.9428 66.5463C70.9218 66.5368 70.9029 66.5231 70.8872 66.5062C70.8716 66.4892 70.8594 66.4693 70.8516 66.4475C70.8438 66.4258 70.8404 66.4027 70.8417 66.3797L71.3084 58.143C71.3089 58.1201 71.3141 58.0976 71.3237 58.0768C71.3333 58.056 71.347 58.0373 71.3641 58.022C71.3811 58.0067 71.4011 57.9951 71.4228 57.9878C71.4446 57.9805 71.4675 57.9777 71.4903 57.9797C71.5366 57.9821 71.58 58.0025 71.6114 58.0365C71.6428 58.0705 71.6596 58.1154 71.6584 58.1617L71.1917 66.3983C71.1905 66.421 71.1848 66.4432 71.175 66.4637C71.1652 66.4842 71.1515 66.5026 71.1346 66.5178C71.1177 66.5329 71.0979 66.5446 71.0765 66.5522C71.0551 66.5597 71.0324 66.5629 71.0097 66.5617Z" fill="white"/>
<path d="M61.779 62.441C61.756 62.4416 61.733 62.4376 61.7115 62.4292C61.69 62.4208 61.6704 62.4082 61.6539 62.3921C61.6374 62.376 61.6242 62.3568 61.6153 62.3355C61.6063 62.3142 61.6017 62.2914 61.6017 62.2683C61.6017 62.2221 61.6197 62.1777 61.652 62.1446C61.6842 62.1114 61.7281 62.0922 61.7744 62.091L75.8677 61.9557C75.9135 61.9557 75.9574 61.9738 75.9898 62.0062C76.0222 62.0386 76.0404 62.0825 76.0404 62.1283C76.0404 62.1746 76.0223 62.219 75.9901 62.2521C75.9578 62.2852 75.9139 62.3044 75.8677 62.3057L61.7744 62.441H61.779Z" fill="white"/>
<path d="M78.9793 60.3097C81.0862 59.4426 82.0912 57.0317 81.2241 54.9248C80.357 52.8179 77.9461 51.8128 75.8392 52.68C73.7323 53.5471 72.7272 55.958 73.5943 58.0649C74.4614 60.1718 76.8724 61.1768 78.9793 60.3097Z" fill="white"/>
<path d="M78.5931 56.6263C78.7673 56.819 78.8609 57.0713 78.8544 57.331C78.8562 57.5426 78.7962 57.7502 78.6817 57.9283C78.5571 58.1204 78.3785 58.2714 78.1684 58.3623C77.8999 58.4816 77.608 58.539 77.3144 58.5303C77.054 58.5297 76.795 58.4936 76.5444 58.423C76.3129 58.3669 76.0943 58.2672 75.9004 58.129L76.2317 57.471C76.3797 57.5808 76.5455 57.6644 76.7217 57.7183C76.9073 57.7776 77.1009 57.8075 77.2957 57.807C77.474 57.8163 77.6511 57.7725 77.8044 57.681C77.8626 57.6436 77.9101 57.5916 77.942 57.5302C77.9739 57.4688 77.9892 57.4001 77.9864 57.331C77.9864 57.0276 77.7577 56.8643 77.2957 56.8643H76.899V56.295L77.6644 55.4316H76.0824V54.741H78.6817V55.301L77.8464 56.2343C78.1326 56.2764 78.3959 56.4147 78.5931 56.6263Z" fill="#F83758"/>
<path d="M129.721 13.8563H4.19702V31.165H129.721V13.8563Z" fill="#E0E0E0"/>
<path d="M14.571 22.8723C14.571 23.2683 14.4536 23.6553 14.2336 23.9846C14.0136 24.3138 13.701 24.5704 13.3351 24.7219C12.9693 24.8734 12.5668 24.9131 12.1784 24.8358C11.7901 24.7586 11.4334 24.5679 11.1534 24.2879C10.8734 24.0079 10.6827 23.6512 10.6055 23.2629C10.5282 22.8745 10.5679 22.472 10.7194 22.1062C10.8709 21.7404 11.1275 21.4277 11.4568 21.2077C11.786 20.9877 12.1731 20.8703 12.569 20.8703C13.0996 20.8715 13.6081 21.0829 13.9833 21.458C14.3585 21.8332 14.5698 22.3417 14.571 22.8723Z" fill="white"/>
<path d="M18.5097 24.8743C19.6154 24.8743 20.5117 23.978 20.5117 22.8723C20.5117 21.7666 19.6154 20.8703 18.5097 20.8703C17.404 20.8703 16.5077 21.7666 16.5077 22.8723C16.5077 23.978 17.404 24.8743 18.5097 24.8743Z" fill="white"/>
<path d="M24.4457 24.8743C25.5514 24.8743 26.4477 23.978 26.4477 22.8723C26.4477 21.7666 25.5514 20.8703 24.4457 20.8703C23.34 20.8703 22.4437 21.7666 22.4437 22.8723C22.4437 23.978 23.34 24.8743 24.4457 24.8743Z" fill="white"/>
<path d="M81.6029 158.654H54.1909C51.8963 158.654 49.6956 157.742 48.0731 156.12C46.4505 154.497 45.5389 152.296 45.5389 150.002C45.5377 148.865 45.7606 147.739 46.1949 146.688C46.6291 145.637 47.2662 144.682 48.0698 143.878C48.8733 143.073 49.8275 142.435 50.8778 142C51.9281 141.564 53.054 141.34 54.1909 141.34H81.6029C83.8968 141.34 86.0968 142.251 87.7192 143.873C89.3416 145.494 90.2537 147.694 90.2549 149.988C90.2568 151.125 90.0343 152.252 89.6004 153.303C89.1664 154.354 88.5294 155.31 87.7258 156.115C86.9222 156.919 85.9678 157.558 84.9172 157.994C83.8665 158.429 82.7403 158.654 81.6029 158.654Z" fill="#F83758"/>
<path d="M65.895 149.558C65.895 150.338 65.307 150.823 64.369 150.823H63.795V151.719H62.8243V148.284H64.3923C65.307 148.284 65.895 148.774 65.895 149.558ZM64.915 149.558C64.915 149.236 64.7143 149.05 64.313 149.05H63.795V150.058H64.3363C64.7283 150.058 64.915 149.871 64.915 149.558Z" fill="white"/>
<path d="M68.499 151.056H67.0617L66.791 151.719H65.797L67.3137 148.284H68.2703L69.7917 151.719H68.7837L68.499 151.056ZM68.2143 150.338L67.7477 149.236L67.309 150.338H68.2143Z" fill="white"/>
<path d="M71.677 150.492V151.719H70.7064V150.473L69.395 148.284H70.4217L71.2384 149.652L72.0504 148.284H72.9837L71.677 150.492Z" fill="white"/>
</svg>
