<svg width="33" height="34" viewBox="0 0 33 34" fill="none" xmlns="http://www.w3.org/2000/svg">
<path d="M8.61977 33.8957L12.4138 31.9964C16.3338 32.9751 20.4781 32.4522 24.0321 30.5304C27.586 28.6086 30.2927 25.4269 31.6199 21.6108C32.9472 17.7947 32.799 13.6202 31.2046 9.90778C29.6102 6.19536 26.6848 3.21359 23.0036 1.54855C19.3223 -0.116479 15.1513 -0.344337 11.3106 0.909771C7.46982 2.16388 4.23706 4.80924 2.24773 8.32588C0.258401 11.8425 -0.34361 15.9761 0.560031 19.914C1.46367 23.852 3.8076 27.3096 7.1311 29.6071L8.61977 33.8957Z" fill="white"/>
<path d="M8.61973 33.8957C8.57954 33.8111 8.54524 33.7238 8.51706 33.6344C8.44239 33.4384 8.33973 33.1677 8.21373 32.827L7.05173 29.6304C7.04806 29.6209 7.04636 29.6108 7.04674 29.6006C7.04712 29.5905 7.04958 29.5805 7.05395 29.5713C7.05832 29.5622 7.06451 29.554 7.07215 29.5473C7.07979 29.5406 7.08873 29.5355 7.0984 29.5324C7.10651 29.5289 7.11524 29.5271 7.12406 29.5271C7.13288 29.5271 7.14162 29.5289 7.14973 29.5324L7.07972 29.6677C4.88781 28.1814 3.09588 26.1779 1.86239 23.8344C1.06143 22.2952 0.505631 20.6404 0.215062 18.9297C-0.105397 16.9776 -0.0674483 14.9835 0.327057 13.0451C0.784007 10.9111 1.65611 8.88783 2.89372 7.09038C4.22469 5.12144 5.97846 3.47448 8.02706 2.26972C10.21 0.997168 12.6525 0.234605 15.1717 0.0390503C17.8329 -0.1449 20.4989 0.322951 22.9384 1.40205C25.378 2.48115 27.5176 4.13894 29.1717 6.23172C30.7393 8.24559 31.8234 10.5926 32.3404 13.0917C32.8178 15.4406 32.7588 17.8669 32.1677 20.1897C31.6363 22.3313 30.6845 24.3459 29.3677 26.1164C28.1723 27.7076 26.6969 29.0676 25.0137 30.1297L23.8144 30.8064C23.4177 31.0164 23.0024 31.175 22.6057 31.357C21.8358 31.6846 21.0396 31.9469 20.2257 32.141C17.6613 32.7621 14.9837 32.7444 12.4277 32.0897H12.4791L9.62306 33.4897L8.89039 33.8397C8.81341 33.8825 8.73205 33.9169 8.64772 33.9424L8.90439 33.8024L9.63706 33.4151L12.4091 31.9731C12.4259 31.9687 12.4436 31.9687 12.4604 31.9731C14.9938 32.5844 17.6377 32.5716 20.1651 31.9357C20.9641 31.7385 21.7447 31.473 22.4984 31.1424C22.8857 30.9604 23.2964 30.8064 23.6837 30.5964L24.8597 29.9244C28.3637 27.6833 30.8615 24.1701 31.8271 20.1244C32.395 17.8413 32.438 15.4592 31.9531 13.1571C31.4461 10.714 30.3825 8.42083 28.8451 6.45572C27.2324 4.40975 25.1451 2.78793 22.7641 1.73079C20.3831 0.673655 17.7802 0.213105 15.1811 0.38905C12.7135 0.572814 10.3199 1.31482 8.18106 2.55905C6.18367 3.73649 4.4745 5.34521 3.17839 7.26772C1.95781 9.03089 1.09819 11.0182 0.649058 13.1151C0.251382 15.0146 0.202364 16.9706 0.504393 18.8877C0.781492 20.5728 1.31666 22.205 2.09106 23.7271C3.2891 26.0497 5.035 28.0455 7.17773 29.5417C7.19117 29.5564 7.19863 29.5755 7.19863 29.5954C7.19863 29.6153 7.19117 29.6344 7.17773 29.649C7.16898 29.6639 7.15538 29.6752 7.13922 29.6812C7.12306 29.6871 7.10534 29.6873 7.08906 29.6817L7.18706 29.5837C7.65372 30.9557 8.00373 32.0197 8.25106 32.7664C8.36773 33.1211 8.45639 33.3964 8.52172 33.6017C8.56284 33.6967 8.59563 33.7951 8.61973 33.8957Z" fill="#263238"/>
<path d="M12.9597 17.0257C12.9597 17.3755 12.856 17.7175 12.6616 18.0083C12.4673 18.2992 12.1911 18.5259 11.8679 18.6598C11.5447 18.7936 11.1891 18.8286 10.846 18.7604C10.5029 18.6922 10.1877 18.5237 9.9404 18.2764C9.69304 18.029 9.52459 17.7139 9.45635 17.3708C9.3881 17.0277 9.42313 16.6721 9.557 16.3489C9.69087 16.0257 9.91756 15.7495 10.2084 15.5551C10.4993 15.3608 10.8412 15.257 11.191 15.257C11.4233 15.257 11.6533 15.3028 11.8679 15.3917C12.0825 15.4806 12.2774 15.6108 12.4417 15.7751C12.6059 15.9393 12.7362 16.1343 12.8251 16.3489C12.914 16.5635 12.9597 16.7935 12.9597 17.0257Z" fill="#263238"/>
<path d="M18.9098 17.0257C18.9098 17.3757 18.8059 17.7179 18.6114 18.0088C18.4168 18.2998 18.1403 18.5265 17.8169 18.6602C17.4934 18.7939 17.1375 18.8287 16.7943 18.7601C16.4511 18.6914 16.136 18.5225 15.8888 18.2747C15.6416 18.0269 15.4736 17.7113 15.4059 17.3679C15.3381 17.0245 15.3738 16.6687 15.5084 16.3456C15.643 16.0225 15.8704 15.7466 16.1619 15.5529C16.4534 15.3591 16.7958 15.2561 17.1458 15.2571C17.614 15.2583 18.0627 15.4452 18.3934 15.7767C18.7241 16.1083 18.9098 16.5575 18.9098 17.0257Z" fill="#263238"/>
<path d="M24.7058 17.0257C24.7058 17.3757 24.602 17.7179 24.4074 18.0088C24.2128 18.2998 23.9363 18.5265 23.6129 18.6602C23.2894 18.7939 22.9336 18.8287 22.5904 18.7601C22.2472 18.6914 21.932 18.5225 21.6848 18.2747C21.4377 18.0269 21.2696 17.7113 21.2019 17.3679C21.1342 17.0245 21.1699 16.6687 21.3044 16.3456C21.439 16.0225 21.6664 15.7466 21.9579 15.5529C22.2494 15.3591 22.5918 15.2561 22.9418 15.2571C23.4101 15.2583 23.8587 15.4452 24.1894 15.7767C24.5201 16.1083 24.7058 16.5575 24.7058 17.0257Z" fill="#263238"/>
</svg>
