<svg width="58" height="54" viewBox="0 0 58 54" fill="none" xmlns="http://www.w3.org/2000/svg">
<path d="M42.2566 9.86024C42.2286 9.86024 42.2006 9.46824 42.0653 8.77291C41.8829 7.79013 41.5917 6.83068 41.1973 5.91224C40.6291 4.54854 39.7891 3.31482 38.7286 2.28625C37.4412 1.00684 35.7017 0.286026 33.8867 0.279912C32.0717 0.273798 30.3273 0.982875 29.0313 2.25358C27.9639 3.27758 27.116 4.5081 26.5393 5.87024C26.1428 6.7871 25.8486 7.74489 25.662 8.72624C25.522 9.42157 25.494 9.81358 25.466 9.80891C25.4557 9.7143 25.4557 9.61885 25.466 9.52424C25.4811 9.25064 25.5107 8.97804 25.5546 8.70757C25.7046 7.70774 25.9757 6.72989 26.362 5.79557C26.9231 4.38978 27.7737 3.11778 28.8586 2.06224C29.5195 1.40543 30.3033 0.88524 31.1652 0.531404C32.0271 0.177567 32.9503 -0.00299594 33.8821 3.7598e-05C34.8138 0.00307114 35.7358 0.18965 36.5954 0.549092C37.455 0.908533 38.2354 1.43381 38.892 2.09491C39.9683 3.15373 40.8122 4.42519 41.37 5.82824C41.7507 6.76341 42.0171 7.74116 42.1633 8.74024C42.2072 9.01071 42.2368 9.28331 42.252 9.55691C42.2667 9.65738 42.2683 9.75935 42.2566 9.86024Z" fill="#455A64"/>
<path d="M45.1593 9.86024C45.1313 9.86024 45.1033 9.46824 44.968 8.77291C44.7833 7.79068 44.4923 6.83147 44.1 5.91224C43.5282 4.54931 42.6869 3.31598 41.6266 2.28625C40.3392 1.00684 38.5997 0.286026 36.7847 0.279912C34.9697 0.273798 33.2253 0.982875 31.9293 2.25358C30.8616 3.27639 30.0151 4.50731 29.442 5.87024C29.0443 6.7871 28.7486 7.74483 28.56 8.72624C28.4246 9.42157 28.3966 9.81358 28.3686 9.80891C28.3553 9.71449 28.3553 9.61866 28.3686 9.52424C28.3686 9.33757 28.4013 9.05757 28.4526 8.70757C28.6049 7.70823 28.8759 6.73064 29.26 5.79557C29.8211 4.38978 30.6718 3.11778 31.7566 2.06224C32.4175 1.40543 33.2013 0.88524 34.0632 0.531404C34.9251 0.177567 35.8483 -0.00299594 36.7801 3.7598e-05C37.7118 0.00307114 38.6338 0.18965 39.4934 0.549092C40.353 0.908533 41.1334 1.43381 41.79 2.09491C42.8679 3.15241 43.7121 4.42423 44.268 5.82824C44.652 6.76264 44.92 7.7406 45.066 8.74024C45.1173 9.09491 45.1406 9.37024 45.15 9.55691C45.1641 9.65738 45.1672 9.75909 45.1593 9.86024Z" fill="#455A64"/>
<path d="M17.1686 8.82424L49.9146 8.57224L50.6286 53.2089H13.8833L17.1686 8.82424Z" fill="#EBEBEB"/>
<path d="M49.9147 8.57224H54.026L57.5633 53.2089H50.6287L49.9147 8.57224Z" fill="#E0E0E0"/>
<path d="M42.9753 26.1469H21.5366V29.7403H42.9753V26.1469Z" fill="white"/>
<path d="M23.9774 22.2456C23.8145 21.0136 23.5252 19.8016 23.114 18.6289C22.669 17.4049 21.9943 16.2771 21.126 15.3062C20.6541 14.7342 20.0621 14.2731 19.3921 13.9555C18.722 13.6379 17.9902 13.4716 17.2487 13.4685C16.5071 13.4654 15.774 13.6255 15.1013 13.9374C14.4285 14.2494 13.8327 14.7056 13.356 15.2736C12.4835 16.2403 11.804 17.3649 11.354 18.5869C10.9378 19.759 10.6438 20.971 10.4767 22.2036C10.4645 22.1153 10.4645 22.0258 10.4767 21.9376C10.4767 21.7649 10.5 21.5129 10.5467 21.1863C10.6619 20.2724 10.8779 19.374 11.1907 18.5076C11.6255 17.2435 12.3059 16.0778 13.1927 15.0776C13.6853 14.4793 14.3048 13.998 15.0063 13.6686C15.7078 13.3393 16.4738 13.17 17.2488 13.1731C18.0238 13.1763 18.7884 13.3517 19.4872 13.6867C20.186 14.0217 20.8016 14.508 21.2894 15.1102C22.1736 16.1135 22.8494 17.2826 23.2774 18.5496C23.5879 19.4161 23.8008 20.3145 23.912 21.2283C23.954 21.5549 23.9727 21.8116 23.9774 21.9842C23.9896 22.0709 23.9896 22.1589 23.9774 22.2456Z" fill="#263238"/>
<path d="M26.3106 22.2456C26.1473 21.0132 25.8564 19.8011 25.4426 18.6289C24.9994 17.404 24.3244 16.2759 23.4546 15.3062C22.9827 14.7342 22.3907 14.2731 21.7206 13.9554C21.0506 13.6378 20.3188 13.4716 19.5773 13.4685C18.8357 13.4653 18.1026 13.6254 17.4299 13.9374C16.7571 14.2494 16.1613 14.7055 15.6846 15.2736C14.8134 16.2404 14.1354 17.3651 13.6873 18.5869C13.2711 19.759 12.9771 20.971 12.8099 22.2036C12.7977 22.1153 12.7977 22.0258 12.8099 21.9376C12.8099 21.7649 12.8333 21.5129 12.8753 21.1862C12.9905 20.2723 13.2065 19.374 13.5193 18.5076C13.954 17.2424 14.6362 16.0765 15.5259 15.0776C16.0181 14.4793 16.6372 13.9981 17.3383 13.6688C18.0394 13.3394 18.8051 13.1701 19.5797 13.1733C20.3543 13.1764 21.1186 13.3518 21.817 13.6868C22.5155 14.0218 23.1306 14.5081 23.6179 15.1102C24.5035 16.1133 25.1808 17.2824 25.6106 18.5496C25.919 19.4167 26.1318 20.3149 26.2453 21.2282C26.2873 21.5549 26.3059 21.8116 26.3106 21.9842C26.3229 22.0709 26.3229 22.1589 26.3106 22.2456Z" fill="#263238"/>
<path d="M2.64134 20.6776L28.966 20.4956L29.54 53.1576H0L2.64134 20.6776Z" fill="#F83758"/>
<path d="M28.9659 20.4956H32.2699L35.1166 53.1576H29.5399L28.9659 20.4956Z" fill="#F83758"/>
<g opacity="0.3">
<path d="M28.9659 20.4956H32.2699L35.1166 53.1576H29.5399L28.9659 20.4956Z" fill="black"/>
</g>
<path d="M24.4767 31.5882H7.24268V34.8876H24.4767V31.5882Z" fill="white"/>
</svg>
