<svg width="78" height="158" viewBox="0 0 78 158" fill="none" xmlns="http://www.w3.org/2000/svg">
<path d="M8.71733 46.4263C9.29046 47.1798 9.93771 47.8739 10.6493 48.4983C11.4147 49.0583 12.0493 49.0396 12.7353 50.2063C13.4213 51.373 14.2333 52.6003 14.2333 52.6003C14.2333 52.6003 17.416 53.9536 17.304 54.033C17.192 54.1123 16.0113 58.7743 16.0113 58.7743L10.458 55.9416L3.82664 54.075L0.368656 50.5843L0.466667 50.1923L0 49.4456C0 49.4456 0.200659 48.391 1.12933 48.8996C1.12933 48.8996 0.727991 47.8076 2.09066 48.265C3.45332 48.7223 6.08532 50.169 6.26266 50.1316C6.43999 50.0943 8.778 50.3976 8.778 50.3976L9.78131 50.0243C9.22918 49.8115 8.75867 49.4292 8.43731 48.9323C8.00798 48.1716 7.35 47.803 7.63933 47.033C7.72607 46.8264 7.87912 46.6547 8.07432 46.5448C8.26953 46.435 8.49578 46.3933 8.71733 46.4263Z" fill="#FFBF9D"/>
<path d="M10.752 52.7963C10.6274 52.7876 10.504 52.7673 10.3833 52.7356C10.0442 52.6952 9.70211 52.6858 9.3613 52.7076C8.20819 52.8057 7.07085 53.0406 5.9733 53.4076H5.94063H5.91263L5.17529 53.1463L4.80663 53.011H4.77863L3.9573 51.7276C3.85491 51.5379 3.69002 51.3895 3.49063 51.3076C3.4009 51.2816 3.30625 51.2774 3.21454 51.2952C3.12284 51.3131 3.03671 51.3525 2.96329 51.4103L2.98662 51.331C3.23489 52.1081 3.39151 52.9115 3.45329 53.725C3.45329 53.725 3.40664 53.4916 3.29931 53.081C3.19197 52.6703 3.04731 52.0823 2.83264 51.3683V51.3216L2.86995 51.289C2.96321 51.2113 3.074 51.1575 3.19272 51.1323C3.31144 51.1071 3.43453 51.1112 3.5513 51.1443C3.78319 51.2358 3.97952 51.3994 4.1113 51.611L4.93728 52.885L4.89063 52.8476L5.25929 52.9783L5.99663 53.2443H5.93129C7.04558 52.8776 8.20378 52.661 9.37529 52.6003C9.72288 52.5901 10.0705 52.6198 10.4113 52.689C10.5291 52.7095 10.6437 52.7456 10.752 52.7963Z" fill="#FF9A6C"/>
<path d="M5.44602 51.2656C4.68637 50.942 3.95304 50.5597 3.25268 50.1223C2.52102 49.7424 1.82041 49.3055 1.15735 48.8156C1.9152 49.1399 2.64692 49.5222 3.34602 49.9589C4.07798 50.3409 4.77999 50.7777 5.44602 51.2656Z" fill="#FF9A6C"/>
<path d="M2.62271 51.3683C2.59938 51.3683 2.48736 51.2796 2.31002 51.107C2.09331 50.8809 1.85408 50.6777 1.59604 50.5003C1.3415 50.3273 1.04812 50.2198 0.742032 50.1876C0.508698 50.1876 0.359381 50.1876 0.350048 50.1876C0.340714 50.1876 0.480698 50.0803 0.742032 50.0663C1.08231 50.0627 1.41575 50.1619 1.69869 50.351C1.97198 50.538 2.21312 50.7681 2.41271 51.0323C2.56204 51.2143 2.64138 51.3496 2.62271 51.3683Z" fill="#FF9A6C"/>
<path d="M6.74801 50.547C6.39827 50.8169 6.0846 51.1306 5.81468 51.4803C5.60622 51.8673 5.44933 52.2799 5.34801 52.7076C5.34801 52.7076 5.29668 52.5536 5.34801 52.3016C5.39011 51.9689 5.50656 51.6499 5.6887 51.3683C5.8698 51.0893 6.10847 50.8522 6.3887 50.673C6.5847 50.5656 6.73868 50.5283 6.74801 50.547Z" fill="#FF9A6C"/>
<path d="M58.7627 15.9156C58.3877 15.5771 58.0722 15.178 57.8294 14.7349C57.6916 14.1771 57.6916 13.5941 57.8294 13.0363C57.9358 12.3015 57.8604 11.5519 57.6098 10.853C57.3592 10.1541 56.9411 9.52737 56.392 9.02762C55.2487 8.09428 53.3914 8.01028 52.3414 9.05095L43.7034 14.6183C42.9875 15.5254 42.4636 16.5687 42.1636 17.6846C41.8636 18.8005 41.7936 19.9658 41.958 21.1096C42.0442 22.0593 42.4622 22.9482 43.1387 23.6203C43.8527 24.2363 45.0287 24.3856 45.724 23.7463C45.8283 24.4778 46.1458 25.1625 46.6368 25.7147C47.1278 26.2669 47.7705 26.6623 48.4849 26.8515C49.1992 27.0406 49.9534 27.0152 50.6534 26.7783C51.3534 26.5415 51.968 26.1037 52.4207 25.5196C52.7872 25.9622 53.2766 26.2862 53.8271 26.4508C54.3777 26.6154 54.9646 26.6132 55.5139 26.4444C56.0631 26.2756 56.5501 25.9479 56.9132 25.5025C57.2763 25.0572 57.4993 24.5143 57.554 23.9423C57.6147 23.2703 57.4467 22.5703 57.6474 21.9263C57.876 21.1749 58.5527 20.6569 58.996 20.0083C59.393 19.3884 59.5842 18.6591 59.5423 17.9242C59.5004 17.1893 59.2276 16.4863 58.7627 15.9156Z" fill="#263238"/>
<path d="M52.9947 11.9863C53.4138 11.4635 53.6315 10.8079 53.6084 10.1383C53.5853 9.46866 53.3228 8.82954 52.8687 8.33695C53.424 7.69762 53.27 6.68495 52.752 6.00362C52.1753 5.37494 51.4659 4.88238 50.6754 4.56162C50.4432 3.5934 49.8518 2.74961 49.0209 2.20113C48.1899 1.65264 47.1816 1.44048 46.2 1.60762C45.2387 0.114283 43.0827 -0.189049 41.328 0.244951C40.9086 0.382755 40.4719 0.461291 40.0307 0.478284C39.7168 0.441154 39.4052 0.38663 39.0974 0.314955C37.3427 0.020955 35.5507 1.17362 34.804 2.75096C34.7022 3.01135 34.5673 3.25758 34.4027 3.48362C34.1331 3.73741 33.832 3.95543 33.5067 4.13228C33.1809 4.3614 32.909 4.65879 32.7099 5.00375C32.5109 5.3487 32.3894 5.73292 32.354 6.12962C32.3027 6.79695 32.494 7.52962 32.1814 8.11295C31.9847 8.38639 31.8025 8.66989 31.6354 8.96229C31.276 9.86762 32.284 10.829 32.0554 11.7903C32.0087 11.9816 31.9107 12.159 31.85 12.3503C31.7243 12.7414 31.7476 13.1652 31.9154 13.5403C32.086 13.8031 32.2048 14.0962 32.2654 14.4036C32.2393 14.6401 32.1828 14.8722 32.0974 15.0943C31.9574 15.659 33.138 17.8943 33.6327 18.2256L48.6874 18.8743C49.2546 18.7718 49.7764 18.4967 50.1815 18.0866C50.5865 17.6765 50.8552 17.1514 50.9507 16.583C50.9516 16.3926 51.0066 16.2065 51.1094 16.0463C51.2323 15.9389 51.3749 15.8564 51.5294 15.8036C52.5187 15.3369 52.682 14.0303 52.6214 12.957C52.5986 12.8014 52.6065 12.6428 52.6447 12.4903C52.7295 12.3023 52.8482 12.1314 52.9947 11.9863Z" fill="#263238"/>
<path d="M47.9686 28.0443H47.9266C47.9266 28.0443 47.9686 28.021 47.9686 28.0443Z" fill="#FFBF9D"/>
<path d="M33.0353 10.1196C33.3013 7.17495 36.4373 4.56161 37.2773 4.40295C38.3839 3.85041 39.6298 3.63925 40.8566 3.79628C42.1833 3.8906 43.4786 4.24416 44.6693 4.83694C45.9132 5.52775 46.9454 6.54442 47.6549 7.77773C48.3645 9.01104 48.7246 10.4144 48.6966 11.8369L47.922 27.9976C46.172 29.9296 41.3653 31.5909 41.3653 31.5909C41.3653 31.5909 38.3039 32.2816 37.4313 31.0636C37.4313 31.0636 37.814 25.5009 37.814 25.5103C37.814 25.5196 33.5299 24.7776 32.8533 19.8403C32.4986 17.4183 32.7226 13.4096 33.0353 10.1196Z" fill="#FFBF9D"/>
<path d="M34.328 14.0303C34.3242 14.1963 34.3856 14.3571 34.499 14.4784C34.6124 14.5997 34.7688 14.6717 34.9347 14.6789C35.0157 14.688 35.0976 14.6809 35.1758 14.658C35.2541 14.6352 35.327 14.5971 35.3903 14.5458C35.4537 14.4946 35.5063 14.4313 35.545 14.3597C35.5838 14.288 35.6079 14.2093 35.6161 14.1283C35.6199 13.9623 35.5585 13.8014 35.4451 13.6801C35.3317 13.5589 35.1752 13.4869 35.0094 13.4796C34.9283 13.4699 34.8461 13.4766 34.7676 13.4991C34.6892 13.5217 34.616 13.5598 34.5525 13.6112C34.489 13.6625 34.4364 13.726 34.3979 13.798C34.3593 13.87 34.3356 13.949 34.328 14.0303Z" fill="#263238"/>
<path d="M34.1274 12.0563C34.2021 12.1403 34.7014 11.7949 35.3967 11.8136C36.0921 11.8323 36.5914 12.1869 36.6707 12.1029C36.7501 12.0189 36.6287 11.9163 36.4141 11.7529C36.1145 11.5456 35.7609 11.4304 35.3967 11.4216C35.0353 11.4113 34.6796 11.514 34.3794 11.7156C34.1647 11.8696 34.0854 12.0143 34.1274 12.0563Z" fill="#263238"/>
<path d="M38.0566 17.507C37.6922 17.3868 37.3146 17.3116 36.932 17.283C36.7593 17.283 36.5913 17.2223 36.5633 17.101C36.5548 16.9221 36.6003 16.7449 36.694 16.5923L37.254 15.2856C38.0286 13.419 38.5933 11.893 38.5186 11.865C38.444 11.837 37.7486 13.3163 36.974 15.1783C36.7873 15.6449 36.6053 16.0743 36.4373 16.4943C36.32 16.6992 36.2819 16.9399 36.33 17.171C36.3543 17.2334 36.3926 17.2894 36.442 17.3347C36.4913 17.38 36.5504 17.4133 36.6146 17.4323C36.712 17.4597 36.8122 17.4754 36.9133 17.479C37.2917 17.5366 37.6759 17.546 38.0566 17.507Z" fill="#263238"/>
<path d="M37.7766 25.5196C40.1499 25.6158 42.5048 25.0658 44.59 23.9283C44.59 23.9283 42.8726 27.4143 37.842 26.8356L37.7766 25.5196Z" fill="#FF9A6C"/>
<path d="M34.6501 9.35428C34.7621 9.52228 35.2987 9.42428 35.9194 9.48961C36.54 9.55494 37.0487 9.72761 37.1887 9.57828C37.2541 9.50828 37.1887 9.34495 36.9787 9.17228C36.6842 8.96269 36.3392 8.83535 35.9791 8.80336C35.619 8.77137 35.2569 8.8359 34.93 8.99028C34.692 9.12095 34.6034 9.27028 34.6501 9.35428Z" fill="#263238"/>
<path d="M41.9907 14.5436C41.981 14.7104 41.9061 14.8666 41.782 14.9784C41.658 15.0902 41.4948 15.1486 41.328 15.141C41.2464 15.1441 41.165 15.1307 41.0887 15.1017C41.0124 15.0726 40.9427 15.0284 40.8839 14.9717C40.825 14.9151 40.7782 14.8472 40.7463 14.772C40.7144 14.6968 40.6979 14.616 40.698 14.5343C40.71 14.3684 40.7856 14.2136 40.9091 14.1023C41.0327 13.991 41.1945 13.9317 41.3607 13.937C41.4421 13.9345 41.5232 13.9483 41.5993 13.9776C41.6753 14.0069 41.7447 14.0511 41.8034 14.1077C41.8621 14.1642 41.9089 14.2319 41.9411 14.3067C41.9732 14.3816 41.9901 14.4622 41.9907 14.5436Z" fill="#263238"/>
<path d="M43.6286 12.5463C43.5446 12.6256 43.078 12.243 42.3826 12.201C41.6873 12.159 41.16 12.4716 41.09 12.383C41.02 12.2943 41.146 12.201 41.3793 12.0563C41.6926 11.869 42.0559 11.7826 42.42 11.809C42.7798 11.8282 43.1243 11.9605 43.4046 12.187C43.6099 12.3596 43.6706 12.5136 43.6286 12.5463Z" fill="#263238"/>
<path d="M43.7266 9.89096C43.5773 10.0356 43.0546 9.84429 42.4106 9.79762C41.7666 9.75096 41.216 9.82562 41.0993 9.65762C41.048 9.57829 41.1459 9.42896 41.3933 9.29829C41.7318 9.13759 42.1079 9.07301 42.4806 9.11162C42.8512 9.13651 43.2072 9.26596 43.5073 9.48496C43.7266 9.65296 43.7919 9.81629 43.7266 9.89096Z" fill="#263238"/>
<path d="M47.754 16.5036C47.754 16.135 48.2207 15.281 48.5894 15.2343C49.5834 15.1083 51.3614 15.2343 51.3194 17.6796C51.2587 21.0303 47.8194 20.279 47.8194 20.1856C47.8194 20.0923 47.7167 17.7636 47.754 16.5036Z" fill="#FFBF9D"/>
<path d="M48.7853 18.9863C48.7853 18.9863 48.846 19.0283 48.9487 19.075C49.0911 19.1314 49.2496 19.1314 49.392 19.075C49.6152 18.944 49.799 18.7552 49.9238 18.5285C50.0487 18.3018 50.11 18.0456 50.1013 17.787C50.1141 17.5009 50.0631 17.2156 49.952 16.9516C49.9197 16.8409 49.8601 16.74 49.7785 16.6585C49.6969 16.5769 49.5961 16.5172 49.4853 16.485C49.4176 16.4644 49.3447 16.4686 49.2797 16.4968C49.2148 16.525 49.1619 16.5754 49.1307 16.639C49.0793 16.7323 49.1027 16.7976 49.084 16.8023C49.0654 16.807 49.0093 16.7463 49.042 16.611C49.0613 16.5262 49.1112 16.4514 49.182 16.401C49.2785 16.3337 49.3968 16.3054 49.5133 16.3216C49.6529 16.3504 49.7827 16.4144 49.8905 16.5075C49.9983 16.6006 50.0806 16.7198 50.1293 16.8536C50.2694 17.144 50.3336 17.4651 50.316 17.787C50.3256 18.0877 50.2456 18.3845 50.086 18.6396C49.9265 18.8947 49.6946 19.0966 49.42 19.2196C49.3273 19.2434 49.2305 19.2469 49.1363 19.23C49.0421 19.2131 48.9527 19.1762 48.874 19.1216C48.79 19.0563 48.776 18.9863 48.7853 18.9863Z" fill="#FF9A6C"/>
<path d="M32.2513 10.1663C32.5908 10.0113 32.8789 9.76245 33.0815 9.44905C33.2841 9.13565 33.3928 8.77081 33.3947 8.39763C33.8613 8.5423 34.328 7.97763 34.608 7.59497C34.888 7.2123 35.224 7.02563 35.2147 6.55897C35.2025 6.46506 35.2171 6.36964 35.2567 6.28363C35.3267 6.15763 35.49 6.1203 35.6347 6.08297C36.0009 5.97944 36.3353 5.78539 36.6068 5.51871C36.8784 5.25203 37.0785 4.92129 37.1887 4.55697C37.9193 4.89044 38.7202 5.041 39.522 4.99564C39.6953 5.25771 39.9318 5.47182 40.2098 5.61813C40.4878 5.76445 40.7983 5.83823 41.1124 5.83265C41.4265 5.82706 41.7341 5.74229 42.0067 5.58619C42.2794 5.43009 42.5082 5.2077 42.672 4.93963C42.7841 5.14806 42.9396 5.33004 43.128 5.47333C43.3163 5.61661 43.5332 5.71787 43.764 5.7703C44.2309 5.87373 44.7102 5.90988 45.1873 5.87764C45.0905 6.33419 45.1631 6.81037 45.3915 7.21737C45.6199 7.62437 45.9885 7.93439 46.4287 8.08963C46.4918 8.09817 46.5526 8.11954 46.6072 8.15245C46.6617 8.18536 46.709 8.2291 46.746 8.28097C46.7602 8.34443 46.7617 8.41008 46.7505 8.47414C46.7393 8.5382 46.7156 8.59942 46.6807 8.6543C46.612 8.84706 46.5832 9.0518 46.5962 9.25603C46.6092 9.46026 46.6636 9.65971 46.7562 9.84222C46.8487 10.0247 46.9775 10.1865 47.1346 10.3176C47.2917 10.4488 47.4739 10.5465 47.67 10.605C47.5362 10.7126 47.4294 10.85 47.3579 11.0061C47.2864 11.1622 47.2522 11.3329 47.2581 11.5045C47.264 11.6761 47.3098 11.844 47.3918 11.9948C47.4738 12.1457 47.5898 12.2754 47.7307 12.3736C47.852 12.4483 48.0107 12.5416 47.9873 12.6816C47.9772 12.7372 47.9494 12.7879 47.908 12.8263C47.6176 13.1283 47.42 13.5073 47.3387 13.9183C47.3034 14.1292 47.3527 14.3454 47.4759 14.5202C47.5991 14.6949 47.7862 14.814 47.9967 14.8516C47.872 14.9322 47.7659 15.0383 47.6854 15.163C47.605 15.2878 47.552 15.4282 47.53 15.575C47.53 15.8643 47.81 16.1676 48.09 16.0696C48.2113 16.0276 49.9287 15.743 50.008 15.645C51.0113 14.3803 49.826 12.929 49.77 11.333C49.6816 9.72491 49.213 8.16077 48.4027 6.76897C48.0857 6.16998 47.6902 5.61598 47.2267 5.12163C46.6584 4.58703 46.0323 4.11747 45.36 3.72163C44.5301 3.12819 43.6098 2.67276 42.6347 2.37296C40.796 1.9063 38.85 2.5083 37.1047 3.24564C36.4301 3.50171 35.7929 3.847 35.21 4.2723C34.5556 4.82484 34.0055 5.49025 33.586 6.23696C32.9094 7.26535 32.4563 8.42436 32.256 9.63897" fill="#263238"/>
<path d="M31.6354 8.98096C31.6793 8.85307 31.744 8.73326 31.8267 8.62629C31.9014 8.51429 32.0087 8.38829 32.1114 8.22496C32.225 8.03547 32.2966 7.82382 32.3214 7.60429C32.3449 7.3279 32.3449 7.05001 32.3214 6.77362C32.2948 6.44128 32.3136 6.10687 32.3774 5.77962C32.4593 5.40276 32.6182 5.04688 32.8441 4.73429C32.9697 4.56208 33.1154 4.40542 33.2781 4.26763C33.4519 4.12578 33.6377 3.9993 33.8334 3.88962C34.0316 3.77457 34.211 3.62977 34.3654 3.46029C34.5062 3.26959 34.6208 3.06084 34.7061 2.83962C34.9196 2.36684 35.215 1.93553 35.5787 1.56562C35.9657 1.16208 36.4247 0.834452 36.932 0.599625C37.1999 0.477265 37.4799 0.383412 37.7674 0.319622C38.2168 0.219852 38.6816 0.210335 39.1347 0.291623C39.2887 0.314956 39.438 0.352288 39.6014 0.384955C39.9093 0.447812 40.2268 0.447812 40.5347 0.384955C40.8427 0.333622 41.1507 0.230954 41.468 0.165621C41.7899 0.0890866 42.1178 0.0406833 42.448 0.0209555C42.7819 -0.00698516 43.1175 -0.00698516 43.4514 0.0209555C43.7921 0.0542334 44.1283 0.123053 44.4547 0.22629C45.1274 0.426292 45.7211 0.830792 46.1534 1.38362L46.2747 1.55162L46.2234 1.52829C46.7329 1.44009 47.2549 1.45322 47.7594 1.56692C48.2638 1.68063 48.7409 1.89268 49.1634 2.19095C49.9807 2.72945 50.5538 3.56737 50.7594 4.52429L50.7314 4.48695C51.1398 4.67958 51.5357 4.89779 51.9167 5.14029C52.2889 5.3724 52.6148 5.67145 52.8781 6.02229C53.1229 6.36645 53.2667 6.77212 53.2934 7.19362C53.325 7.59961 53.1959 8.00179 52.9341 8.31362V8.25762C53.3789 8.73219 53.6417 9.34872 53.676 9.99829C53.7177 10.5788 53.5774 11.1579 53.2747 11.655C53.203 11.7692 53.1234 11.8783 53.0367 11.9816C52.9477 12.0739 52.8651 12.1722 52.7894 12.2756C52.7191 12.3718 52.6741 12.4842 52.6587 12.6023C52.6494 12.7172 52.6494 12.8327 52.6587 12.9476C52.6866 13.3736 52.6631 13.8013 52.5887 14.2216C52.5276 14.553 52.4041 14.8697 52.2247 15.155C52.0833 15.3713 51.8951 15.5531 51.674 15.687C51.4967 15.7943 51.3381 15.8363 51.2494 15.8923C51.204 15.9225 51.1604 15.9552 51.1187 15.9903C51.153 15.9481 51.194 15.9119 51.24 15.883C51.3287 15.8176 51.4874 15.7756 51.66 15.6636C51.876 15.5317 52.0582 15.3511 52.192 15.1363C52.368 14.8512 52.4854 14.5339 52.5374 14.203C52.6084 13.7869 52.6288 13.3639 52.598 12.943C52.5888 12.8234 52.5888 12.7032 52.598 12.5836C52.6146 12.4556 52.6627 12.3338 52.738 12.229C52.8139 12.1242 52.8966 12.0244 52.9854 11.9303C53.0679 11.8292 53.1443 11.7232 53.214 11.613C53.504 11.1267 53.6376 10.563 53.5967 9.99829C53.5631 9.36643 53.3049 8.76734 52.8687 8.30895L52.8407 8.28095L52.8687 8.25296C53.1144 7.95526 53.2349 7.57377 53.2047 7.18896C53.1781 6.78329 53.0374 6.3934 52.7987 6.06429C52.5434 5.72407 52.2269 5.43445 51.8654 5.21029C51.4859 4.97082 51.0915 4.75572 50.6847 4.56629C50.4822 3.63414 49.9227 2.81835 49.126 2.29362C48.7149 2.00382 48.2505 1.79815 47.7595 1.68843C47.2686 1.57871 46.7608 1.56711 46.2654 1.65429H46.2327V1.62629L46.1114 1.46295C45.6938 0.925592 45.1173 0.533663 44.464 0.342957C44.1449 0.242449 43.8167 0.173671 43.4841 0.137622C43.1548 0.112012 42.824 0.112012 42.4947 0.137622C42.171 0.158069 41.8495 0.204893 41.5334 0.277624C41.2207 0.342957 40.9127 0.445624 40.6001 0.496958C40.4461 0.524678 40.2898 0.537184 40.1334 0.534292C39.9762 0.526362 39.82 0.504499 39.6667 0.468959L39.2001 0.37562C39.0507 0.37562 38.9014 0.333624 38.7334 0.328957C38.439 0.318391 38.1444 0.343457 37.8561 0.403618C37.5753 0.465648 37.3016 0.556346 37.0394 0.674286C36.5412 0.901147 36.0888 1.2175 35.7047 1.60762C35.3467 1.97042 35.056 2.39388 34.846 2.85829C34.7548 3.08383 34.6356 3.29705 34.4914 3.49296C34.332 3.66909 34.1443 3.81735 33.936 3.93162C33.7447 4.04191 33.5622 4.16671 33.39 4.30495C33.2296 4.44357 33.0855 4.60015 32.9607 4.77162C32.7355 5.07597 32.5765 5.42411 32.4941 5.79362C32.4284 6.11589 32.408 6.44572 32.4334 6.77362C32.4596 7.05145 32.4596 7.33113 32.4334 7.60895C32.3771 7.84742 32.2633 8.06851 32.102 8.25296C31.9947 8.41629 31.8874 8.54229 31.808 8.64963C31.7477 8.72967 31.6932 8.81388 31.6447 8.90162L31.6354 8.98096Z" fill="#455A64"/>
<path d="M44.6086 0.846957C44.6086 0.846957 44.52 0.79562 44.3567 0.71162C44.1223 0.59335 43.87 0.514516 43.61 0.478286C43.2286 0.421606 42.839 0.466681 42.4806 0.608952C42.0494 0.78555 41.684 1.09223 41.4353 1.48629C41.3606 1.60505 41.2996 1.73185 41.2533 1.86429C41.2277 1.91991 41.2145 1.98041 41.2145 2.04162C41.2145 2.10284 41.2277 2.16333 41.2533 2.21896L41.3327 2.33095L41.1926 2.28896C40.8382 2.187 40.4585 2.22198 40.1287 2.38695C39.8698 2.51789 39.6602 2.72908 39.5313 2.98896C39.4443 3.16031 39.3934 3.34776 39.382 3.53962C39.3859 3.60956 39.3859 3.67968 39.382 3.74962C39.382 3.74962 39.382 3.74962 39.382 3.69362C39.3758 3.64247 39.3758 3.59076 39.382 3.53962C39.3806 3.34128 39.4237 3.14517 39.508 2.96562C39.636 2.68611 39.8525 2.45653 40.124 2.31229C40.4739 2.12665 40.8824 2.0848 41.2627 2.19562L41.2067 2.27028C41.1681 2.20451 41.1451 2.13079 41.1394 2.05475C41.1337 1.97871 41.1456 1.90238 41.174 1.83162C41.2225 1.69256 41.2867 1.55947 41.3653 1.43495C41.6235 1.01253 42.0115 0.685083 42.4713 0.501621C42.8474 0.357746 43.2556 0.319024 43.652 0.389618C43.9162 0.43295 44.1707 0.523028 44.4033 0.655622L44.5806 0.776953L44.6086 0.846957Z" fill="#455A64"/>
<path d="M51.8 8.00096C51.8 8.00096 51.8 8.00095 51.8 8.06162C51.7814 8.11806 51.7546 8.1715 51.7207 8.22029C51.581 8.40051 51.3801 8.52336 51.156 8.56562C50.8236 8.61559 50.4838 8.57028 50.176 8.43496C49.9945 8.37058 49.8169 8.29579 49.644 8.21096C49.4424 8.12552 49.2772 7.97189 49.1774 7.77695V7.72096L49.2567 7.74896C48.9431 7.98895 48.5955 8.18084 48.2254 8.31829C47.9142 8.42953 47.5786 8.45373 47.2547 8.38829C47.0403 8.3467 46.8397 8.25204 46.6714 8.11295C46.6255 8.07471 46.5848 8.03081 46.55 7.98229C46.55 7.94962 46.5127 7.93562 46.5174 7.93095C46.522 7.92629 46.578 7.99163 46.6947 8.08029C46.8646 8.20473 47.0611 8.28782 47.2687 8.32295C47.5826 8.37414 47.9045 8.34196 48.202 8.22962C48.5612 8.09118 48.899 7.90265 49.2054 7.66962L49.2614 7.62762V7.69296V7.73962C49.3496 7.91276 49.4969 8.04854 49.6767 8.12229C49.8469 8.20592 50.0214 8.28069 50.1994 8.34629C50.4905 8.48191 50.8138 8.53363 51.1327 8.49562C51.3443 8.46372 51.5377 8.35791 51.6787 8.19696C51.7233 8.13428 51.7638 8.06881 51.8 8.00096Z" fill="#E0E0E0"/>
<path d="M38.8267 19.159C38.9463 18.9993 39.1046 18.8727 39.2866 18.791C39.4687 18.7094 39.6685 18.6754 39.8673 18.6923C40.0107 18.7023 40.1506 18.741 40.2788 18.8059C40.4071 18.8708 40.521 18.9607 40.614 19.0703C40.7053 19.1757 40.7615 19.3069 40.7749 19.4457C40.7883 19.5845 40.7582 19.7241 40.6887 19.845C40.5869 19.9633 40.4525 20.0491 40.3023 20.0914C40.152 20.1337 39.9926 20.1308 39.844 20.083C39.5343 19.9849 39.2472 19.8263 38.9994 19.6163C38.9236 19.5677 38.8584 19.5042 38.808 19.4296C38.7829 19.3942 38.7694 19.3518 38.7694 19.3083C38.7694 19.2648 38.7829 19.2224 38.808 19.187" fill="#FF9A6C"/>
<path d="M40.4367 17.9969C40.3293 17.9969 40.348 18.6969 39.76 19.2149C39.172 19.7329 38.416 19.6816 38.4113 19.7749C38.4067 19.8683 38.584 19.9056 38.9013 19.9056C39.3148 19.9021 39.7134 19.7516 40.026 19.4809C40.3266 19.2213 40.5141 18.8546 40.5487 18.4589C40.5673 18.1603 40.502 17.9876 40.4367 17.9969Z" fill="#263238"/>
<path d="M44.31 145.84V146.307C44.31 146.307 36.3767 149.466 36.3253 150.927L52.1033 150.703L51.8093 145.63C50.6425 146.184 49.373 146.489 48.0818 146.525C46.7906 146.562 45.506 146.328 44.31 145.84Z" fill="#263238"/>
<path d="M52.1034 150.689L52.0334 149.466L36.9367 150.12C36.9367 150.12 36.2414 150.428 36.3254 150.904L52.1034 150.689Z" fill="#455A64"/>
<path d="M44.2587 146.34C44.2587 146.414 44.646 146.442 45.0287 146.676C45.4113 146.909 45.6167 147.222 45.6867 147.189C45.7567 147.156 45.6353 146.722 45.1687 146.456C44.702 146.19 44.2353 146.27 44.2587 146.34Z" fill="white"/>
<path d="M42.6113 147.026C42.6113 147.096 42.9287 147.217 43.1993 147.53C43.47 147.842 43.5446 148.174 43.6193 148.169C43.694 148.164 43.7407 147.744 43.4 147.362C43.0593 146.979 42.6113 146.951 42.6113 147.026Z" fill="white"/>
<path d="M41.7013 148.953C41.7713 148.953 41.8739 148.594 41.6686 148.188C41.4633 147.782 41.1039 147.628 41.0713 147.688C41.0386 147.749 41.2673 147.964 41.4259 148.3C41.5846 148.636 41.6266 148.944 41.7013 148.953Z" fill="white"/>
<path d="M57.2553 146.75C57.1336 146.26 56.9856 145.778 56.812 145.304L56.7233 145.08L55.356 136.68L49.7 137.263L50.708 146.853L50.666 146.816L50.274 147.973L48.8087 156.084C48.7606 156.343 48.8116 156.611 48.9515 156.835C49.0915 157.059 49.3103 157.222 49.5647 157.292C49.7643 157.347 49.9751 157.347 50.1748 157.292C50.3744 157.237 50.5554 157.129 50.6987 156.98C52.178 155.37 57.6007 149.429 57.47 148.706L57.2553 146.75Z" fill="#263238"/>
<path d="M49.7654 157.306L57.4094 148.01L57.4467 148.435C57.4742 148.61 57.4607 148.788 57.4073 148.957C57.3538 149.125 57.2619 149.279 57.1387 149.406C56.5367 150.339 54.8334 152.467 50.7267 156.956C50.6063 157.087 50.4561 157.188 50.2888 157.249C50.1215 157.309 49.9419 157.329 49.7654 157.306Z" fill="#455A64"/>
<path d="M51.7813 152.724C51.4922 152.43 51.1502 152.194 50.7733 152.028C50.3698 151.916 49.9491 151.878 49.532 151.916C49.532 151.888 49.6487 151.8 49.8913 151.744C50.2158 151.682 50.5507 151.708 50.862 151.818C51.1657 151.925 51.4327 152.116 51.632 152.369C51.7766 152.565 51.8047 152.71 51.7813 152.724Z" fill="white"/>
<path d="M51.1514 154.128C50.8302 153.994 50.5014 153.879 50.1667 153.783C49.8192 153.752 49.4702 153.739 49.1213 153.746C49.2786 153.635 49.459 153.561 49.6489 153.529C49.8388 153.498 50.0333 153.509 50.218 153.564C50.8574 153.68 51.2027 154.096 51.1514 154.128Z" fill="white"/>
<path d="M53.0273 150.88C52.5518 150.635 52.0589 150.424 51.5526 150.25C51.0213 150.144 50.4834 150.074 49.9426 150.04C50.4852 149.852 51.0754 149.852 51.618 150.04C52.1715 150.147 52.6701 150.444 53.0273 150.88Z" fill="white"/>
<path d="M50.47 145.476C50.5357 145.89 50.5623 146.309 50.5493 146.727C50.4653 147.268 50.3487 147.959 50.2133 148.706C50.05 149.592 49.896 150.395 49.77 150.974C49.7238 151.292 49.644 151.605 49.532 151.907C49.5334 151.593 49.5678 151.28 49.6347 150.974C49.7187 150.386 49.854 149.574 50.0127 148.696C50.1527 147.95 50.2833 147.259 50.3953 146.727C50.3808 146.309 50.4058 145.89 50.47 145.476Z" fill="#455A64"/>
<path d="M60.0274 85.4723C62.0107 76.2043 55.902 66.731 55.902 66.731L39.998 79.261C39.998 79.261 36.6287 116.758 38.598 121.62C40.5674 126.483 50.1341 146.326 50.1341 146.326L57.4561 144.608C57.4561 144.608 54.7447 128.438 52.57 124.336C51.0067 121.382 48.4447 119.978 49.6394 116.128C50.8341 112.278 58.4034 93.051 60.0274 85.4723Z" fill="#263238"/>
<path d="M27.1834 70.7863C28.2388 67.3069 29.5218 63.9007 31.024 60.5896C31.024 60.5896 35.994 64.519 40.5254 65.4243C45.0567 66.3296 55.16 62.1156 55.16 62.1156L56.9567 68.5696L42.434 78.1363C42.9754 79.219 44.198 82.3363 43.3674 87.0356C42.3454 92.9903 44.3893 109.436 47.3713 119.992C50.3533 130.548 50.5494 146.167 50.5494 146.167C48.5567 147.264 46.3727 146.96 44.31 145.831C44.31 145.831 42.84 141.911 40.8567 135.354C38.136 126.371 37.8234 123.436 37.6227 120.598C37.422 117.761 34.538 107.228 29.3627 94.059C24.6354 81.9863 26.7914 72.3263 27.1834 70.7863Z" fill="#263238"/>
<path d="M35.5273 72.9796L35.6113 73.0823L35.84 73.3903L36.7267 74.6083L40.0447 79.2283V79.2516C39.8813 80.9783 39.8207 82.9849 39.7087 85.2203C39.5967 87.4556 39.48 89.9196 39.3493 92.5609C39.2187 95.2023 39.0507 98.0256 38.8827 100.984C38.7147 103.943 38.542 107.051 38.2387 110.22C37.9213 112.866 37.6367 115.47 37.87 117.966C37.9257 118.585 38.0129 119.2 38.1313 119.81C38.2415 120.409 38.3976 120.998 38.598 121.574C39.032 122.698 39.5313 123.786 39.998 124.84C41.93 129.068 43.7313 132.848 45.248 136.04L48.832 143.558L49.8027 145.607L50.0547 146.139C50.106 146.26 50.1293 146.326 50.1293 146.326L50.036 146.148L49.7653 145.621L48.7853 143.586L45.1407 136.12C43.6147 132.946 41.7947 129.176 39.8487 124.948C39.382 123.888 38.8687 122.81 38.4253 121.681C38.2228 121.098 38.0667 120.501 37.9587 119.894C37.8366 119.277 37.7478 118.653 37.6927 118.027C37.4547 115.502 37.7347 112.894 38.0567 110.243C38.36 107.07 38.5233 103.971 38.7053 101.017C38.8873 98.0629 39.0273 95.2349 39.172 92.5936C39.3167 89.9523 39.4427 87.4929 39.5593 85.2576C39.676 83.0223 39.7507 81.0156 39.928 79.2843V79.3216L36.6613 74.6549L35.8353 73.4089L35.6207 73.0916C35.5846 73.0587 35.5532 73.0211 35.5273 72.9796Z" fill="#455A64"/>
<path d="M31.8407 100.653C31.7789 100.544 31.7274 100.43 31.6867 100.312L31.2947 99.3136C30.9587 98.4456 30.4827 97.1856 29.9274 95.613C29.3721 94.0403 28.7327 92.1643 28.1167 90.0456C27.4258 87.7499 26.8849 85.4116 26.4974 83.0456C25.8256 78.7297 26.0689 74.3208 27.2114 70.105C27.5565 68.8309 28.0125 67.5895 28.574 66.395C28.756 65.9656 28.9474 65.6576 29.0407 65.4383C29.0953 65.3267 29.1577 65.2191 29.2274 65.1163C29.1912 65.2354 29.1443 65.351 29.0874 65.4616C28.9894 65.6856 28.8167 66.003 28.6207 66.437C28.099 67.6466 27.6715 68.8948 27.342 70.1703C26.2595 74.3683 26.0435 78.7428 26.7074 83.027C27.116 85.374 27.6709 87.6931 28.3687 89.971C28.9707 92.085 29.5867 93.9703 30.1187 95.5476C30.6507 97.125 31.0941 98.3476 31.4114 99.281L31.7614 100.294C31.7989 100.411 31.8255 100.531 31.8407 100.653Z" fill="#455A64"/>
<path d="M30.604 32.0529C30.604 32.0529 28.672 32.6316 27.034 36.1316C25.732 38.9316 25.116 54.6956 25.116 54.6956L14.5973 52.5349L12.9686 60.4636C12.9686 60.4636 21.8073 63.9963 27.4353 65.8443C29.9786 66.6796 31.9806 63.7209 32.2653 62.9556C33.1986 60.4916 31.9806 42.4969 31.9806 42.4969L30.604 32.0529Z" fill="#F83758"/>
<path d="M29.7313 37.7836L30.604 32.0529C31.458 31.1476 37.2073 29.5423 37.2073 29.5423C43.9973 31.1009 47.278 28.0163 47.978 27.9136C48.4447 27.8436 53.648 29.4863 53.648 29.4863L56.2613 44.7603C56.2613 44.7603 55.6407 55.8809 55.5893 55.9603C55.538 56.0396 56.266 64.7756 56.266 64.7756C56.266 64.7756 44.5247 68.8263 39.34 70.0069C34.1553 71.1876 28.7327 64.5469 28.7327 64.5469C29.904 61.4576 30.3987 57.7103 30.156 53.2536L29.7313 37.7836Z" fill="#F83758"/>
<path d="M39.4567 45.5863C39.5034 45.5863 39.5034 46.1043 39.6667 46.9116C40.1174 49.0281 41.3701 50.8879 43.162 52.1009C43.848 52.5676 44.3287 52.7496 44.31 52.7916C44.2914 52.8336 44.1794 52.7916 43.96 52.6936C43.6497 52.5739 43.3513 52.4255 43.0687 52.2503C42.6445 51.9957 42.2474 51.6986 41.8834 51.3636C41.4391 50.9409 41.0416 50.4715 40.698 49.9636C40.3638 49.4569 40.0853 48.9155 39.8674 48.3489C39.6937 47.8869 39.567 47.4084 39.4894 46.9209C39.4348 46.5925 39.4114 46.2597 39.4194 45.9269C39.424 45.6983 39.438 45.5863 39.4567 45.5863Z" fill="#263238"/>
<path d="M28.6486 43.0943C28.4963 44.1466 28.4261 45.2091 28.4387 46.2723C28.4728 47.4253 28.6086 48.5731 28.8446 49.7023C29.1389 51.0866 29.5065 52.4543 29.946 53.7996C30.0563 54.1617 30.1313 54.5337 30.17 54.9103C30.2213 55.279 30.2586 55.643 30.282 55.9976C30.338 56.6856 30.338 57.377 30.282 58.065C30.156 59.2251 29.896 60.3667 29.5073 61.467C29.2711 62.2092 29.0732 62.963 28.9146 63.7256C28.8722 64.0089 28.813 64.2894 28.7373 64.5656C28.7259 64.493 28.7259 64.419 28.7373 64.3463C28.7373 64.197 28.7653 63.9823 28.812 63.7116C28.9353 62.9371 29.1099 62.1717 29.3346 61.4203C29.6923 60.3243 29.9317 59.1932 30.0486 58.0463C30.1045 57.3708 30.1045 56.6918 30.0486 56.0163C30.0206 55.6616 29.988 55.307 29.9366 54.943C29.8982 54.579 29.8248 54.2195 29.7173 53.8696C29.2782 52.5155 28.9136 51.1383 28.6253 49.7443C28.3992 48.6021 28.2805 47.4413 28.2706 46.277C28.2706 45.7776 28.3033 45.3436 28.322 44.9376C28.3407 44.5316 28.406 44.205 28.4573 43.9296C28.5086 43.6543 28.5506 43.463 28.588 43.3043C28.6253 43.1456 28.6393 43.0896 28.6486 43.0943Z" fill="#263238"/>
<path d="M53.648 29.5049C53.648 29.5049 58.8373 30.0696 60.5686 36.7196C61.502 40.2429 65.3006 63.1469 64.988 65.1163C64.6753 67.0856 64.624 80.2596 64.624 80.2596L56.8353 78.7756L56.938 61.635L52.9713 43.9016L50.7126 34.2556L53.648 29.5049Z" fill="#F83758"/>
<path d="M51.7813 40.131C51.8466 40.131 52.794 43.8876 53.8953 48.531C54.9966 53.1743 55.8413 56.9916 55.762 57.0056C55.6826 57.0196 54.7493 53.2723 53.648 48.6056C52.5466 43.939 51.702 40.145 51.7813 40.131Z" fill="#263238"/>
<path d="M61.3994 92.2903H60.9327V94.087H61.3994V92.2903Z" fill="#E0E0E0"/>
<path d="M66.3086 94.227L77.6673 124.71L70.8073 127.323L62.8833 95.6456L66.3086 94.227Z" fill="#E0E0E0"/>
<path d="M70.8073 127.323L55.5566 121.956L54.726 95.235L62.8833 95.6456L70.8073 127.323Z" fill="#E0E0E0"/>
<path d="M70.8074 127.323C70.8915 126.83 71.0164 126.344 71.1807 125.872C71.442 124.985 71.82 123.758 72.2587 122.39L72.3007 122.25L72.436 122.311L72.7161 122.432C74.1161 123.025 75.3434 123.58 76.2394 123.991C76.7338 124.192 77.2114 124.432 77.6674 124.71C77.1523 124.569 76.6496 124.387 76.1647 124.164C75.2314 123.795 73.9947 123.268 72.6134 122.675L72.3287 122.554L72.506 122.47C72.0674 123.837 71.6567 125.055 71.3534 125.928C71.2138 126.408 71.0311 126.875 70.8074 127.323Z" fill="#263238"/>
<path d="M64.652 94.9036C64.722 94.9036 66.5187 101.031 68.642 108.633C70.7653 116.235 72.45 122.409 72.3753 122.432C72.3007 122.456 70.5087 116.305 68.3853 108.703C66.262 101.101 64.582 94.9223 64.652 94.9036Z" fill="#263238"/>
<g opacity="0.3">
<path d="M70.8073 127.323L55.5566 121.956L54.726 95.235L62.8833 95.6456L70.8073 127.323Z" fill="black"/>
</g>
<path d="M68.2781 130.17L58.9027 132.498L61.488 98.259L62.23 98.1936L68.2781 130.17Z" fill="#455A64"/>
<path d="M58.9027 132.498L49.7047 124.691L53.9047 96.3736L61.488 98.2589L58.9027 132.498Z" fill="#455A64"/>
<g opacity="0.3">
<path d="M58.9027 132.498L49.7047 124.691L53.9047 96.3736L61.488 98.2589L58.9027 132.498Z" fill="black"/>
</g>
<path d="M58.9027 132.498C58.9797 132.343 59.0753 132.197 59.1874 132.064C59.3834 131.794 59.654 131.411 60.0367 130.94C60.76 130.006 61.7774 128.709 62.9114 127.29L63.4247 126.66L63.504 126.558L63.602 126.637C64.9087 127.603 66.0567 128.466 66.8687 129.101C67.3223 129.42 67.7513 129.772 68.152 130.156C67.6649 129.876 67.1971 129.565 66.752 129.222C65.9074 128.63 64.7407 127.79 63.4294 126.828L63.6114 126.805L63.1027 127.44C61.964 128.84 60.928 130.128 60.1627 131.038C59.78 131.504 59.472 131.859 59.2294 132.111C58.9867 132.363 58.9167 132.512 58.9027 132.498Z" fill="#263238"/>
<path d="M61.8147 98.2776C61.8847 98.2776 62.3281 104.643 62.7994 112.502C63.2707 120.36 63.5974 126.735 63.5274 126.74C63.4574 126.744 63.0094 120.379 62.538 112.516C62.0667 104.652 61.74 98.2823 61.8147 98.2776Z" fill="#263238"/>
<path d="M59.5887 96.5089L58.1747 122.33L49.364 121.191L58.926 96.3363L59.5887 96.5089Z" fill="#F83758"/>
<path d="M49.364 121.191L43.1807 116.146L52.8873 94.2643L58.926 96.3363L49.364 121.191Z" fill="#F83758"/>
<g opacity="0.3">
<path d="M49.364 121.191L43.1807 116.146L52.8873 94.2643L58.926 96.3363L49.364 121.191Z" fill="black"/>
</g>
<path d="M49.3687 121.186C49.8125 120.905 50.2811 120.664 50.7687 120.468C51.6507 120.052 52.878 119.502 54.2407 118.904L54.684 118.713L54.768 118.676L54.8287 118.741C55.7947 119.721 56.644 120.608 57.246 121.247C57.5904 121.574 57.9029 121.934 58.1793 122.32C57.7996 122.041 57.4452 121.728 57.12 121.387C56.4853 120.776 55.6173 119.917 54.6467 118.937L54.796 118.965L54.3293 119.161C52.9667 119.758 51.73 120.281 50.8247 120.65C50.3543 120.867 49.8674 121.046 49.3687 121.186Z" fill="#263238"/>
<path d="M59.262 96.425C59.3366 96.425 58.38 101.47 57.1293 107.658C55.8786 113.846 54.796 118.858 54.7353 118.858C54.6746 118.858 55.622 113.813 56.8726 107.62C58.1233 101.428 59.192 96.411 59.262 96.425Z" fill="#263238"/>
<path d="M66.3086 94.227L56.8586 93.9283L57.1153 95.3563L62.8833 95.6456L66.3086 94.227Z" fill="#263238"/>
<path d="M62.23 98.1936L59.5327 97.4983V97.7736L61.488 98.259L62.23 98.1936Z" fill="#263238"/>
<path d="M62.0433 92.2903H61.5767V94.087H62.0433V92.2903Z" fill="#E0E0E0"/>
<path d="M59.262 80.2363C59.2033 80.9238 58.9119 81.5707 58.436 82.0703C57.9064 82.8317 57.5263 83.6869 57.316 84.5903C57.316 84.5903 56.7514 88.0716 56.6254 89.2009C56.4994 90.3303 56.5087 91.357 57.3954 91.133C58.282 90.909 58.5434 90.1996 58.6554 88.1556L59.1547 87.0543L59.654 87.8803L59.8174 90.9976C59.8174 90.9976 57.4514 92.0616 57.624 92.6776C57.7967 93.2936 58.2354 93.1863 58.2354 93.1863L58.6134 93.527L62.1787 92.3229L63.3407 87.9176L62.8227 82.3176L62.9627 79.9843L59.0614 79.2376L59.262 80.2363Z" fill="#FFBF9D"/>
<path d="M57.5726 95.837L57.106 95.753C57.1386 95.571 57.9366 91.3196 59.7379 90.7736L59.8733 91.2403C58.6133 91.6043 57.7686 94.6843 57.5726 95.837Z" fill="#E0E0E0"/>
<path d="M56.6533 95.5756L56.224 95.3936C56.294 95.2256 57.9787 91.3103 59.7473 90.7736L59.8827 91.2403C58.5853 91.6136 57.1107 94.4976 56.6533 95.5756Z" fill="#E0E0E0"/>
</svg>
