<svg width="27" height="27" viewBox="0 0 27 27" fill="none" xmlns="http://www.w3.org/2000/svg">
<path d="M0.872733 23.2214L1.62406 19.7774C0.0646213 16.8161 -0.330852 13.3785 0.515356 10.1405C1.36156 6.90235 3.38828 4.09783 6.19716 2.27806C9.00604 0.458294 12.394 -0.245121 15.6951 0.306061C18.9962 0.857243 21.9719 2.62316 24.0372 5.25676C26.1025 7.89036 27.1081 11.2012 26.8564 14.5385C26.6048 17.8759 25.114 20.9985 22.6771 23.2925C20.2401 25.5866 17.0333 26.8863 13.6869 26.9362C10.3404 26.986 7.09628 25.7825 4.59208 23.5621L0.872733 23.2214Z" fill="white"/>
<path d="M0.872664 23.2214C0.872664 23.2214 0.961349 23.2214 1.12468 23.2214L1.84801 23.2774L4.60133 23.5061L4.55467 23.5807L4.34467 23.2681L4.62933 23.5154C6.26026 24.946 8.2139 25.9597 10.3227 26.4694C10.9866 26.6302 11.6623 26.7378 12.3433 26.7914C12.6933 26.8334 13.0573 26.7914 13.4213 26.8241H13.9767L14.5414 26.7727C16.1488 26.6483 17.7196 26.2291 19.1753 25.5361C20.9648 24.6845 22.5411 23.4435 23.7888 21.9038C25.0365 20.3641 25.924 18.5648 26.3862 16.6378C26.8483 14.7107 26.8736 12.7046 26.46 10.7665C26.0464 8.82836 25.2045 7.00731 23.996 5.43673L23.478 4.78806L22.9087 4.1954C22.5284 3.80565 22.1248 3.43942 21.7 3.09873C20.8519 2.43936 19.9294 1.88177 18.9513 1.4374C16.2879 0.23469 13.3025 -0.0573072 10.4565 0.606531C7.61055 1.27037 5.06243 2.85308 3.206 5.11006C1.54508 7.12909 0.513716 9.59146 0.239941 12.1915C-0.0338334 14.7915 0.462044 17.4147 1.666 19.7354C1.414 20.8274 1.19934 21.6767 1.08734 22.2647C1.01734 22.5494 0.965995 22.7734 0.928662 22.9321C0.891329 23.0907 0.867993 23.1654 0.867993 23.1654C0.867993 23.1654 0.868006 23.0907 0.910006 22.9461C0.952006 22.8014 0.984658 22.5681 1.04066 22.2881C1.16666 21.6861 1.344 20.8227 1.57266 19.7121V19.7447C0.543036 17.8176 0.00296695 15.667 0 13.4821C0.0052335 10.952 0.720826 8.47424 2.06528 6.33094C3.40973 4.18765 5.32902 2.46495 7.60458 1.35902C9.88015 0.253098 12.4205 -0.191617 14.9365 0.0755279C17.4524 0.342672 19.8427 1.31094 21.8353 2.87006C22.2679 3.21696 22.6793 3.5894 23.0673 3.9854L23.6507 4.59206L24.1733 5.25006C25.4835 6.94923 26.3694 8.93647 26.7573 11.0467C27.1453 13.157 27.0242 15.3294 26.404 17.3834C25.8319 19.2611 24.8608 20.9931 23.5573 22.4607C21.2567 25.0768 18.0243 26.6896 14.5507 26.9547L13.9813 27.0014H13.4167C13.0433 27.0014 12.6793 27.0014 12.32 26.9641C11.6327 26.9018 10.951 26.7879 10.2807 26.6234C8.15485 26.0937 6.19072 25.0524 4.55934 23.5901L4.634 23.5247L4.68999 23.6134H4.58734L1.81067 23.3241L1.106 23.2214H0.872664Z" fill="#263238"/>
<path d="M10.2014 11.5547H11.9327C11.9314 11.3559 11.9701 11.1588 12.0464 10.9752C12.1228 10.7916 12.2352 10.6252 12.3771 10.4859C12.519 10.3466 12.6875 10.2372 12.8725 10.1643C13.0575 10.0914 13.2553 10.0564 13.454 10.0614C13.749 10.0484 14.0405 10.1289 14.2869 10.2915C14.5333 10.4541 14.722 10.6904 14.826 10.9667C14.9154 11.1938 14.9506 11.4386 14.9287 11.6816C14.9068 11.9247 14.8285 12.1593 14.7 12.3667C14.406 12.8334 13.7667 13.3 12.5767 13.09V17.0287H14.3034V14.7234C15.0125 14.5158 15.6337 14.0808 16.0713 13.4855C16.509 12.8902 16.7388 12.1675 16.7254 11.4287C16.7254 8.87138 14.4387 8.27872 13.4587 8.27872C12.726 8.28805 10.1687 8.47938 10.2014 11.5547Z" fill="#263238"/>
<path d="M14.3454 17.8594H12.5907V19.4974H14.3454V17.8594Z" fill="#263238"/>
</svg>
