<svg width="58" height="78" viewBox="0 0 58 78" fill="none" xmlns="http://www.w3.org/2000/svg">
<path d="M54.4128 0.13533H3.53678C1.63471 0.13533 0.0927734 1.67726 0.0927734 3.57933V74.326C0.0927734 76.2281 1.63471 77.77 3.53678 77.77H54.4128C56.3148 77.77 57.8568 76.2281 57.8568 74.326V3.57933C57.8568 1.67726 56.3148 0.13533 54.4128 0.13533Z" fill="white"/>
<path d="M2.97211 0.135334H54.9868C55.7492 0.135334 56.4804 0.4382 57.0195 0.977304C57.5586 1.51641 57.8614 2.24759 57.8614 3.01V9.24467H0.0927734V3.01C0.0927729 2.6321 0.167293 2.25791 0.31205 1.90883C0.456808 1.55976 0.668967 1.24265 0.936399 0.975652C1.20383 0.708654 1.52128 0.497006 1.87059 0.352815C2.2199 0.208624 2.59421 0.134721 2.97211 0.135334Z" fill="#E0E0E0"/>
<path d="M55.4862 77.77H55.6542C55.8127 77.7538 55.9692 77.7209 56.1209 77.672C56.4357 77.5683 56.7259 77.4008 56.9732 77.18C57.2205 76.9592 57.4196 76.6898 57.5582 76.3887C57.659 76.1714 57.7327 75.9426 57.7775 75.7073C57.8179 75.4418 57.832 75.173 57.8195 74.9047C57.8195 74.3353 57.8195 73.7147 57.8195 73.038C57.8195 71.6893 57.8195 70.1353 57.8195 68.3713C57.8195 61.3713 57.8195 51.2493 57.7869 38.7427C57.7869 32.4893 57.7869 25.6387 57.7869 18.284C57.7869 14.6067 57.7869 10.8064 57.7869 6.88334C57.7869 5.90334 57.7869 4.91867 57.7869 3.92467C57.7869 3.458 57.7869 2.92133 57.7869 2.44067C57.7397 1.96465 57.562 1.51088 57.2735 1.12933C56.9949 0.759731 56.611 0.483148 56.1722 0.336001C55.7242 0.232762 55.2632 0.198144 54.8049 0.233333H51.9722H2.50551C1.9687 0.236383 1.45191 0.437455 1.05418 0.798001C0.630499 1.17747 0.343507 1.68585 0.237517 2.24467C0.197261 2.53213 0.18319 2.82266 0.195505 3.11267V26.5113C0.195505 35.5133 0.195505 44.1933 0.195505 52.4627C0.195505 56.6036 0.195505 60.6324 0.195505 64.5493C0.195505 66.5093 0.195505 68.4398 0.195505 70.3407V74.578C0.163824 75.0299 0.196834 75.4841 0.293515 75.9267C0.403559 76.3351 0.619434 76.7072 0.919331 77.0054C1.21923 77.3037 1.59253 77.5175 2.00152 77.6253C2.4049 77.6818 2.81265 77.7005 3.21951 77.6813H18.2555L45.4902 77.7187H52.8962H54.8235C55.2575 77.7187 55.4769 77.7187 55.4769 77.7187H54.8235H52.8962H45.4902L18.2555 77.8447H3.20551C2.7878 77.8674 2.36885 77.8487 1.95485 77.7887C1.51474 77.6746 1.11292 77.4455 0.790616 77.1248C0.468315 76.8042 0.237155 76.4035 0.12085 75.964C0.018782 75.5048 -0.0189222 75.0336 0.00884071 74.564V70.378C0.00884071 68.4802 0.00884071 66.5498 0.00884071 64.5867C0.00884071 60.6729 0.00884071 56.644 0.00884071 52.5C0.00884071 44.2307 0.00884071 35.5507 0.00884071 26.5487V3.11734C-0.00870118 2.8056 0.0053689 2.4929 0.050839 2.184C0.156768 1.58214 0.456698 1.03147 0.904847 0.616C1.34147 0.22797 1.90278 0.0094049 2.48684 1.3171e-07H51.9535H55.4908C55.7347 -8.14135e-05 55.9772 0.0377026 56.2095 0.112001C56.6824 0.271805 57.0967 0.569176 57.3995 0.966C57.7061 1.37439 57.8964 1.85818 57.9502 2.366C57.9828 2.884 57.9502 3.36934 57.9502 3.86867V6.91133C57.9502 10.8313 57.9502 14.6316 57.9502 18.312C57.9502 25.6667 57.9502 32.5173 57.9502 38.7707C57.9502 51.2773 57.9502 61.3993 57.9175 68.3993C57.9175 70.1493 57.9175 71.7033 57.9175 73.066C57.9175 73.738 57.9175 74.3587 57.9175 74.9327C57.9283 75.2042 57.9126 75.4761 57.8709 75.7447C57.8215 75.9844 57.7447 76.2177 57.6422 76.44C57.4984 76.7434 57.2936 77.0139 57.0407 77.2346C56.7878 77.4554 56.4922 77.6218 56.1722 77.7233C56.0203 77.7689 55.8637 77.7971 55.7055 77.8073L55.4862 77.77Z" fill="#263238"/>
<path d="M5.97752 4.68534C5.95577 4.94548 5.85873 5.19365 5.69826 5.39954C5.53778 5.60544 5.32081 5.76014 5.07387 5.84477C4.82692 5.92939 4.56067 5.94026 4.30764 5.87606C4.05462 5.81186 3.82577 5.67536 3.64904 5.48323C3.47231 5.29111 3.35535 5.05168 3.31246 4.79418C3.26956 4.53669 3.30259 4.27227 3.40749 4.03324C3.5124 3.7942 3.68465 3.59088 3.9032 3.44812C4.12175 3.30536 4.37714 3.22934 4.63819 3.22934C5.00877 3.2451 5.35795 3.40728 5.60906 3.68027C5.86018 3.95325 5.99269 4.31473 5.97752 4.68534Z" fill="white"/>
<path d="M9.85545 4.68534C9.8337 4.94548 9.73666 5.19365 9.57619 5.39954C9.41571 5.60544 9.19874 5.76014 8.9518 5.84477C8.70485 5.92939 8.4386 5.94026 8.18557 5.87606C7.93255 5.81186 7.7037 5.67536 7.52697 5.48323C7.35024 5.29111 7.23328 5.05168 7.19039 4.79418C7.14749 4.53669 7.18052 4.27227 7.28542 4.03324C7.39033 3.7942 7.56258 3.59088 7.78113 3.44812C7.99968 3.30536 8.25507 3.22934 8.51612 3.22934C8.8867 3.2451 9.23588 3.40728 9.48699 3.68027C9.73811 3.95325 9.87062 4.31473 9.85545 4.68534Z" fill="white"/>
<path d="M13.7008 4.68534C13.679 4.94548 13.582 5.19365 13.4215 5.39954C13.261 5.60544 13.0441 5.76014 12.7971 5.84477C12.5502 5.92939 12.2839 5.94026 12.0309 5.87606C11.7779 5.81186 11.549 5.67536 11.3723 5.48323C11.1956 5.29111 11.0786 5.05168 11.0357 4.79418C10.9928 4.53669 11.0259 4.27227 11.1308 4.03324C11.2357 3.7942 11.4079 3.59088 11.6264 3.44812C11.845 3.30536 12.1004 3.22934 12.3614 3.22934C12.732 3.2451 13.0812 3.40728 13.3323 3.68027C13.5834 3.95325 13.7159 4.31473 13.7008 4.68534Z" fill="white"/>
<path d="M42.0881 52.8453H18.2041C17.5766 52.8453 16.9748 52.5961 16.5311 52.1523C16.0874 51.7086 15.8381 51.1068 15.8381 50.4793C15.8375 50.1682 15.8983 49.8601 16.0169 49.5725C16.1355 49.2849 16.3097 49.0235 16.5295 48.8033C16.7492 48.5831 17.0103 48.4084 17.2976 48.2892C17.585 48.17 17.893 48.1087 18.2041 48.1087H42.0881C42.3992 48.1087 42.7073 48.17 42.9946 48.2892C43.282 48.4084 43.543 48.5831 43.7628 48.8033C43.9826 49.0235 44.1568 49.2849 44.2754 49.5725C44.394 49.8601 44.4548 50.1682 44.4541 50.4793C44.4541 51.1068 44.2049 51.7086 43.7612 52.1523C43.3174 52.5961 42.7156 52.8453 42.0881 52.8453Z" fill="#E0E0E0"/>
<path d="M41.6914 42.882H17.7888C17.1665 42.8722 16.5731 42.6181 16.1365 42.1746C15.7 41.7311 15.4554 41.1337 15.4554 40.5113C15.4554 39.8834 15.7046 39.2811 16.1482 38.8367C16.5917 38.3922 17.1935 38.1419 17.8214 38.1407H41.7054C42.3334 38.1419 42.9352 38.3922 43.3787 38.8367C43.8223 39.2811 44.0714 39.8834 44.0714 40.5113C44.0715 40.8234 44.0098 41.1325 43.8901 41.4207C43.7704 41.7089 43.5949 41.9707 43.3738 42.191C43.1527 42.4112 42.8902 42.5856 42.6015 42.7042C42.3128 42.8228 42.0035 42.8832 41.6914 42.882Z" fill="#E0E0E0"/>
<path d="M35.258 30.6291C38.2996 27.5875 38.2996 22.656 35.258 19.6143C32.2163 16.5726 27.2848 16.5726 24.2431 19.6143C21.2015 22.656 21.2015 27.5875 24.2431 30.6291C27.2848 33.6708 32.2163 33.6708 35.258 30.6291Z" fill="#FAFAFA"/>
<path d="M30.5241 25.2373C30.9112 25.0861 31.2333 24.8045 31.4347 24.441C31.6361 24.0776 31.7043 23.6552 31.6274 23.2468C31.5504 22.8385 31.3332 22.4698 31.0134 22.2046C30.6935 21.9394 30.291 21.7942 29.8755 21.7942C29.46 21.7942 29.0575 21.9394 28.7376 22.2046C28.4177 22.4698 28.2006 22.8385 28.1237 23.2468C28.0467 23.6552 28.1149 24.0776 28.3163 24.441C28.5177 24.8045 28.8398 25.0861 29.2268 25.2373C26.4875 25.6247 26.6088 28.42 26.6088 28.42L33.0908 28.448C33.0908 28.448 33.2401 25.62 30.5241 25.2373Z" fill="#E0E0E0"/>
<path d="M37.5382 25.1113C37.493 24.4823 37.3962 23.8579 37.2488 23.2447C37.0639 22.5207 36.7713 21.8285 36.3809 21.1913C35.87 20.3455 35.2014 19.6057 34.4115 19.012C33.4511 18.284 32.3315 17.7945 31.1448 17.584C29.793 17.3355 28.3992 17.4531 27.1082 17.9247C26.4116 18.1723 25.757 18.5248 25.1668 18.97C24.8709 19.1954 24.5888 19.4386 24.3222 19.698C24.0521 19.978 23.8011 20.2758 23.5708 20.5893C22.6039 21.9032 22.0824 23.4917 22.0824 25.123C22.0824 26.7543 22.6039 28.3428 23.5708 29.6567C23.8035 29.9684 24.0544 30.266 24.3222 30.548C24.596 30.8115 24.8859 31.0578 25.1902 31.2853C25.7802 31.732 26.4348 32.086 27.1315 32.3353C28.8129 32.9473 30.6547 32.9561 32.3418 32.3602C34.029 31.7644 35.4567 30.6008 36.3809 29.0687C36.772 28.4319 37.0646 27.7396 37.2488 27.0153C37.3962 26.4021 37.493 25.7778 37.5382 25.1487C37.5453 25.1904 37.5453 25.233 37.5382 25.2747V25.648C37.5385 25.8496 37.5228 26.0509 37.4915 26.25C37.4613 26.5239 37.4114 26.7953 37.3422 27.062C37.171 27.8015 36.8861 28.51 36.4975 29.162C35.9901 30.0345 35.3162 30.7987 34.5142 31.4113C33.544 32.1613 32.4103 32.6713 31.2055 32.9C29.8183 33.165 28.3854 33.0521 27.0568 32.5733C26.338 32.3213 25.6626 31.9592 25.0548 31.5C24.4064 31.024 23.8431 30.4418 23.3888 29.778C22.39 28.4271 21.851 26.7914 21.851 25.1113C21.851 23.4313 22.39 21.7956 23.3888 20.4447C23.85 19.7968 24.4163 19.2305 25.0642 18.7693C25.6722 18.3116 26.3475 17.9511 27.0662 17.7007C28.3944 17.2203 29.8273 17.1059 31.2148 17.3693C32.3109 17.5816 33.3495 18.0242 34.2617 18.6677C35.174 19.3113 35.9392 20.1413 36.5068 21.1027C36.8939 21.7555 37.1787 22.4637 37.3515 23.2027C37.4199 23.4696 37.4698 23.7409 37.5008 24.0147C37.5324 24.2153 37.548 24.4182 37.5475 24.6213C37.5475 24.7707 37.5475 24.892 37.5475 24.99C37.5511 25.0307 37.5479 25.0717 37.5382 25.1113Z" fill="#263238"/>
<path d="M41.9388 69.3467H18.0129C16.7871 69.3467 15.6115 68.8601 14.7444 67.9938C13.8772 67.1275 13.3894 65.9524 13.3882 64.7267C13.3894 63.5009 13.8772 62.3258 14.7444 61.4596C15.6115 60.5933 16.7871 60.1067 18.0129 60.1067H41.9388C43.1646 60.1067 44.3402 60.5933 45.2073 61.4596C46.0745 62.3258 46.5623 63.5009 46.5635 64.7267C46.5623 65.9524 46.0745 67.1275 45.2073 67.9938C44.3402 68.8601 43.1646 69.3467 41.9388 69.3467Z" fill="#F83758"/>
</svg>
