<svg width="31" height="31" viewBox="0 0 31 31" fill="none" xmlns="http://www.w3.org/2000/svg">
<path d="M8.764 4.466C9.72311 3.88549 10.7559 3.43658 11.8347 3.13133L12.4647 0.0933337L17.598 0L18.3353 3.01933C19.4248 3.28455 20.4734 3.69583 21.4527 4.242L24.0473 2.54333L27.7433 6.10867L26.138 8.778C26.7185 9.73711 27.1674 10.7699 27.4727 11.8487L30.5107 12.4787L30.604 17.612L27.5893 18.3493C27.3195 19.438 26.9068 20.4863 26.362 21.4667L28.0607 24.0613L24.4953 27.7573L21.84 26.1473C20.8809 26.7278 19.8481 27.1768 18.7693 27.482L18.1393 30.52L13.006 30.6133L12.2687 27.5987C11.1779 27.3263 10.1281 26.9105 9.14667 26.362L6.552 28.0607L2.856 24.4953L4.48 21.8447C3.89949 20.8856 3.45058 19.8528 3.14533 18.774L0.0933319 18.1393L0 13.006L3.01933 12.2687C3.28536 11.1795 3.6966 10.131 4.242 9.15134L2.54333 6.55667L6.10867 2.86067L8.764 4.47067V4.466ZM11.48 11.3073C10.7228 12.0914 10.215 13.0824 10.021 14.155C9.82698 15.2276 9.95537 16.3337 10.3899 17.3333C10.8245 18.333 11.5458 19.1813 12.4625 19.771C13.3792 20.3608 14.4502 20.6655 15.54 20.6465C16.6299 20.6276 17.6896 20.2859 18.5853 19.6647C19.481 19.0435 20.1723 18.1706 20.572 17.1565C20.9716 16.1424 21.0615 15.0325 20.8303 13.9673C20.5992 12.9021 20.0573 11.9293 19.2733 11.172C18.753 10.6686 18.1386 10.2727 17.4651 10.007C16.7917 9.74131 16.0725 9.61102 15.3486 9.62359C14.6247 9.63616 13.9105 9.79135 13.2466 10.0803C12.5828 10.3692 11.9825 10.7862 11.48 11.3073Z" fill="#F5F5F5"/>
</svg>
