<svg width="8" height="20" viewBox="0 0 8 20" fill="none" xmlns="http://www.w3.org/2000/svg">
<path d="M0.470449 19.054C0.49983 18.7592 0.49983 18.4622 0.470449 18.1673C0.437782 17.5233 0.400449 16.716 0.353782 15.7593C0.291336 14.5733 0.291336 13.3847 0.353782 12.1987C0.457528 10.7522 0.677574 9.31645 1.01178 7.90532C1.33583 6.49656 1.85743 5.14071 2.56112 3.878C3.13612 2.84896 3.93322 1.96099 4.89445 1.27866C5.54681 0.827345 6.26665 0.482389 7.02711 0.256661C7.31877 0.202464 7.60359 0.116398 7.87645 0C7.5777 0.00867848 7.28061 0.0477692 6.98979 0.116667C6.19515 0.292528 5.4382 0.608579 4.75445 1.05C3.73807 1.72683 2.89166 2.62914 2.28112 3.68666C1.54332 4.97009 0.999217 6.3555 0.666452 7.798C0.328896 9.23147 0.114998 10.6913 0.0271172 12.1613C-0.0234996 13.3593 -0.0032433 14.5591 0.0877825 15.7547C0.157783 16.772 0.251116 17.5933 0.321116 18.158C0.334651 18.4616 0.384792 18.7624 0.470449 19.054Z" fill="#E0E0E0"/>
</svg>
