<svg width="3" height="40" viewBox="0 0 3 40" fill="none" xmlns="http://www.w3.org/2000/svg">
<path d="M2.32467 39.8813C2.32995 39.745 2.3174 39.6085 2.28734 39.4753C2.24067 39.172 2.18467 38.794 2.11467 38.3227C1.96533 37.324 1.75067 35.8727 1.54067 34.076C1.102 30.4827 0.840668 26.586 0.635335 21.07C0.444002 15.8807 0.322668 9.82334 0.551335 5.84268C0.593335 4.94201 0.649336 4.12534 0.705336 3.40668C0.761336 2.68801 0.803337 2.072 0.859336 1.57266C0.915336 1.07333 0.934 0.714002 0.962 0.410669C0.977454 0.274216 0.977454 0.136453 0.962 0C0.91676 0.129582 0.888527 0.264493 0.878004 0.401341C0.831337 0.704674 0.775336 1.08734 0.705336 1.55401C0.635336 2.02067 0.560669 2.674 0.490669 3.388C0.420669 4.102 0.33667 4.91867 0.29467 5.852C-0.0206515 10.5664 -0.0829638 15.2943 0.108003 20.0153C0.318003 25.5453 0.780001 30.5387 1.284 34.132C1.53133 35.9287 1.78334 37.3753 1.97467 38.3693C2.07267 38.836 2.152 39.214 2.21733 39.5127C2.23601 39.6399 2.27213 39.764 2.32467 39.8813Z" fill="#E0E0E0"/>
</svg>
