<svg width="14" height="10" viewBox="0 0 14 10" fill="none" xmlns="http://www.w3.org/2000/svg">
<path d="M2.00772 1.94364C4.03306 0.487641 6.59039 -0.039694 9.08239 0.00230604C10.4217 0.0256394 11.8404 0.216972 12.8764 1.06631C13.9124 1.91564 14.3324 3.61898 13.4364 4.61298C12.8453 5.15627 12.0823 5.475 11.2804 5.51364C9.37173 5.77497 7.20639 5.75164 5.85772 7.12364C5.08305 7.90298 4.66772 9.0743 3.67839 9.5503C3.1764 9.7474 2.62388 9.77568 2.10439 9.63087C1.5849 9.48605 1.12669 9.176 0.799056 8.74764C0.16494 7.8666 -0.107293 6.77599 0.0383903 5.7003C0.0549568 4.96472 0.241324 4.24292 0.58294 3.59126C0.924556 2.9396 1.41218 2.37571 2.00772 1.94364Z" fill="#EBEBEB"/>
</svg>
