<svg width="16" height="23" viewBox="0 0 16 23" fill="none" xmlns="http://www.w3.org/2000/svg">
<path d="M15.3682 22.834C15.3389 22.4599 15.2812 22.0886 15.1955 21.7233C15.0509 21.0187 14.7989 20.006 14.4162 18.774C13.9524 17.3361 13.4102 15.9247 12.7922 14.546C12.0538 12.8496 11.188 11.2116 10.2022 9.64599C8.47611 6.74492 6.2389 4.18042 3.59886 2.07666C3.14165 1.72547 2.66319 1.40286 2.1662 1.11067C1.94686 0.975336 1.75086 0.835337 1.55953 0.73267L1.0182 0.466667C0.690894 0.286564 0.350879 0.130594 0.000864336 0C-0.0411357 0.084 1.4522 0.686002 3.45886 2.27734C6.02611 4.41109 8.21173 6.96597 9.9222 9.83267C10.8938 11.3911 11.7606 13.0124 12.5169 14.686C13.1468 16.0491 13.7075 17.443 14.1969 18.8627C14.6075 20.076 14.8922 21.0747 15.0742 21.77C15.1468 22.1312 15.245 22.4868 15.3682 22.834Z" fill="#E0E0E0"/>
</svg>
