<svg width="19" height="4" viewBox="0 0 19 4" fill="none" xmlns="http://www.w3.org/2000/svg">
<path d="M18.368 1.848C18.368 1.848 18.3447 1.89467 18.2887 1.96933L18.046 2.31466L17.052 3.584L17.0053 3.63999L16.9633 3.57933C16.3427 2.71599 15.5073 1.56332 14.5273 0.209991H14.6673L12.2687 3.60732L12.1893 3.71466L12.1053 3.612C11.2233 2.55733 10.2387 1.41399 9.25867 0.223991H9.42667L9.268 0.419997L6.72466 3.612L6.636 3.71933L6.56133 3.60732L4.158 0.209991H4.298L1.33933 3.57933L1.288 3.63999L1.246 3.57467C0.858666 2.91667 0.545999 2.39866 0.312666 2.01599L0.0746648 1.60533C0.0449319 1.55813 0.019924 1.50811 0 1.456C0 1.456 0.0373339 1.498 0.102667 1.58666C0.168001 1.67533 0.256666 1.82466 0.363999 1.98799C0.601999 2.35666 0.928667 2.87 1.33467 3.514H1.24133L4.15333 0.102667L4.228 0.0186564L4.29333 0.111995L6.71533 3.49533H6.552L9.09066 0.298659L9.24933 0.102667L9.32867 0L9.41267 0.097996L12.2547 3.49066H12.0913L14.518 0.107324L14.588 0.00932821L14.658 0.107324C15.6193 1.47932 16.436 2.64599 17.0427 3.51866H16.9587L17.99 2.28199L18.2653 1.95999C18.3307 1.89932 18.3633 1.848 18.368 1.848Z" fill="#F5F5F5"/>
</svg>
