<svg width="31" height="31" viewBox="0 0 31 31" fill="none" xmlns="http://www.w3.org/2000/svg">
<path d="M8.736 4.44266C9.69179 3.8665 10.7196 3.41928 11.7927 3.11266L12.4227 0.0886678L17.556 0L18.2933 3.00066C19.377 3.26805 20.4205 3.67761 21.3967 4.21867L23.982 2.52467L27.6593 6.08067L26.04 8.70333C26.6162 9.65912 27.0634 10.6869 27.37 11.76L30.394 12.39L30.4827 17.5233L27.4867 18.2607C27.2176 19.3445 26.8065 20.388 26.264 21.364L27.958 23.9493L24.4067 27.6267L21.7653 26.026C20.8104 26.6026 19.7823 27.0484 18.7087 27.3513L18.0787 30.38L12.9453 30.4687L12.208 27.468C11.1239 27.1998 10.0804 26.7886 9.10466 26.2453L6.51933 27.9393L2.842 24.388L4.44266 21.7467C3.86553 20.7897 3.41828 19.7602 3.11267 18.6853L0.0886607 18.06L0 12.9267L3.00066 12.1893C3.26889 11.1053 3.68005 10.0617 4.22333 9.086L2.52933 6.50066L6.08067 2.82333L8.72199 4.42399L8.736 4.44266ZM11.4613 11.256C10.7074 12.0368 10.2019 13.0236 10.0089 14.0917C9.81577 15.1598 9.94373 16.2611 10.3765 17.2565C10.8094 18.2518 11.5276 19.0965 12.4405 19.6837C13.3533 20.2708 14.4198 20.5741 15.505 20.5552C16.5902 20.5363 17.6455 20.196 18.5373 19.5773C19.4291 18.9587 20.1175 18.0895 20.5153 17.0797C20.9132 16.0698 21.0027 14.9647 20.7725 13.904C20.5422 12.8433 20.0027 11.8747 19.222 11.1207C18.7039 10.6194 18.092 10.2252 17.4213 9.9606C16.7507 9.69605 16.0344 9.56634 15.3136 9.57891C14.5928 9.59148 13.8815 9.74609 13.2205 10.0339C12.5595 10.3216 11.9617 10.7369 11.4613 11.256Z" fill="#EBEBEB"/>
</svg>
