<svg width="14" height="8" viewBox="0 0 14 8" fill="none" xmlns="http://www.w3.org/2000/svg">
<path d="M13.6274 8.00271C13.6274 8.00271 13.5854 7.68537 13.4734 7.12071C13.3267 6.31899 13.0903 5.5363 12.7687 4.78737C12.3073 3.6808 11.6244 2.68031 10.7621 1.84738C9.71791 0.810538 8.30761 0.226335 6.83612 0.221095C5.36464 0.215855 3.95022 0.790001 2.89871 1.81938C2.03453 2.64468 1.34708 3.63698 0.878063 4.73605C0.55707 5.48597 0.317679 6.26825 0.16405 7.06938C0.0520496 7.63405 0.0287322 7.95138 0.00539887 7.94672C-0.00179962 7.87066 -0.00179962 7.79411 0.00539887 7.71805C0.00539887 7.56405 0.0333818 7.34005 0.0753818 7.05538C0.196402 6.24413 0.417433 5.45098 0.733398 4.69405C1.18792 3.55712 1.87634 2.52843 2.75404 1.67471C3.83707 0.598043 5.30341 -0.00435207 6.83054 2.36731e-05C8.35768 0.00439942 9.82055 0.615182 10.8974 1.69804C11.7688 2.55775 12.4521 3.5891 12.904 4.72672C13.2146 5.48643 13.4324 6.28083 13.5527 7.09271C13.5947 7.37737 13.6134 7.60138 13.6227 7.75538C13.6379 7.83701 13.6394 7.92057 13.6274 8.00271Z" fill="#E0E0E0"/>
</svg>
