<svg width="27" height="27" viewBox="0 0 27 27" fill="none" xmlns="http://www.w3.org/2000/svg">
<path d="M7.62068 3.878C8.4545 3.37306 9.35227 2.98225 10.29 2.716L10.836 0.0793343L15.2927 0L15.9367 2.618C16.8812 2.84923 17.7901 3.20714 18.6387 3.682L20.8927 2.20733L24.0987 5.30133L22.6987 7.60667C23.2029 8.4386 23.5922 9.33496 23.856 10.2713L26.4927 10.8173L26.572 15.274L23.954 15.918C23.7228 16.8625 23.3649 17.7714 22.89 18.62L24.3693 20.874L21.2707 24.08L18.97 22.68C18.1462 23.1819 17.2596 23.5727 16.3333 23.842L15.7827 26.4787L11.326 26.558L10.682 23.94C9.73749 23.7088 8.82857 23.3509 7.97999 22.876L5.72601 24.3553L2.52001 21.2567L3.92001 18.956C3.41743 18.1232 3.02819 17.2271 2.76266 16.2913L0.126009 15.7407L0 11.284L2.61799 10.6447C2.84921 9.69866 3.20712 8.78822 3.68201 7.938L2.20265 5.684L5.30133 2.478L7.60199 3.878H7.62068ZM10.0007 9.814C9.34451 10.4942 8.9048 11.3537 8.73713 12.2838C8.56945 13.214 8.68135 14.1729 9.05867 15.0394C9.43599 15.906 10.0618 16.6411 10.8569 17.152C11.6521 17.6629 12.5808 17.9265 13.5258 17.9095C14.4707 17.8926 15.3895 17.5958 16.1657 17.0567C16.942 16.5176 17.541 15.7604 17.887 14.8809C18.2329 14.0014 18.3104 13.0391 18.1094 12.1156C17.9084 11.1921 17.4381 10.3489 16.758 9.69267C16.3063 9.25691 15.7733 8.91438 15.1893 8.68465C14.6053 8.45491 13.9817 8.34247 13.3542 8.35374C12.7267 8.365 12.1076 8.49976 11.5322 8.75031C10.9568 9.00087 10.4364 9.36231 10.0007 9.814Z" fill="#F5F5F5"/>
</svg>
