<svg width="17" height="15" viewBox="0 0 17 15" fill="none" xmlns="http://www.w3.org/2000/svg">
<path d="M16.0552 13.5294C17.1565 11.7468 17.0679 9.39477 16.1812 7.49544C15.2945 5.59611 13.6985 4.10278 11.9485 2.95011C9.88474 1.59958 7.57898 0.661417 5.15854 0.18744C4.21435 -0.040037 3.23214 -0.0607198 2.27921 0.126786C1.80365 0.224279 1.35927 0.436923 0.985014 0.746093C0.610756 1.05526 0.318045 1.45151 0.132537 1.90011C-0.334129 3.24878 0.515207 4.67677 1.37854 5.81544C2.90323 7.82508 4.58375 9.71158 6.40454 11.4575C7.8652 12.8575 9.50787 14.2154 11.4865 14.6541C13.4652 15.0928 15.3972 14.7241 16.1999 13.2774" fill="#EBEBEB"/>
</svg>
