<svg width="14" height="8" viewBox="0 0 14 8" fill="none" xmlns="http://www.w3.org/2000/svg">
<path d="M13.6274 7.98871C13.6274 7.98871 13.5854 7.67137 13.4734 7.10671C13.3267 6.30499 13.0903 5.5223 12.7687 4.77337C12.3073 3.6668 11.6244 2.66631 10.7621 1.83338C9.71771 0.795129 8.30643 0.210029 6.83382 0.204788C5.3612 0.199548 3.94578 0.77459 2.89407 1.80538C2.02961 2.63488 1.34359 3.63213 0.878063 4.73605C0.554909 5.48517 0.315473 6.26769 0.164078 7.06938C0.0520781 7.63405 0.0287322 7.95138 0.00539887 7.94672C-0.00179962 7.87066 -0.00179962 7.79411 0.00539887 7.71805C0.00539887 7.56405 0.0334103 7.34005 0.0754103 7.05538C0.19643 6.24413 0.417433 5.45098 0.733398 4.69405C1.18617 3.5562 1.87485 2.52717 2.75407 1.67471C3.8371 0.598043 5.30343 -0.00435207 6.83057 2.36731e-05C8.35771 0.00439942 9.82057 0.615182 10.8974 1.69804C11.7688 2.55775 12.4521 3.5891 12.9041 4.72672C13.2146 5.48643 13.4324 6.28083 13.5527 7.09271C13.5947 7.37737 13.6134 7.60138 13.6227 7.75538C13.6364 7.83245 13.6379 7.91116 13.6274 7.98871Z" fill="#E0E0E0"/>
</svg>
