<svg width="72" height="32" viewBox="0 0 72 32" fill="none" xmlns="http://www.w3.org/2000/svg">
<path d="M44.25 11.7941L43.8 11.7701C43.818 11.4461 43.83 11.1041 43.848 10.7501C43.944 8.43406 44.07 5.54806 45.312 3.61006C46.602 1.60006 48.786 0.406064 51.81 0.0520639C54.54 -0.265936 57.3 0.892066 58.848 2.99807C60.54 5.29607 60.666 8.33806 60.654 11.2601H60.204C60.216 8.41606 60.096 5.45206 58.488 3.26806C57.03 1.28806 54.432 0.202064 51.864 0.502064C48.984 0.838064 46.908 1.96607 45.69 3.85607C44.508 5.69207 44.394 8.51206 44.298 10.7741C44.286 11.1281 44.268 11.4761 44.25 11.8001V11.7941Z" fill="#263238"/>
<path d="M63.84 25.1441H40.614L43.008 10.0481H61.956L63.84 25.1441Z" fill="#F83758"/>
<path opacity="0.3" d="M43.008 10.0481C43.008 10.0481 45.864 17.5661 52.23 17.5961C58.596 17.6201 61.956 10.0481 61.956 10.0481C61.956 10.0481 58.836 19.0541 52.23 18.9221C45.624 18.7841 43.008 10.0481 43.008 10.0481Z" fill="black"/>
<path d="M54.204 14.8601H50.424V15.5921H54.204V14.8601Z" fill="#263238"/>
<path d="M30.636 21.9461H6.82802C6.22493 21.9461 5.73602 22.435 5.73602 23.0381V23.9381C5.73602 24.5412 6.22493 25.0301 6.82802 25.0301H30.636C31.2391 25.0301 31.728 24.5412 31.728 23.9381V23.0381C31.728 22.435 31.2391 21.9461 30.636 21.9461Z" fill="#F83758"/>
<path d="M4.92603 19.9601V20.8541C4.93803 21.4721 5.44803 21.9581 6.06603 21.9461H30.75C31.368 21.9581 31.878 21.4661 31.89 20.8541V19.9601C31.878 19.3421 31.368 18.8501 30.75 18.8621H6.04802C5.43602 18.8621 4.93803 19.3541 4.92603 19.9601Z" fill="#F83758"/>
<path opacity="0.3" d="M4.92603 19.9601V20.8541C4.93803 21.4721 5.44803 21.9581 6.06603 21.9461H30.75C31.368 21.9581 31.878 21.4661 31.89 20.8541V19.9601C31.878 19.3421 31.368 18.8501 30.75 18.8621H6.04802C5.43602 18.8621 4.93803 19.3541 4.92603 19.9601Z" fill="black"/>
<path d="M5.00403 16.8701V17.7641C5.02203 18.3881 5.53803 18.8741 6.16203 18.8561H31.296C31.92 18.8741 32.436 18.3821 32.454 17.7641V16.8701C32.442 16.2461 31.926 15.7541 31.302 15.7661H6.16203C5.53803 15.7481 5.02203 16.2401 5.00403 16.8581V16.8701Z" fill="#F83758"/>
<path d="M5.65204 13.7801V14.6741C5.65204 15.2801 6.14404 15.7721 6.75604 15.7721H30.63C31.236 15.7721 31.734 15.2801 31.734 14.6741V13.7801C31.734 13.1741 31.236 12.6881 30.63 12.6881H6.72004C6.12604 12.7061 5.65804 13.1921 5.65204 13.7801Z" fill="#F83758"/>
<path opacity="0.3" d="M5.65204 13.7801V14.6741C5.65204 15.2801 6.14404 15.7721 6.75604 15.7721H30.63C31.236 15.7721 31.734 15.2801 31.734 14.6741V13.7801C31.734 13.1741 31.236 12.6881 30.63 12.6881H6.72004C6.12604 12.7061 5.65804 13.1921 5.65204 13.7801Z" fill="black"/>
<path d="M7.03805 10.6961V11.5901C7.01405 12.1601 7.45205 12.6521 8.02205 12.6821H29.352C29.928 12.6521 30.366 12.1601 30.336 11.5901V10.6961C30.366 10.1201 29.928 9.62807 29.352 9.59207H8.05205C7.47605 9.61007 7.02005 10.0901 7.03805 10.6721V10.6961Z" fill="#F83758"/>
<path d="M71.226 24.9161H0V31.4321H71.226V24.9161Z" fill="#263238"/>
</svg>
