<svg width="138" height="131" viewBox="0 0 138 131" fill="none" xmlns="http://www.w3.org/2000/svg">
<path d="M134.268 38.8068H24.852V130.799H134.268V38.8068Z" fill="#F83758"/>
<path opacity="0.2" d="M134.268 38.8068H24.852V130.799H134.268V38.8068Z" fill="black"/>
<path d="M28.338 34.3608L33.018 5.34476H53.862L59.106 34.0608L28.338 34.3608Z" fill="#F83758"/>
<path opacity="0.3" d="M28.338 34.3608L33.018 5.34476H53.862L59.106 34.0608L28.338 34.3608Z" fill="white"/>
<path opacity="0.3" d="M50.922 33.9888L59.106 34.0608L53.862 5.34476L50.922 33.9888Z" fill="black"/>
<path d="M39.348 7.40876C39.348 7.93076 38.922 8.35675 38.4 8.35675C37.878 8.35675 37.452 7.93076 37.452 7.40876C37.452 6.88676 37.878 6.46075 38.4 6.46075C38.922 6.46075 39.348 6.88676 39.348 7.40876Z" fill="#263238"/>
<path d="M48.498 7.40876C48.498 7.93076 48.072 8.35675 47.55 8.35675C47.028 8.35675 46.602 7.93076 46.602 7.40876C46.602 6.88676 47.028 6.46075 47.55 6.46075C48.072 6.46075 48.498 6.88676 48.498 7.40876Z" fill="#263238"/>
<path d="M38.562 7.10276C38.562 5.52476 38.568 3.86276 39.414 2.47076C40.26 1.07876 41.784 0.49676 43.374 0.49676C44.964 0.49676 46.386 1.07876 46.986 2.62076C47.586 4.16276 47.232 5.77676 47.244 7.34276C47.244 7.63076 47.694 7.63076 47.694 7.34276C47.682 5.90276 47.952 4.42676 47.586 3.01076C47.292 1.88876 46.608 0.90476 45.522 0.43076C43.23 -0.55924 40.152 0.178755 38.922 2.42275C38.142 3.85075 38.118 5.50676 38.118 7.09676C38.118 7.38476 38.568 7.38476 38.568 7.09676L38.562 7.10276Z" fill="#263238"/>
<path opacity="0.1" d="M54.714 32.5008L53.862 5.34476L50.922 33.9888L54.714 32.5008Z" fill="black"/>
<path d="M46.77 19.6668H35.718L36.156 17.0327H47.208L46.77 19.6668Z" fill="white"/>
<path opacity="0.3" d="M134.268 38.0267H24.852V43.4687H134.268V38.0267Z" fill="black"/>
<path d="M137.844 33.4247H19.8V39.5147H137.844V33.4247Z" fill="#F83758"/>
<path d="M87.978 71.1648H66.444V84.8808H87.978V71.1648Z" fill="#263238"/>
<path opacity="0.3" d="M87.978 71.1648H66.444V84.8808H87.978V71.1648Z" fill="white"/>
<path d="M89.334 69.6168H65.082V75.3587H89.334V69.6168Z" fill="#263238"/>
<path opacity="0.3" d="M89.334 69.6168H65.082V75.3587H89.334V69.6168Z" fill="white"/>
<path opacity="0.3" d="M87.978 75.4068H66.444V76.8228H87.978V75.4068Z" fill="black"/>
<path opacity="0.3" d="M80.6521 71.4348H73.7641C73.3896 71.4348 73.0861 71.7383 73.0861 72.1127V72.8388C73.0861 73.2132 73.3896 73.5168 73.7641 73.5168H80.6521C81.0265 73.5168 81.3301 73.2132 81.3301 72.8388V72.1127C81.3301 71.7383 81.0265 71.4348 80.6521 71.4348Z" fill="black"/>
<path d="M94.494 84.8027H0V130.799H94.494V84.8027Z" fill="#263238"/>
<path d="M12.456 71.4528L12.006 71.4287C12.024 71.1047 12.036 70.7568 12.054 70.4028C12.15 68.0868 12.276 65.2007 13.518 63.2627C14.808 61.2527 16.992 60.0587 20.016 59.7047C22.746 59.3867 25.506 60.5447 27.054 62.6507C28.746 64.9487 28.872 67.9907 28.854 70.9127H28.404C28.416 68.0687 28.296 65.1108 26.688 62.9208C25.23 60.9408 22.632 59.8547 20.064 60.1547C17.184 60.4907 15.108 61.6187 13.89 63.5087C12.708 65.3447 12.594 68.1647 12.498 70.4267C12.48 70.7807 12.468 71.1288 12.45 71.4528H12.456Z" fill="#263238"/>
<path d="M32.046 84.8028H8.82001L11.208 69.7068H30.156L32.046 84.8028Z" fill="#F83758"/>
<path opacity="0.3" d="M11.208 69.7068C11.208 69.7068 14.064 77.2247 20.43 77.2547C26.796 77.2847 30.156 69.7068 30.156 69.7068C30.156 69.7068 27.036 78.7127 20.43 78.5807C13.824 78.4427 11.208 69.7068 11.208 69.7068Z" fill="black"/>
<path d="M22.404 74.5187H18.624V75.2507H22.404V74.5187Z" fill="#263238"/>
<path d="M61.512 83.5427C60.72 83.0687 59.82 82.7087 58.854 82.4807C58.554 82.5227 55.518 82.8767 54.132 81.2987C52.674 79.6367 50.61 73.9187 47.274 74.2547C47.298 74.2187 47.322 74.1827 47.346 74.1467C47.322 74.1707 47.298 74.1947 47.274 74.2187C47.172 74.3387 47.094 74.4647 47.04 74.6027C46.866 75.2927 46.752 75.9887 46.692 76.6847C46.536 79.0667 46.644 82.2527 46.854 84.6287H47.562L47.658 79.3427C47.658 77.8187 49.308 79.5887 49.782 81.2147C50.25 82.8407 51.228 84.6227 55.632 84.6287C60.702 84.6527 62.832 84.4847 61.524 83.5487L61.512 83.5427Z" fill="#F83758"/>
<path opacity="0.1" d="M61.512 83.5427C60.72 83.0687 59.82 82.7087 58.854 82.4807C58.554 82.5227 55.518 82.8767 54.132 81.2987C52.674 79.6367 50.61 73.9187 47.274 74.2547C47.298 74.2187 47.322 74.1827 47.346 74.1467C47.322 74.1707 47.298 74.1947 47.274 74.2187C47.172 74.3387 47.094 74.4647 47.04 74.6027C46.866 75.2927 46.752 75.9887 46.692 76.6847C46.536 79.0667 46.644 82.2527 46.854 84.6287H47.562L47.658 79.3427C47.658 77.8187 49.308 79.5887 49.782 81.2147C50.25 82.8407 51.228 84.6227 55.632 84.6287C60.702 84.6527 62.832 84.4847 61.524 83.5487L61.512 83.5427Z" fill="black"/>
<path d="M53.148 83.5427C52.356 83.0687 51.456 82.7087 50.49 82.4807C50.19 82.5227 47.154 82.8767 45.768 81.2987C44.31 79.6367 42.246 73.9187 38.91 74.2547C38.934 74.2187 38.958 74.1827 38.982 74.1467C38.958 74.1707 38.934 74.1947 38.91 74.2187C38.808 74.3387 38.73 74.4647 38.676 74.6027C38.502 75.2927 38.388 75.9887 38.328 76.6847C38.172 79.0667 38.28 82.2527 38.49 84.6287H39.198L39.294 79.3427C39.294 77.8187 40.944 79.5887 41.418 81.2147C41.886 82.8407 42.864 84.6227 47.268 84.6287C52.338 84.6527 54.468 84.4847 53.16 83.5487L53.148 83.5427Z" fill="#F83758"/>
</svg>
