<svg width="86" height="175" viewBox="0 0 86 175" fill="none" xmlns="http://www.w3.org/2000/svg">
<path d="M34.0199 28.014C32.1239 27.846 28.3019 31.17 27.2819 32.208C26.2619 33.246 18.1919 36.75 18.1919 36.75L9.22787 26.196L5.66986 28.122C5.66986 28.122 13.5539 44.124 14.3639 45.03C15.1739 45.936 16.4999 46.05 18.9179 45.708C21.3359 45.366 34.9559 36.198 34.6199 36.084C34.2779 35.97 34.0319 28.014 34.0319 28.014H34.0199Z" fill="#B97964"/>
<path d="M9.28186 26.742C9.28186 26.742 10.3499 25.398 10.1699 23.994C9.98986 22.584 10.2239 21.414 10.0199 20.376C9.81586 19.338 9.10786 20.58 8.86786 21.312C8.62786 22.05 8.34586 22.878 7.81786 22.608C7.29586 22.338 4.55386 18.072 3.78586 17.778C3.01786 17.484 3.24586 18.312 3.24586 18.312C3.24586 18.312 2.54987 17.292 2.07587 17.46C1.94987 17.502 1.73386 17.802 1.97386 18.318C2.51986 19.47 3.79786 21.84 3.79786 21.84C3.72586 21.702 1.94387 18.894 1.62587 18.51C1.20587 18.006 0.749862 17.982 0.467862 18.234C0.065862 18.594 2.15386 22.146 2.13586 22.362C2.13586 22.362 1.00186 20.274 0.299863 20.274C-0.402137 20.274 0.24586 21.624 1.03786 22.71C1.76386 23.706 2.92786 25.848 3.76786 26.784C4.79986 27.942 5.75386 28.488 7.13986 28.056C8.52586 27.624 9.28186 26.742 9.28186 26.742Z" fill="#B97964"/>
<path opacity="0.3" d="M3.26388 23.7C3.21588 23.7 3.17388 23.676 3.14388 23.64C3.09588 23.574 3.10788 23.478 3.17388 23.43C4.09788 22.758 5.08788 22.17 6.12588 21.696C6.19788 21.66 6.28788 21.696 6.32388 21.768C6.35988 21.846 6.32388 21.93 6.25188 21.966C5.23188 22.434 4.25388 23.01 3.34788 23.67C3.32388 23.688 3.28788 23.7 3.25788 23.7H3.26388Z" fill="black"/>
<path opacity="0.3" d="M6.47387 25.956C6.47387 25.956 6.45587 25.956 6.44987 25.956C6.36587 25.944 6.31187 25.866 6.32387 25.782C6.47987 24.822 7.06787 23.934 7.88987 23.406C7.96187 23.364 8.05187 23.382 8.09987 23.454C8.14187 23.526 8.12387 23.616 8.05187 23.664C7.30187 24.144 6.76787 24.954 6.62387 25.836C6.61187 25.908 6.54587 25.962 6.47387 25.962V25.956Z" fill="black"/>
<path d="M36.9239 4.78801L42.2639 1.72802C39.3059 -0.88798 35.8199 -0.263986 33.5579 1.80601C32.2379 3.01801 32.5199 4.12802 31.5959 4.80002C30.5279 5.57402 29.3759 5.99402 28.5179 7.06802C27.2519 8.65802 28.0259 11.376 27.1199 13.278C26.5679 14.436 25.4159 15.246 25.3079 16.566C25.2059 17.826 26.1419 18.972 26.0219 20.232C25.9559 20.916 25.5779 21.624 25.8299 22.248C26.0399 22.776 26.5979 22.956 27.0839 23.058C30.5699 23.766 34.2179 23.388 37.5419 21.966C37.8599 21.828 38.2079 21.654 38.3519 21.288C38.4539 21.03 38.4299 20.724 38.3999 20.442C37.9019 15.228 37.4099 10.014 36.9119 4.79402L36.9239 4.78801Z" fill="#263238"/>
<path d="M43.5299 5.00403L40.7699 2.14803C42.4559 0.996032 44.7539 1.23603 46.2419 2.71803C47.0699 3.54003 47.6519 4.69803 48.5759 5.36403C49.6439 6.13803 51.0779 6.20403 51.9299 7.28403C53.1959 8.87403 52.4219 11.592 53.3279 13.494C53.8799 14.652 55.0319 15.462 55.1399 16.782C55.2419 18.042 54.3059 19.188 54.4259 20.448C54.4919 21.132 54.8699 21.84 54.6179 22.464C54.4079 22.992 53.8499 23.172 53.3639 23.274C49.8779 23.982 46.2299 23.604 42.9059 22.182C42.5879 22.044 42.2399 21.87 42.0959 21.504C41.9939 21.246 42.0179 20.94 42.0479 20.658C42.5459 15.444 43.0379 10.224 43.5359 5.01003L43.5299 5.00403Z" fill="#263238"/>
<path d="M46.7338 27.438C46.7338 27.438 44.6338 28.47 42.0478 30.702C41.5078 31.164 40.9138 31.566 40.2838 31.902C38.5858 32.802 37.0438 33.318 36.6238 32.502C36.5278 32.322 36.4618 32.13 36.4078 31.926C36.0538 30.558 36.1978 28.632 37.3078 27.75C38.5558 26.754 39.1558 25.908 38.9338 24.564C38.8138 23.802 38.5378 23.016 38.2198 22.248L39.6598 21.384L44.7958 16.2C44.2078 19.38 44.0339 25.56 46.7399 27.444L46.7338 27.438Z" fill="#B97964"/>
<path opacity="0.2" d="M38.9698 24.852C40.3798 24.012 41.9339 22.56 41.7479 20.898C41.6639 20.196 41.5138 19.536 41.3458 19.11L38.4778 22.908C38.7118 23.52 38.8018 23.928 38.9698 24.852Z" fill="black"/>
<path d="M45.7799 10.35C45.2939 15.63 45.2039 17.862 42.4799 20.634C38.3819 24.798 32.0818 23.394 30.9958 18.168C30.0178 13.458 30.9718 5.62202 36.1558 3.40202C41.2618 1.21802 46.2659 5.07601 45.7799 10.356V10.35Z" fill="#B97964"/>
<path d="M38.9459 12.072C38.9219 12.63 38.6159 13.086 38.2679 13.098C37.9199 13.104 37.6619 12.66 37.6859 12.102C37.7099 11.544 38.0159 11.088 38.3639 11.076C38.7119 11.07 38.9699 11.514 38.9459 12.072Z" fill="#263238"/>
<path d="M33.7439 12.054C33.7199 12.594 33.4139 13.038 33.0719 13.044C32.7239 13.05 32.4658 12.618 32.4958 12.078C32.5198 11.538 32.8259 11.094 33.1679 11.088C33.5159 11.082 33.7739 11.514 33.7439 12.054Z" fill="#263238"/>
<path d="M40.0499 10.128C39.9839 10.134 39.9119 10.116 39.8639 10.068C39.0539 9.31801 38.1359 9.58201 38.1239 9.58201C37.9859 9.62401 37.8539 9.546 37.8179 9.408C37.7879 9.27 37.8719 9.12601 38.0099 9.08401C38.0579 9.07201 39.2039 8.73601 40.2179 9.67201C40.3199 9.76801 40.3199 9.93001 40.2179 10.038C40.1699 10.092 40.1099 10.122 40.0439 10.128H40.0499Z" fill="#263238"/>
<path d="M31.9918 9.40802C31.9378 9.39002 31.8959 9.34803 31.8719 9.29403C31.8239 9.17403 31.8839 9.02402 32.0039 8.95802C33.2099 8.28002 34.1039 8.79602 34.1399 8.82002C34.2479 8.88602 34.2719 9.03002 34.1939 9.15602C34.1219 9.27602 33.9718 9.32403 33.8698 9.26403C33.8338 9.24603 33.1378 8.85603 32.1778 9.39603C32.1178 9.43203 32.0518 9.43802 31.9918 9.42002V9.40802Z" fill="#263238"/>
<path d="M35.1598 11.796C35.1598 11.796 34.3318 13.77 33.4018 15C33.2398 15.216 33.3418 15.528 33.5938 15.624C34.2478 15.864 35.0098 15.648 35.0098 15.648L35.1598 11.796Z" fill="#A24E3F"/>
<path d="M38.5619 11.094L37.3499 10.806C37.3499 10.806 38.0099 11.712 38.5619 11.094Z" fill="#263238"/>
<path d="M33.2879 11.1L32.0759 10.812C32.0759 10.812 32.7359 11.718 33.2879 11.1Z" fill="#263238"/>
<path d="M43.9499 12.174C43.9499 12.174 41.2259 8.07601 41.3699 4.75801C41.3699 4.75801 36.1619 3.40201 32.0039 8.95201C31.3439 9.83401 30.9479 11.31 30.3539 12.582C30.3539 12.582 30.5759 2.09401 39.4859 1.27201C48.3839 0.450008 53.4419 14.37 44.5739 17.61C44.5739 17.61 45.6359 14.736 43.9499 12.174Z" fill="#263238"/>
<path d="M47.3759 14.652C46.7519 15.732 45.7379 16.416 44.8139 16.644C43.4159 16.992 42.6959 14.748 43.1699 13.35C43.6019 12.09 44.9699 11.256 46.3319 11.532C47.6699 11.802 48.0899 13.416 47.3759 14.652Z" fill="#B97964"/>
<path opacity="0.2" d="M44.4299 14.52H44.4179C44.3339 14.52 44.2739 14.442 44.2799 14.358C44.3159 13.818 44.5679 13.302 44.9759 12.942C45.3839 12.582 45.9299 12.402 46.4699 12.432C46.5539 12.432 46.6139 12.51 46.6079 12.594C46.6079 12.678 46.5359 12.744 46.4519 12.732C45.9959 12.702 45.5219 12.864 45.1739 13.17C44.8259 13.476 44.6099 13.92 44.5739 14.382C44.5739 14.46 44.5019 14.52 44.4239 14.52H44.4299Z" fill="black"/>
<path d="M36.6959 17.394C36.5459 17.394 36.3839 17.376 36.2099 17.34C36.1319 17.322 36.0779 17.244 36.0959 17.166C36.1139 17.088 36.1859 17.028 36.2759 17.052C37.6859 17.34 38.1599 16.128 38.1839 16.08C38.2139 16.002 38.2979 15.966 38.3759 15.99C38.4539 16.02 38.4959 16.104 38.4659 16.182C38.4659 16.194 38.0039 17.4 36.7019 17.4L36.6959 17.394Z" fill="#263238"/>
<path d="M47.0519 16.818C47.0519 17.412 46.5719 17.892 45.9779 17.892C45.3839 17.892 44.9039 17.412 44.9039 16.818C44.9039 16.224 45.3839 15.744 45.9779 15.744C46.5719 15.744 47.0519 16.224 47.0519 16.818Z" fill="#F83758"/>
<path d="M82.3978 105.87C78.1138 104.904 73.6558 105.384 69.3178 106.056C61.0858 107.334 52.8778 109.338 45.3538 113.04C36.2338 114.3 23.5438 114.33 21.1678 117.918C44.7118 127.962 72.5518 117.228 83.2198 110.442C84.0958 109.884 85.0618 109.092 85.0078 108.018C84.9418 106.776 83.5678 106.128 82.4038 105.864L82.3978 105.87Z" fill="#F83758"/>
<g opacity="0.2">
<path d="M82.3978 105.87C78.1138 104.904 73.6558 105.384 69.3178 106.056C61.0858 107.334 52.8778 109.338 45.3538 113.04C36.2338 114.3 23.5438 114.33 21.1678 117.918C44.7118 127.962 72.5518 117.228 83.2198 110.442C84.0958 109.884 85.0618 109.092 85.0078 108.018C84.9418 106.776 83.5678 106.128 82.4038 105.864L82.3978 105.87Z" fill="black"/>
</g>
<path d="M56.0278 31.956C56.0278 31.956 57.7858 32.64 59.1238 36.414C60.0478 39.018 64.7638 53.874 64.9918 56.34C65.3458 60.192 63.3478 81.816 63.3478 81.816L59.4538 81.396C59.4538 81.396 58.0678 58.086 58.0138 57.84C57.9598 57.6 51.2698 39.768 51.2698 39.768L56.0278 31.956Z" fill="#B97964"/>
<path d="M61.4579 127.812C60.5939 124.734 58.5239 121.38 58.0859 118.89C57.6959 116.73 58.2059 115.26 57.8999 110.28C57.5459 104.256 56.5799 96.258 54.0659 90.348C54.0659 90.348 58.9619 82.68 54.0839 74.262L50.8259 68.916L32.9159 69.024L46.7039 118.746L61.2539 160.554L66.2759 159.84C65.7779 150.894 63.7619 136.71 61.4639 127.812H61.4579Z" fill="#B97964"/>
<path opacity="0.2" d="M57.8099 106.77L45.2519 110.208L44.7899 111.93L45.2699 113.586L45.7919 115.458C45.7919 115.458 48.4559 114.528 51.2159 113.652C53.9759 112.776 57.9659 111.582 57.9659 111.582L57.8099 106.77Z" fill="black"/>
<path d="M59.4539 173.388C59.9219 172.698 60.5219 172.062 61.2179 171.51C61.2179 171.51 62.7719 168.684 61.5359 162.858L64.3439 160.854C65.3159 160.188 66.5639 160.014 67.4759 160.422C67.6019 160.482 67.7159 160.554 67.8119 160.644C68.2139 161.136 68.5739 161.658 68.8859 162.204C69.9179 164.076 70.7999 166.02 71.5259 168.03L70.9499 168.3L69.1079 164.724C68.5319 163.488 67.8599 165.552 68.0939 167.052C68.3279 168.552 68.2139 170.364 64.6379 172.038C60.5339 173.976 58.7339 174.648 59.4479 173.394L59.4539 173.388Z" fill="black"/>
<path d="M60.8579 158.874C60.8579 158.874 61.6679 163.428 61.7819 166.614C61.9559 168.204 61.7519 169.872 61.1819 171.528C61.1819 171.528 64.0379 170.67 64.5899 168.768C65.1419 166.866 64.6499 161.442 67.4879 160.446C67.1219 160.194 66.7139 159.99 66.2699 159.84L65.9519 158.172C64.4399 158.376 60.8579 158.874 60.8579 158.874Z" fill="#B97964"/>
<path d="M52.5419 40.872L56.9519 31.662C54.9659 28.692 45.1259 26.412 45.1259 26.412L38.6459 26.766C38.6459 26.766 36.1559 27.324 34.0199 28.02C31.1699 28.95 29.6339 29.694 28.9559 31.278C28.9559 31.278 27.5938 34.8 28.4818 41.994C28.7278 43.98 29.3938 55.494 27.5818 58.806L27.6179 59.718C39.4619 68.94 49.4818 67.398 49.4818 67.398C48.9478 65.772 49.0019 60.402 48.7619 58.806C48.9359 56.778 48.8639 55.23 49.7219 51.672C49.8899 50.988 52.2599 41.544 52.5479 40.878L52.5419 40.872Z" fill="#B97964"/>
<path d="M25.3079 73.728L23.3699 119.034L24.9239 162.942L30.3839 164.346C32.8019 155.67 34.7639 138.618 35.3279 129.726C35.4599 126.678 34.4759 123.162 34.8179 120.756C35.1179 118.644 36.1019 117.312 37.3919 112.518C38.9519 106.722 40.5299 98.97 39.8999 92.964C39.8999 92.964 47.2379 86.376 45.0659 77.628L25.3139 73.722L25.3079 73.728Z" fill="#B97964"/>
<path opacity="0.2" d="M23.3699 119.034C23.3699 119.034 25.4999 117.006 29.4179 117.6C33.3359 118.194 35.1899 119.178 35.1899 119.178L36.2519 116.22L27.2759 113.676L23.3699 115.608V119.04V119.034Z" fill="black"/>
<path d="M18.0479 173.268C18.7619 172.842 19.5779 172.518 20.4419 172.314C20.4419 172.314 23.0519 170.418 24.3959 164.61L27.7919 163.986C28.9559 163.794 30.1619 164.166 30.8099 164.922C30.8999 165.03 30.9719 165.144 31.0199 165.264C31.1759 165.882 31.2779 166.506 31.3319 167.13C31.4699 169.26 31.4459 171.396 31.2539 173.526H30.6179L30.4679 169.506C30.4679 168.138 28.9859 169.728 28.5659 171.186C28.1459 172.644 27.2699 174.234 23.3219 174.234C18.7799 174.252 16.8659 174.096 18.0479 173.256V173.268Z" fill="black"/>
<path d="M25.0439 162.528C25.0439 162.528 24.2759 165.18 23.0279 168.12C22.5119 169.632 21.6239 171.054 20.3999 172.314C20.3999 172.314 23.3519 172.746 24.6599 171.264C25.9679 169.776 27.8219 164.652 30.8099 164.958C30.5879 164.58 30.2999 164.22 29.9639 163.89C29.4779 163.35 25.0379 162.534 25.0379 162.534L25.0439 162.528Z" fill="#B97964"/>
<path d="M59.6759 81.318C59.6759 81.318 58.1159 82.026 57.6299 83.358C57.1439 84.69 56.4059 85.626 56.1119 86.646C55.8179 87.66 57.0178 86.88 57.5638 86.34C58.1158 85.794 58.7458 85.182 59.0878 85.662C59.4298 86.142 59.9278 91.188 60.4738 91.8C61.0258 92.412 61.1998 91.572 61.1998 91.572C61.1998 91.572 61.3559 92.796 61.8539 92.862C61.9859 92.88 62.3159 92.712 62.3339 92.142C62.3759 90.864 62.3159 88.182 62.3159 88.182C62.3159 88.338 62.6219 91.644 62.7299 92.136C62.8739 92.778 63.2699 93.006 63.6359 92.91C64.1579 92.772 63.9178 88.656 64.0318 88.476C64.0318 88.476 64.0918 90.852 64.7098 91.17C65.3338 91.488 65.3759 89.994 65.1659 88.668C64.9739 87.45 64.9078 85.014 64.5958 83.796C64.2058 82.296 63.6059 81.378 62.1719 81.126C60.7379 80.88 59.6698 81.318 59.6698 81.318H59.6759Z" fill="#B97964"/>
<path d="M23.2739 73.56C20.8139 85.758 20.7839 107.346 21.1679 117.918C21.1679 117.918 26.5439 113.232 35.1539 116.376C43.7639 119.52 47.4359 119.58 51.7739 118.206C56.1059 116.832 59.5079 109.974 72.0119 107.574C84.5159 105.174 84.9899 107.892 84.9899 107.892C84.9899 107.892 86.4899 104.778 80.2379 102.6C73.9859 100.428 66.4979 92.9641 62.8799 88.218C59.2619 83.472 52.4639 69.258 50.6699 65.61C48.7739 61.764 48.8939 57.54 48.8939 57.54L28.2839 55.566C28.2839 55.566 25.2479 63.81 23.2799 73.56H23.2739Z" fill="#263238"/>
<path d="M47.0519 26.91L44.1659 29.226C41.0399 31.734 36.7679 30.846 34.3199 27.678C31.2179 28.464 29.7359 28.956 29.7359 28.956C29.7359 28.956 27.5939 34.794 28.4819 41.988C28.7279 43.974 29.3939 55.488 27.5819 58.8L27.6179 59.712C39.4619 68.934 49.4819 67.392 49.4819 67.392C48.9479 65.766 49.0679 60.114 48.8279 58.524C49.0019 56.496 48.8639 55.23 49.7219 51.672C49.8899 50.988 52.8779 42.132 53.1659 41.466L56.8199 31.254C54.1139 28.506 47.0519 26.916 47.0519 26.916V26.91Z" fill="#263238"/>
<path d="M27.3659 58.71L49.2179 60.552L49.2239 56.31L28.5299 54.534L27.3659 58.71Z" fill="#F83758"/>
<path d="M20.9879 34.626L25.5359 43.722L29.4359 41.232L32.0819 28.572C32.0819 28.572 29.6999 28.554 27.7619 30.03C25.9319 31.422 20.9879 34.626 20.9879 34.626Z" fill="#263238"/>
<path opacity="0.2" d="M28.4639 41.844C28.4639 41.844 28.1519 39.042 28.3139 36.51L28.4819 33.978C28.4819 33.978 26.6699 39.966 26.9159 42.84L28.4699 41.844H28.4639Z" fill="black"/>
<path d="M51.4619 41.454L53.4899 48.618L62.0399 43.326C62.0399 43.326 59.0639 31.35 56.1839 30.99C53.3039 30.63 51.4559 41.454 51.4559 41.454H51.4619Z" fill="#263238"/>
<path opacity="0.2" d="M52.2179 44.118L53.8919 38.106L53.0219 46.944L52.2179 44.118Z" fill="black"/>
</svg>
