<svg width="72" height="35" viewBox="0 0 72 35" fill="none" xmlns="http://www.w3.org/2000/svg">
<path d="M71.226 27.642H0V34.158H71.226V27.642Z" fill="#263238"/>
<path d="M11.214 16.704L10.77 16.626C11.076 14.91 11.394 13.14 12.072 11.484C12.6 10.182 13.602 8.394 15.348 7.296C17.934 5.67 21.618 6.06 24.108 8.22C26.334 10.152 27.552 13.386 27.288 16.662L26.838 16.626C27.09 13.488 25.932 10.392 23.814 8.556C21.51 6.552 17.97 6.174 15.588 7.674C13.944 8.712 12.996 10.41 12.492 11.652C11.838 13.266 11.52 15.012 11.22 16.704H11.214Z" fill="#263238"/>
<path d="M29.346 20.148C29.346 24.288 24.852 27.642 19.314 27.642C13.776 27.642 9.28198 24.288 9.28198 20.148C9.28198 18.318 9.76798 16.266 11.232 14.964C13.074 13.326 16.23 12.654 19.314 12.654C21.99 12.654 25.116 13.188 26.916 14.466C28.836 15.834 29.346 18.006 29.346 20.148Z" fill="#F83758"/>
<path opacity="0.3" d="M29.346 20.148C29.346 24.288 24.852 27.642 19.314 27.642C13.776 27.642 9.28198 24.288 9.28198 20.148C9.28198 18.318 9.76798 16.266 11.232 14.964C13.074 13.326 16.23 12.654 19.314 12.654C21.99 12.654 25.116 13.188 26.916 14.466C28.836 15.834 29.346 18.006 29.346 20.148Z" fill="black"/>
<path opacity="0.3" d="M9.95398 17.454C9.95398 17.454 12.882 20.976 19.32 21.036C25.752 21.096 28.686 17.454 28.686 17.454C28.686 17.454 26.232 22.32 18.792 22.32C13.35 22.32 9.95398 17.454 9.95398 17.454Z" fill="black"/>
<path d="M18.99 19.89C19.4373 19.89 19.8 19.5274 19.8 19.08C19.8 18.6327 19.4373 18.27 18.99 18.27C18.5426 18.27 18.18 18.6327 18.18 19.08C18.18 19.5274 18.5426 19.89 18.99 19.89Z" fill="#263238"/>
<path d="M63.81 13.308H41.754V27.36H63.81V13.308Z" fill="#F83758"/>
<path d="M65.202 11.718H40.362V17.598H65.202V11.718Z" fill="#F83758"/>
<path opacity="0.3" d="M63.81 17.652H41.754V19.104H63.81V17.652Z" fill="black"/>
<path opacity="0.3" d="M56.046 13.578H49.524C48.9938 13.578 48.564 14.0078 48.564 14.538V14.748C48.564 15.2782 48.9938 15.708 49.524 15.708H56.046C56.5762 15.708 57.006 15.2782 57.006 14.748V14.538C57.006 14.0078 56.5762 13.578 56.046 13.578Z" fill="black"/>
<path d="M66.756 10.446C65.874 9.918 64.872 9.522 63.804 9.264C63.468 9.306 60.096 9.702 58.554 7.95C56.934 6.102 54.642 -0.252002 50.934 0.119998C50.958 0.0779982 50.988 0.042 51.012 0C50.988 0.03 50.958 0.0539984 50.934 0.0779984C50.82 0.209998 50.736 0.353998 50.67 0.503998C50.478 1.272 50.346 2.046 50.28 2.82C50.106 5.466 50.226 9.006 50.46 11.646H51.246L51.348 5.772C51.348 4.08 53.184 6.048 53.706 7.854C54.228 9.66 55.314 11.64 60.21 11.646C65.844 11.67 68.214 11.484 66.756 10.446Z" fill="#263238"/>
<path opacity="0.1" d="M66.756 10.446C65.874 9.918 64.872 9.522 63.804 9.264C63.468 9.306 60.096 9.702 58.554 7.95C56.934 6.102 54.642 -0.252002 50.934 0.119998C50.958 0.0779982 50.988 0.042 51.012 0C50.988 0.03 50.958 0.0539984 50.934 0.0779984C50.82 0.209998 50.736 0.353998 50.67 0.503998C50.478 1.272 50.346 2.046 50.28 2.82C50.106 5.466 50.226 9.006 50.46 11.646H51.246L51.348 5.772C51.348 4.08 53.184 6.048 53.706 7.854C54.228 9.66 55.314 11.64 60.21 11.646C65.844 11.67 68.214 11.484 66.756 10.446Z" fill="black"/>
<path d="M57.462 10.446C56.58 9.918 55.578 9.522 54.51 9.264C54.174 9.306 50.802 9.702 49.26 7.95C47.64 6.102 45.348 -0.252002 41.64 0.119998C41.664 0.0779982 41.694 0.042 41.718 0C41.694 0.03 41.664 0.0539984 41.64 0.0779984C41.526 0.209998 41.442 0.353998 41.376 0.503998C41.184 1.272 41.052 2.046 40.986 2.82C40.812 5.466 40.932 9.006 41.166 11.646H41.952L42.054 5.772C42.054 4.08 43.89 6.048 44.412 7.854C44.934 9.66 46.02 11.64 50.916 11.646C56.55 11.67 58.92 11.484 57.462 10.446Z" fill="#263238"/>
</svg>
