<svg width="57" height="33" viewBox="0 0 57 33" fill="none" xmlns="http://www.w3.org/2000/svg">
<path d="M55.458 19.74H32.322V32.37H55.458V19.74Z" fill="#263238"/>
<path opacity="0.7" d="M55.458 19.74H32.322V32.37H55.458V19.74Z" fill="white"/>
<path d="M56.922 18.318H30.864V23.604H56.922V18.318Z" fill="#263238"/>
<path opacity="0.7" d="M56.922 18.318H30.864V23.604H56.922V18.318Z" fill="white"/>
<path opacity="0.3" d="M55.458 23.646H32.322V24.948H55.458V23.646Z" fill="black"/>
<path opacity="0.3" d="M46.152 21.9H42.168C41.64 21.9 41.208 21.474 41.208 20.94C41.208 20.412 41.634 19.98 42.168 19.98H46.152C46.68 19.98 47.112 20.406 47.112 20.94C47.112 21.468 46.686 21.9 46.152 21.9Z" fill="black"/>
<path d="M32.934 18.318H1.95599V32.37H32.934V18.318Z" fill="#F83758"/>
<path d="M34.896 16.734H0V22.614H34.896V16.734Z" fill="#F83758"/>
<path opacity="0.3" d="M32.934 22.662H1.95599V24.114H32.934V22.662Z" fill="black"/>
<path opacity="0.3" d="M20.802 18.594H14.82C14.2898 18.594 13.86 19.0238 13.86 19.554V19.764C13.86 20.2942 14.2898 20.724 14.82 20.724H20.802C21.3322 20.724 21.762 20.2942 21.762 19.764V19.554C21.762 19.0238 21.3322 18.594 20.802 18.594Z" fill="black"/>
<path d="M32.934 1.698H1.95599V16.734H32.934V1.698Z" fill="#263238"/>
<path d="M34.896 0H0V6.29399H34.896V0Z" fill="#263238"/>
<path opacity="0.3" d="M32.934 6.34799H1.95599V7.90199H32.934V6.34799Z" fill="black"/>
<path opacity="0.3" d="M20.802 1.992H14.82C14.2898 1.992 13.86 2.4218 13.86 2.95199V3.31199C13.86 3.84219 14.2898 4.272 14.82 4.272H20.802C21.3322 4.272 21.762 3.84219 21.762 3.31199V2.95199C21.762 2.4218 21.3322 1.992 20.802 1.992Z" fill="black"/>
</svg>
