<svg width="85" height="106" viewBox="0 0 85 106" fill="none" xmlns="http://www.w3.org/2000/svg">
<path d="M34.974 16.7819H4.40401C3.99001 16.7819 3.63001 16.5119 3.51601 16.1159C3.40201 15.7139 3.56401 15.2999 3.91801 15.0779L19.038 5.6759L35.424 15.1259C35.778 15.3299 35.946 15.7319 35.838 16.1219C35.73 16.5179 35.388 16.7819 34.98 16.7819H34.974ZM4.23001 15.5879C4.03801 15.7079 4.07401 15.8939 4.09201 15.9479C4.11001 16.0019 4.17601 16.1819 4.40401 16.1819H34.974C35.178 16.1819 35.238 16.0199 35.25 15.9659C35.262 15.9119 35.292 15.7439 35.118 15.6419L19.044 6.37191L4.23001 15.5819V15.5879Z" fill="#263238"/>
<path d="M19.152 6.32991C19.122 6.32991 19.092 6.32992 19.062 6.31792C18.906 6.26392 18.816 6.09591 18.87 5.93991C19.218 4.87791 19.386 3.77392 19.374 2.65192C19.374 2.17192 19.32 1.56591 19.008 1.13991C18.798 0.845914 18.444 0.653911 18.036 0.611911C17.61 0.563911 17.196 0.683916 16.908 0.935916C16.32 1.45192 16.248 2.48991 16.758 3.11391C16.86 3.23991 16.842 3.43192 16.716 3.53392C16.59 3.64192 16.398 3.61791 16.296 3.49191C15.582 2.62191 15.684 1.21192 16.512 0.485916C16.926 0.119916 17.508 -0.0480889 18.102 0.0119111C18.678 0.0779111 19.182 0.359916 19.494 0.785916C19.902 1.34992 19.968 2.07591 19.974 2.64591C19.986 3.82791 19.812 4.99791 19.44 6.12591C19.398 6.25191 19.278 6.33592 19.152 6.33592V6.32991Z" fill="#263238"/>
<path d="M10.89 10.1279L19.35 21.8639L26.046 9.5939L35.508 15.0479L39.348 21.7379L33.858 24.5819L32.094 35.4599L33.858 51.2999C24.846 53.7839 15.948 53.8499 7.176 51.2999L8.634 35.6459L7.176 26.3819L0 23.7059L2.472 16.1339L10.884 10.1219L10.89 10.1279Z" fill="#F83758"/>
<path opacity="0.3" d="M7.176 26.3879L5.388 20.1839V25.7219L7.176 26.3879Z" fill="black"/>
<path opacity="0.3" d="M33.858 24.5819L34.56 18.4619L35.526 23.7179L33.858 24.5819Z" fill="black"/>
<path opacity="0.3" d="M14.796 43.0799C14.796 43.0799 24.72 37.7759 27.198 32.4959C27.198 32.4959 24.846 43.1399 14.796 43.0799Z" fill="black"/>
<path d="M77.784 16.7819H47.214C46.8 16.7819 46.44 16.5119 46.326 16.1159C46.212 15.7139 46.374 15.2999 46.728 15.0779L61.848 5.6759L78.234 15.1259C78.588 15.3299 78.756 15.7319 78.648 16.1279C78.54 16.5239 78.198 16.7879 77.79 16.7879L77.784 16.7819ZM47.04 15.5879C46.848 15.7079 46.884 15.8939 46.902 15.9479C46.92 16.0019 46.986 16.1819 47.214 16.1819H77.784C77.988 16.1819 78.048 16.0199 78.06 15.9659C78.072 15.9119 78.102 15.7439 77.928 15.6419L61.854 6.37191L47.04 15.5819V15.5879Z" fill="#263238"/>
<path d="M61.962 6.32991C61.932 6.32991 61.902 6.32992 61.872 6.31792C61.716 6.26392 61.626 6.09591 61.68 5.93991C62.028 4.87791 62.196 3.76792 62.184 2.65192C62.184 2.17192 62.13 1.56591 61.818 1.13991C61.608 0.845914 61.254 0.653911 60.846 0.611911C60.42 0.563911 60.006 0.683916 59.718 0.935916C59.13 1.45192 59.058 2.48991 59.568 3.11391C59.67 3.23991 59.652 3.43192 59.526 3.53392C59.4 3.64192 59.208 3.61791 59.106 3.49191C58.392 2.62191 58.494 1.21192 59.322 0.485916C59.736 0.119916 60.318 -0.0480889 60.912 0.0119111C61.488 0.0779111 61.992 0.359916 62.304 0.785916C62.712 1.34992 62.778 2.07591 62.784 2.64591C62.796 3.82791 62.622 4.99791 62.25 6.12591C62.208 6.25191 62.094 6.33592 61.962 6.33592V6.32991Z" fill="#263238"/>
<path d="M53.784 10.5899L51.972 11.6639L53.292 22.4999L54.108 22.2779L53.784 10.5899Z" fill="#263238"/>
<path d="M70.512 10.6319L71.898 11.4239L69.198 22.0799L68.556 21.8459L70.38 10.8479L70.512 10.6319Z" fill="#263238"/>
<path d="M35.526 96.3479C39.294 101.52 43.098 103.278 46.668 103.62C50.7 103.488 53.826 100.632 56.988 96.3479C57.762 95.0399 59.022 94.7219 59.346 96.3479L60.042 98.3159C60.18 98.6879 60.594 98.8799 60.972 98.7359C61.188 98.6579 61.35 98.4779 61.416 98.2559L61.908 96.3659C62.058 95.6039 62.796 95.1119 63.552 95.2619C64.11 95.3699 64.548 95.8079 64.656 96.3659L65.244 99.4619C66.162 101.958 68.742 105.594 74.418 105.414C78.348 105.462 81.234 100.776 84.15 96.3719L70.2 40.3619L53.064 39.8039L35.526 96.3539V96.3479Z" fill="#F83758"/>
<path opacity="0.2" d="M64.074 95.5259C63.708 95.2199 63.216 95.1299 62.766 95.2739V63.4199L64.074 95.5259Z" fill="black"/>
<path d="M47.496 23.5079L52.512 21.1079C53.742 20.5139 55.188 20.5859 56.352 21.2939L61.668 24.4919L66.048 21.7619C67.632 20.7779 69.618 20.7239 71.256 21.6119L76.206 24.2999L70.926 42.8519L67.986 44.0879C67.224 44.4059 66.36 44.3459 65.646 43.9259L62.442 41.7719C61.758 41.3159 60.864 41.3339 60.198 41.8139L58.092 43.3379C57.252 43.9439 56.184 44.1419 55.182 43.8899L51.996 43.0679L47.502 23.5139L47.496 23.5079Z" fill="#F83758"/>
<path d="M51.99 43.0619L51.12 39.2819C58.176 40.5419 65.076 40.7699 71.784 39.7979L71.088 43.9079C71.088 43.9079 61.638 46.0319 52.488 43.0799" fill="#263238"/>
<g opacity="0.2">
<path d="M53.262 34.0319C54.534 34.7519 56.046 35.0339 57.498 34.8299C58.944 34.6259 60.318 33.9359 61.35 32.8919C61.158 34.5119 59.628 35.7659 58.008 35.9639C56.388 36.1619 54.762 35.4659 53.508 34.4159" fill="black"/>
</g>
</svg>
