<svg width="41" height="169" viewBox="0 0 41 169" fill="none" xmlns="http://www.w3.org/2000/svg">
<path d="M20.6367 70.524H17.0007V162.114H20.6367V70.524Z" fill="#263238"/>
<path opacity="0.3" d="M20.6367 70.524H17.0007V162.114H20.6367V70.524Z" fill="white"/>
<path d="M3.53674 168.762L17.0007 159.78L18.8127 161.22L7.01073 168.762H3.53674Z" fill="#263238"/>
<path opacity="0.3" d="M3.53674 168.762L17.0007 159.78L18.8127 161.22L7.01073 168.762H3.53674Z" fill="white"/>
<path d="M34.0947 168.762L20.6307 159.78L18.8127 161.22L30.6207 168.762H34.0947Z" fill="#263238"/>
<path opacity="0.3" d="M34.0947 168.762L20.6307 159.78L18.8127 161.22L30.6207 168.762H34.0947Z" fill="white"/>
<path d="M0.0567476 35.85C-0.303252 33.618 1.08276 31.488 3.27276 30.93C7.09476 29.964 13.3708 28.248 14.1328 27.234C15.2368 25.764 15.9747 18.768 15.9747 18.768L20.3908 19.506V81.522H2.90675C2.90675 81.522 3.09275 77.472 4.56275 72.318C6.03275 67.164 8.61275 61.83 8.61275 61.83C8.61275 61.83 1.43075 44.28 0.0627534 35.85H0.0567476Z" fill="#F83758"/>
<path d="M38.2528 35.85C38.6128 33.618 37.2268 31.488 35.0368 30.93C31.2148 29.964 24.9388 28.248 24.1768 27.234C23.0728 25.764 22.3348 18.768 22.3348 18.768L17.9188 19.506V81.522H35.4028C35.4028 81.522 35.2168 77.472 33.7468 72.318C32.2768 67.164 29.6968 61.83 29.6968 61.83C29.6968 61.83 36.8788 44.28 38.2468 35.85H38.2528Z" fill="#F83758"/>
<path opacity="0.2" d="M19.4667 23.13C22.0382 23.13 24.1227 19.0603 24.1227 14.04C24.1227 9.01972 22.0382 4.94998 19.4667 4.94998C16.8953 4.94998 14.8107 9.01972 14.8107 14.04C14.8107 19.0603 16.8953 23.13 19.4667 23.13Z" fill="black"/>
<path d="M19.4667 21.348C24.2451 21.348 28.1188 16.5691 28.1188 10.674C28.1188 4.77892 24.2451 0 19.4667 0C14.6884 0 10.8148 4.77892 10.8148 10.674C10.8148 16.5691 14.6884 21.348 19.4667 21.348Z" fill="#F83758"/>
<path d="M2.68476 45.726C2.68476 45.726 9.47076 37.146 19.4668 45.726C19.4668 45.726 29.5528 36.378 35.3068 46.704L30.5248 62.136C30.5248 62.136 38.8048 82.434 38.3128 98.286L40.3408 144.354H33.4228L31.0107 107.412L29.3968 144.354H1.46075C1.46075 144.354 0.932757 86.28 4.03476 74.34C6.44676 65.058 7.91075 62.136 7.91075 62.136L2.68476 45.726Z" fill="#263238"/>
</svg>
