<svg width="35" height="61" viewBox="0 0 35 61" fill="none" xmlns="http://www.w3.org/2000/svg">
<path d="M16.236 40.8564C16.23 40.6465 15.528 19.9105 12.156 16.6345C8.87401 13.4485 5.11201 16.5144 4.95001 16.6464L4.61401 16.2385C4.65601 16.2025 8.90401 12.7344 12.522 16.2504C16.044 19.6764 16.734 39.9744 16.764 40.8324L16.236 40.8504V40.8564Z" fill="#E0E0E0"/>
<path d="M16.524 44.9365C16.5 44.6905 14.22 20.0425 23.22 9.71646L23.616 10.0645C14.766 20.2225 17.022 44.6425 17.046 44.8885L16.518 44.9425L16.524 44.9365Z" fill="#E0E0E0"/>
<path d="M16.194 42.3265L15.666 42.2905C15.684 42.0085 17.43 14.2765 10.824 8.20447L11.184 7.81445C17.97 14.0545 16.272 41.1745 16.194 42.3265Z" fill="#E0E0E0"/>
<path d="M17.052 42.3144H16.524C16.53 41.5464 16.74 23.5764 21.846 20.6484C22.98 19.9944 24.09 19.8864 25.146 20.3244C28.23 21.6024 29.76 27.0924 29.826 27.3264L29.316 27.4644C29.304 27.4104 27.792 21.9864 24.942 20.8104C24.042 20.4384 23.088 20.5404 22.104 21.1044C17.262 23.8824 17.046 42.1284 17.046 42.3144H17.052Z" fill="#E0E0E0"/>
<path d="M15.066 42.3265L14.538 42.2964C14.544 42.1524 15.306 28.0944 11.514 23.1384C10.596 21.9384 9.594 21.3685 8.544 21.4405C6.06 21.6145 3.972 25.2505 3.954 25.2865L3.492 25.0284C3.582 24.8664 5.736 21.1044 8.50801 20.9124C9.75 20.8224 10.902 21.4644 11.934 22.8144C15.846 27.9204 15.102 41.7324 15.066 42.3204V42.3265Z" fill="#E0E0E0"/>
<path d="M15.9 44.2345C15.798 42.8725 13.422 10.7665 17.604 5.10846L18.03 5.42045C13.962 10.9225 16.404 43.8564 16.428 44.1924L15.9 44.2345Z" fill="#E0E0E0"/>
<path d="M26.286 23.5764C26.286 23.5764 23.778 24.5004 24.522 26.6844C25.266 28.8684 33.204 32.4624 33.204 32.4624C33.204 32.4624 36.528 29.4144 33.474 24.4644C30.42 19.5084 26.352 22.0164 26.286 23.5764Z" fill="#EBEBEB"/>
<path d="M15.378 19.4184C15.378 19.4184 18.048 19.3044 18.204 21.6084C18.354 23.9124 12.414 30.2844 12.414 30.2844C12.414 30.2844 8.17199 28.7544 9.08399 23.0064C9.99599 17.2584 14.712 18.0024 15.378 19.4184Z" fill="#EBEBEB"/>
<path d="M13.116 8.39641C13.116 8.39641 14.898 8.20441 14.754 7.11841C14.61 6.03241 7.83 3.24243 3.828 7.75443C3.828 7.75443 6.39 12.1524 10.092 12.2124C13.794 12.2724 13.116 8.39043 13.116 8.39043V8.39641Z" fill="#EBEBEB"/>
<path d="M16.44 5.76246C16.44 5.76246 14.826 6.54245 14.376 5.54645C13.926 4.55045 18.204 -1.40754 23.988 0.308465C23.988 0.308465 24.144 5.39646 21.03 7.40646C17.916 9.41646 16.446 5.76246 16.446 5.76246H16.44Z" fill="#EBEBEB"/>
<path d="M8.004 22.7004C8.004 22.7004 9.234 21.7104 7.908 21.2244C6.582 20.7384 0.072 20.8764 0 27.3264C0 27.3264 7.584 28.5864 8.52 26.1324C9.456 23.6784 8.004 22.7064 8.004 22.7064V22.7004Z" fill="#EBEBEB"/>
<path d="M23.466 8.23443C23.466 8.23443 22.236 7.24444 23.562 6.75844C24.888 6.27244 31.398 6.41043 31.464 12.8604C31.464 12.8604 23.88 14.1204 22.944 11.6664C22.008 9.21243 23.46 8.24044 23.46 8.24044L23.466 8.23443Z" fill="#EBEBEB"/>
<path d="M19.458 13.4305C19.458 13.4305 19.35 12.2245 20.322 12.6985C21.294 13.1725 24.69 16.8325 21.174 20.3065C21.174 20.3065 16.44 16.7965 17.292 14.9725C18.144 13.1485 19.458 13.4305 19.458 13.4305Z" fill="#EBEBEB"/>
<path d="M6.90598 15.1524C6.90598 15.1524 7.63798 14.1864 6.56398 14.0724C5.48998 13.9524 0.665984 15.2424 1.78798 20.0544C1.78798 20.0544 7.66198 19.6104 7.91398 17.6124C8.16598 15.6144 6.90598 15.1524 6.90598 15.1524Z" fill="#EBEBEB"/>
<path d="M27.27 60.1885H7.10401L4.93201 38.1085H29.442L27.27 60.1885Z" fill="#F0F0F0"/>
<path d="M30.006 35.6725H3.34198V40.5445H30.006V35.6725Z" fill="#E6E6E6"/>
</svg>
