<svg width="241" height="165" viewBox="0 0 241 165" fill="none" xmlns="http://www.w3.org/2000/svg">
<path d="M237.018 165H128.568C126.63 165 125.052 163.422 125.052 161.484V3.516C125.052 1.578 126.63 0 128.568 0H237.018C238.956 0 240.534 1.578 240.534 3.516V161.484C240.534 163.422 238.956 165 237.018 165ZM128.568 0.15C126.714 0.15 125.202 1.662 125.202 3.516V161.484C125.202 163.338 126.714 164.85 128.568 164.85H237.018C238.872 164.85 240.384 163.338 240.384 161.484V3.516C240.384 1.662 238.872 0.15 237.018 0.15H128.568Z" fill="#E0E0E0"/>
<path d="M111.96 165H3.516C1.578 165 0 163.422 0 161.484V3.516C0 1.578 1.578 0 3.516 0H111.96C113.898 0 115.476 1.578 115.476 3.516V161.484C115.476 163.422 113.898 165 111.96 165ZM3.516 0.15C1.662 0.15 0.15 1.662 0.15 3.516V161.484C0.15 163.338 1.662 164.85 3.516 164.85H111.96C113.814 164.85 115.326 163.338 115.326 161.484V3.516C115.326 1.662 113.814 0.15 111.96 0.15H3.516Z" fill="#E0E0E0"/>
</svg>
