<svg width="58" height="98" viewBox="0 0 58 98" fill="none" xmlns="http://www.w3.org/2000/svg">
<path d="M57.732 0.00598145H0V0.977978H57.732V0.00598145Z" fill="#E0E0E0"/>
<path d="M36.606 19.428C35.232 33.084 36.258 43.554 36.774 56.058C37.32 69.318 35.118 82.362 35.484 96.384C36.312 95.862 37.056 95.604 37.806 96.384C38.898 97.146 39.846 97.392 40.692 96.384C41.802 96.384 42.558 95.856 43.176 96.384C44.004 85.494 45.114 74.076 44.004 66.636C43.848 65.118 48.414 65.526 48.51 63.39C48.99 53.562 46.944 35.532 45.246 19.536C45.246 19.422 45.234 19.308 45.204 19.194L43.296 11.07C43.2 10.644 43.002 10.248 42.732 9.91198L42.216 9.26398L41.388 5.11798V0.00598145H40.908V5.08798L39.426 7.45198L34.812 11.556L36.612 19.434L36.606 19.428Z" fill="#E0E0E0"/>
<path d="M6.04198 11.1L4.66797 18.474C4.66797 18.54 4.66797 18.6 4.66797 18.666L2.35797 96.378C3.18597 94.722 3.92397 95.016 4.67997 96.378C5.70597 97.722 6.66597 97.776 7.56597 96.378C8.71797 95.154 9.44998 95.508 10.05 96.378L10.878 66.63L12.12 19.53C12.138 19.416 12.138 19.302 12.12 19.188L10.212 11.064C10.116 10.638 9.91797 10.242 9.64797 9.906L9.13198 9.258L8.30397 5.11199V0H7.82398V5.08199L7.31998 9.35999L6.58798 10.188C6.31798 10.434 6.13198 10.746 6.04198 11.1Z" fill="#E0E0E0"/>
<path d="M15.774 11.1L14.4 18.474C14.4 18.54 14.4 18.6 14.4 18.666C12.342 42.804 11.742 68.934 12.09 96.378C12.918 94.722 13.65 95.016 14.4 96.378C15.426 97.722 16.386 97.776 17.292 96.378C18.438 95.154 19.164 95.508 19.776 96.378C20.604 85.488 21.726 74.07 20.604 66.63C19.776 58.152 23.916 39.012 21.846 19.53C21.858 19.416 21.858 19.302 21.846 19.188L19.932 11.064C19.836 10.638 19.638 10.242 19.368 9.906L18.852 9.258L18.024 5.11199V0H17.544V5.08199L16.956 9.35999L16.224 10.188C15.99 10.446 15.834 10.758 15.768 11.1H15.774Z" fill="#E0E0E0"/>
<path d="M47.148 11.1L45.774 18.474C45.774 18.54 45.774 18.6 45.774 18.666C43.716 42.804 43.116 68.934 43.464 96.378C44.292 94.722 45.024 95.016 45.774 96.378C46.8 97.722 47.76 97.776 48.666 96.378C49.812 95.154 50.538 95.508 51.15 96.378C51.978 85.488 53.1 74.07 51.978 66.63C51.15 58.152 55.29 39.012 53.22 19.53C53.232 19.416 53.232 19.302 53.22 19.188L51.306 11.064C51.204 10.644 51.018 10.248 50.748 9.906L50.232 9.258L49.404 5.11199V0H48.924V5.08199L48.42 9.35999L47.688 10.188C47.43 10.44 47.238 10.752 47.142 11.1H47.148Z" fill="#E0E0E0"/>
<path d="M27.48 11.1L26.07 18.474V18.666C22.434 31.008 24.546 43.602 25.062 56.058C25.602 69.318 23.406 82.362 23.772 96.384C24.6 95.862 25.338 95.604 26.082 96.384C27.174 97.146 28.122 97.392 28.968 96.384C30.078 96.384 30.834 95.856 31.452 96.384C32.28 85.494 33.39 74.076 32.28 66.636C32.124 65.118 36.69 65.526 36.786 63.39C37.266 53.562 35.22 35.532 33.522 19.536C33.522 19.422 33.51 19.308 33.48 19.194L31.572 11.07C31.476 10.644 31.278 10.248 31.008 9.91198L30.492 9.26398L29.664 5.11798V0.00598145H29.184V5.08798L28.68 9.36598L27.948 10.194C27.708 10.446 27.546 10.764 27.474 11.106L27.48 11.1Z" fill="#E0E0E0"/>
</svg>
