<svg width="39" height="32" viewBox="0 0 39 32" fill="none" xmlns="http://www.w3.org/2000/svg">
<path d="M38.7809 15.5127C38.7809 11.3985 37.1465 7.45275 34.2373 4.54356C31.3281 1.63437 27.3824 5.39515e-07 23.2682 0C19.154 -5.39514e-07 15.2083 1.63437 12.2991 4.54356C9.38986 7.45275 7.75549 11.3985 7.75549 15.5127H12.6033C14.2097 15.5127 15.4625 14.1665 16.0509 12.6717C16.4372 11.6903 17.0234 10.7884 17.7836 10.0281C19.2382 8.57352 21.2111 7.75634 23.2682 7.75634C25.3253 7.75634 27.2982 8.57352 28.7528 10.0281C30.2074 11.4827 31.0245 13.4556 31.0245 15.5127H38.7809Z" fill="url(#paint0_linear_7_7997)"/>
<path d="M29.8445 21.4501C30.6241 19.568 31.0254 17.5508 31.0254 15.5137H38.7809C38.7809 24.0811 31.8356 31.0263 23.2682 31.0263C21.9265 31.0263 20.6245 30.856 19.3829 30.5358C20.0854 30.3548 20.7759 30.1243 21.4491 29.8455C23.3312 29.0659 25.0413 27.9233 26.4818 26.4828C27.9223 25.0423 29.065 23.3322 29.8445 21.4501Z" fill="#4392F9"/>
<path d="M0 15.5117C-2.91433e-07 17.5489 0.401247 19.5661 1.18083 21.4482C1.96042 23.3303 3.10307 25.0404 4.54356 26.4809C5.98404 27.9213 7.69415 29.064 9.57623 29.8436C11.4583 30.6232 13.4755 31.0244 15.5127 31.0244C17.5498 31.0244 19.567 30.6232 21.4491 29.8436C23.3312 29.064 25.0413 27.9213 26.4818 26.4809C27.9223 25.0404 29.0649 23.3303 29.8445 21.4482C30.6241 19.5661 31.0254 17.5489 31.0254 15.5117H26.1776C24.5712 15.5117 23.3184 16.8579 22.73 18.3526C22.7133 18.3952 22.6961 18.4376 22.6786 18.48C22.2888 19.421 21.7175 20.2761 20.9972 20.9963C20.277 21.7165 19.4219 22.2879 18.4809 22.6777C17.5399 23.0675 16.5313 23.2681 15.5127 23.2681C14.4941 23.2681 13.4855 23.0675 12.5445 22.6777C11.6034 22.2879 10.7484 21.7165 10.0281 20.9963C9.30787 20.2761 8.73655 19.421 8.34676 18.48C7.95696 17.5389 7.75634 16.5303 7.75634 15.5117H0Z" fill="url(#paint1_linear_7_7997)"/>
<path d="M0.00158691 15.5127C0.00158691 6.94524 6.94683 0 15.5142 0C16.8556 0 18.1572 0.170246 19.3987 0.490323C16.7348 1.17657 14.2774 2.56535 12.2991 4.54357C9.38992 7.45273 7.75557 11.3985 7.75557 15.5127H0.00158691Z" fill="#F83758"/>
<defs>
<linearGradient id="paint0_linear_7_7997" x1="38.7809" y1="7.75634" x2="7.75549" y2="7.75634" gradientUnits="userSpaceOnUse">
<stop stop-color="#CFE2FC"/>
<stop offset="1" stop-color="#4392F9"/>
</linearGradient>
<linearGradient id="paint1_linear_7_7997" x1="1.01712e-06" y1="23.2681" x2="31.0254" y2="23.2681" gradientUnits="userSpaceOnUse">
<stop stop-color="#F8BCC6"/>
<stop offset="1" stop-color="#F83758"/>
</linearGradient>
</defs>
</svg>
