<svg width="59" height="19" viewBox="0 0 59 19" fill="none" xmlns="http://www.w3.org/2000/svg">
<path d="M17.9091 4C15.7591 4 14 5.8 14 8C14 10.2 15.7591 12 17.9091 12C20.0591 12 21.8182 10.2 21.8182 8C21.8182 5.8 20.0591 4 17.9091 4ZM41.3636 4C39.2136 4 37.4545 5.8 37.4545 8C37.4545 10.2 39.2136 12 41.3636 12C43.5136 12 45.2727 10.2 45.2727 8C45.2727 5.8 43.5136 4 41.3636 4ZM29.6364 4C27.4864 4 25.7273 5.8 25.7273 8C25.7273 10.2 27.4864 12 29.6364 12C31.7864 12 33.5455 10.2 33.5455 8C33.5455 5.8 31.7864 4 29.6364 4Z" fill="#DEDBDB"/>
<path d="M29.5 4C27.025 4 25 6.025 25 8.5C25 10.975 27.025 13 29.5 13C31.975 13 34 10.975 34 8.5C34 6.025 31.975 4 29.5 4Z" fill="#FFA3B3"/>
</svg>
