<svg width="35" height="101" viewBox="0 0 35 101" fill="none" xmlns="http://www.w3.org/2000/svg">
<path d="M15.2949 82.3029C15.2949 82.3029 16.282 75.0439 20.93 74.2459C25.578 73.4479 24.171 69.9409 25.382 68.5829C26.593 67.2249 29.75 71.2359 27.048 75.1209C24.346 79.0059 26.551 77.7809 25.382 81.4209C24.213 85.0609 14.8679 88.3229 15.2949 82.3029Z" fill="#263238"/>
<path d="M15.484 87.3079C15.445 87.3183 15.404 87.3183 15.365 87.3079C15.3303 87.2921 15.2991 87.2695 15.2732 87.2415C15.2473 87.2135 15.2272 87.1806 15.2142 87.1448C15.2012 87.1089 15.1954 87.0708 15.1973 87.0327C15.1991 86.9946 15.2085 86.9573 15.225 86.9229C15.26 86.8529 18.725 79.4539 16.891 67.6239C16.3067 64.2197 15.3683 60.886 14.091 57.6769C11.886 51.6709 9.98201 46.4769 14.147 37.4119C15.435 34.6119 16.751 31.9939 18.018 29.4669C22.715 20.1429 26.418 12.7719 23.723 5.44988C23.7083 5.4141 23.701 5.37572 23.7016 5.33706C23.7021 5.2984 23.7104 5.26025 23.7261 5.22489C23.7417 5.18952 23.7643 5.15768 23.7926 5.13128C23.8208 5.10488 23.8541 5.08446 23.8905 5.07125C23.9268 5.05804 23.9654 5.05228 24.0041 5.05437C24.0427 5.05646 24.0804 5.06635 24.1151 5.0834C24.1498 5.10046 24.1807 5.12435 24.206 5.15364C24.2312 5.18294 24.2503 5.21703 24.262 5.25388C27.062 12.8069 23.296 20.2759 18.536 29.7539C17.269 32.2739 15.953 34.8779 14.665 37.6779C10.605 46.5259 12.383 51.3699 14.63 57.5019C15.9238 60.729 16.8809 64.0811 17.486 67.5049C19.348 79.5309 15.806 87.0699 15.771 87.1469C15.7454 87.1999 15.7042 87.2438 15.6529 87.2726C15.6015 87.3014 15.5426 87.3137 15.484 87.3079Z" fill="#263238"/>
<path d="M18.186 85.5719C18.186 85.5719 21.189 81.0429 16.856 78.7189C12.523 76.3949 11.655 78.2639 8.974 76.6189C6.293 74.9739 4.263 70.8929 3.808 73.4829C3.353 76.0729 6.44701 77.5569 5.35501 78.7399C4.26301 79.9229 12.621 87.6089 18.186 85.5719Z" fill="#263238"/>
<path d="M25.249 9.10389C25.249 9.10389 28.175 0.21389 21.525 0.00389021C14.875 -0.20611 22.204 8.15189 25.249 9.10389Z" fill="#263238"/>
<path d="M19.474 15.9359C19.474 15.9359 17.493 7.85087 12.768 9.55887C8.04301 11.2669 14.763 16.0829 19.474 15.9359Z" fill="#263238"/>
<path d="M27.482 16.6359C27.482 16.6359 26.782 10.1889 31.78 10.0559C36.778 9.92286 34.559 15.5929 27.482 16.6359Z" fill="#263238"/>
<path d="M24.15 29.7959C24.15 29.7959 30.87 23.7969 33.292 28.2629C35.714 32.7289 28.217 33.6529 24.15 29.7959Z" fill="#263238"/>
<path d="M12.2499 28.7319C12.2499 28.7319 10.9899 18.7779 5.55793 21.8999C0.125932 25.0219 7.52493 29.7049 12.2499 28.7319Z" fill="#263238"/>
<path d="M7.47602 43.0049C7.47602 43.0049 11.48 32.9459 4.03201 34.0799C-3.41599 35.2139 2.21902 40.5409 7.47602 43.0049Z" fill="#263238"/>
<path d="M18.886 46.5679C18.886 46.5679 25.186 39.1619 29.981 41.5069C34.776 43.8519 30.884 51.2299 18.886 46.5679Z" fill="#263238"/>
<path d="M13.195 62.9899C13.195 62.9899 7.83302 51.0899 3.06602 55.1009C-1.70098 59.1119 6.11102 65.1109 13.195 62.9899Z" fill="#263238"/>
<path d="M20.986 62.2969C20.986 62.2969 19.586 53.0639 24.878 53.8059C30.17 54.5479 28.791 60.1969 20.986 62.2969Z" fill="#263238"/>
<g opacity="0.2">
<path d="M25.249 9.10389C25.249 9.10389 28.175 0.21389 21.525 0.00389021C14.875 -0.20611 22.204 8.15189 25.249 9.10389Z" fill="white"/>
<path d="M19.474 15.9359C19.474 15.9359 17.493 7.85087 12.768 9.55887C8.04301 11.2669 14.763 16.0829 19.474 15.9359Z" fill="white"/>
<path d="M27.482 16.6359C27.482 16.6359 26.782 10.1889 31.78 10.0559C36.778 9.92286 34.559 15.5929 27.482 16.6359Z" fill="white"/>
<path d="M24.15 29.7959C24.15 29.7959 30.87 23.7969 33.292 28.2629C35.714 32.7289 28.217 33.6529 24.15 29.7959Z" fill="white"/>
<path d="M12.2501 28.7319C12.2501 28.7319 10.9901 18.7779 5.55805 21.8999C0.126054 25.0219 7.52505 29.7049 12.2501 28.7319Z" fill="white"/>
<path d="M7.47602 43.0049C7.47602 43.0049 11.48 32.9459 4.03201 34.0799C-3.41599 35.2139 2.21902 40.5409 7.47602 43.0049Z" fill="white"/>
<path d="M18.886 46.5679C18.886 46.5679 25.186 39.1619 29.981 41.5069C34.776 43.8519 30.884 51.2299 18.886 46.5679Z" fill="white"/>
<path d="M13.195 62.9899C13.195 62.9899 7.83302 51.0899 3.06602 55.1009C-1.70098 59.1119 6.11102 65.1109 13.195 62.9899Z" fill="white"/>
<path d="M20.986 62.2969C20.986 62.2969 19.586 53.0639 24.878 53.8059C30.17 54.5479 28.791 60.1969 20.986 62.2969Z" fill="white"/>
</g>
<path d="M22.386 21.2559H22.302C22.2642 21.2451 22.229 21.2264 22.1989 21.201C22.1687 21.1757 22.1442 21.1443 22.127 21.1089C22.127 21.0599 19.551 16.1739 17.626 15.0189C17.5868 15.0027 17.5515 14.9783 17.5227 14.9472C17.4938 14.9162 17.472 14.8792 17.4587 14.8389C17.4454 14.7986 17.4411 14.7559 17.4459 14.7138C17.4507 14.6716 17.4645 14.631 17.4865 14.5947C17.5085 14.5584 17.538 14.5273 17.5732 14.5036C17.6083 14.4798 17.6482 14.4639 17.69 14.457C17.7319 14.45 17.7747 14.4523 17.8156 14.4635C17.8566 14.4747 17.8946 14.4946 17.927 14.5219C19.74 15.6139 21.924 19.5129 22.498 20.5769C26.18 18.4069 28.896 14.4169 28.924 14.3749C28.9452 14.3436 28.9723 14.3168 29.0038 14.2961C29.0353 14.2753 29.0705 14.2609 29.1076 14.2537C29.1446 14.2466 29.1827 14.2468 29.2197 14.2544C29.2567 14.262 29.2918 14.2767 29.323 14.2979C29.3543 14.319 29.3811 14.3461 29.4019 14.3776C29.4227 14.4091 29.437 14.4444 29.4442 14.4814C29.4513 14.5185 29.4511 14.5566 29.4435 14.5936C29.436 14.6305 29.4212 14.6656 29.4 14.6969C29.281 14.8719 26.453 19.0299 22.526 21.2279C22.4831 21.2505 22.4344 21.2602 22.386 21.2559Z" fill="#263238"/>
<path d="M16.275 33.6039H16.219C16.1786 33.5974 16.1401 33.5821 16.1062 33.5591C16.0724 33.5361 16.0439 33.506 16.023 33.4709C16.023 33.4149 12.817 28.0809 8.73597 25.6799C8.67007 25.6418 8.62199 25.5791 8.6023 25.5056C8.58261 25.4321 8.59292 25.3538 8.63097 25.2879C8.67038 25.2215 8.73431 25.1733 8.80896 25.1536C8.88361 25.134 8.963 25.1445 9.02998 25.1829C12.747 27.3739 15.638 31.7559 16.359 32.8829C22.092 28.6829 29.246 28.8999 29.316 28.8929C29.3543 28.8938 29.392 28.9023 29.427 28.918C29.4619 28.9337 29.4934 28.9563 29.5195 28.9843C29.5456 29.0124 29.5658 29.0454 29.5789 29.0813C29.5921 29.1173 29.5978 29.1556 29.596 29.1939C29.5951 29.2316 29.5867 29.2687 29.5715 29.3032C29.5562 29.3376 29.5343 29.3688 29.507 29.3948C29.4797 29.4208 29.4475 29.4411 29.4123 29.4547C29.3772 29.4683 29.3397 29.4748 29.302 29.4739C29.232 29.4739 22.057 29.2989 16.45 33.5339C16.4004 33.5749 16.3392 33.5994 16.275 33.6039Z" fill="#263238"/>
<path d="M12.39 49.9279C12.3241 49.9274 12.2601 49.9052 12.208 49.8649C8.21101 46.6519 5.13801 38.6649 5.01201 38.3219C4.98323 38.2458 4.98588 38.1613 5.01936 38.0872C5.05283 38.013 5.11439 37.9552 5.19051 37.9264C5.26663 37.8976 5.35107 37.9002 5.42524 37.9337C5.49941 37.9672 5.55724 38.0288 5.58601 38.1049C5.58601 38.1819 8.64501 46.0779 12.453 49.3049C13.713 48.6049 21.098 44.5659 26.754 44.4539C26.8289 44.4539 26.9009 44.4831 26.9545 44.5354C27.0081 44.5878 27.0392 44.659 27.041 44.7339C27.0429 44.7718 27.0371 44.8097 27.0239 44.8453C27.0106 44.8809 26.9903 44.9135 26.9641 44.941C26.9379 44.9685 26.9064 44.9904 26.8715 45.0053C26.8366 45.0202 26.799 45.0279 26.761 45.0279C20.839 45.1469 12.649 49.8509 12.565 49.9279C12.5083 49.9471 12.4468 49.9471 12.39 49.9279Z" fill="#263238"/>
<path d="M17.129 66.8049C17.0838 66.8052 17.0391 66.7945 16.9989 66.7738C16.9587 66.7531 16.9241 66.7229 16.898 66.6859C14.6006 63.9101 11.5117 61.9005 8.04305 60.9249C7.96972 60.9035 7.90787 60.8539 7.87111 60.787C7.83435 60.72 7.8257 60.6412 7.84705 60.5679C7.8684 60.4946 7.918 60.4327 7.98495 60.3959C8.0519 60.3592 8.13071 60.3505 8.20404 60.3719C11.7047 61.3483 14.8358 63.3439 17.199 66.1049C20.118 64.1799 23.968 56.7179 24.003 56.6409C24.0439 56.5829 24.1043 56.5417 24.1731 56.5247C24.242 56.5078 24.3146 56.5163 24.3777 56.5487C24.4408 56.5811 24.49 56.6351 24.5164 56.701C24.5427 56.7668 24.5444 56.8399 24.521 56.9069C24.353 57.2359 20.3631 64.9709 17.2761 66.7069C17.2383 66.7538 17.1869 66.7881 17.129 66.8049Z" fill="#263238"/>
<path d="M17.71 84.4869C17.71 84.4869 20.279 80.3919 23.191 79.8109C26.103 79.2299 27.349 75.8769 28.42 77.8929C29.491 79.9089 26.537 86.5799 17.71 84.4869Z" fill="#263238"/>
<path d="M31.066 100.573H2.961L1.078 83.2339H32.942L31.066 100.573Z" fill="#F83758"/>
<path d="M33.6 86.5169H0.420004L0 82.8489H34.027L33.6 86.5169Z" fill="#F83758"/>
<path opacity="0.3" d="M33.6 86.5169H0.420004L0 82.8489H34.027L33.6 86.5169Z" fill="white"/>
</svg>
