<svg width="118" height="200" viewBox="0 0 118 200" fill="none" xmlns="http://www.w3.org/2000/svg">
<path d="M80.311 26.1996L77.42 37.3366L82.5931 37.9526L83.832 27.7886L80.311 26.1996Z" fill="#E4897B"/>
<path d="M40.642 188.082L41.468 188.782L42.567 187.963L44.247 191.519L51.177 197.406C51.177 197.406 53.221 197.238 50.673 193.549C50.5472 193.369 50.4415 193.177 50.358 192.975C49.301 190.651 49.161 185.737 49.161 185.737L45.36 182.503C45.0946 182.58 44.835 182.676 44.583 182.79C43.456 183.273 41.244 184.421 40.642 188.082Z" fill="#F83758"/>
<path opacity="0.2" d="M40.642 188.082L41.468 188.782L42.567 187.963L44.247 191.519L51.177 197.406C51.177 197.406 53.221 197.238 50.673 193.549C50.5472 193.369 50.4415 193.177 50.358 192.975C49.301 190.651 49.161 185.737 49.161 185.737L45.36 182.503C45.0946 182.58 44.835 182.676 44.583 182.79C43.456 183.273 41.244 184.421 40.642 188.082Z" fill="black"/>
<path d="M44.583 182.79C45.563 182.657 45.759 187.06 46.725 189.321C47.586 191.33 48.986 193.087 50.372 192.968C49.315 190.644 49.609 184.687 49.609 184.687L46.55 182.09C46.55 182.09 45.066 182.58 44.583 182.79Z" fill="#E4897B"/>
<path opacity="0.2" d="M44.583 182.79C45.563 182.657 45.759 187.06 46.725 189.321C47.586 191.33 48.986 193.087 50.372 192.968C49.315 190.644 49.609 184.687 49.609 184.687L46.55 182.09C46.55 182.09 45.066 182.58 44.583 182.79Z" fill="black"/>
<path d="M40.439 198.743H41.524L41.825 197.406L45.416 199.023H54.516C54.516 199.023 55.958 197.567 51.632 196.412C51.4183 196.356 51.2117 196.276 51.016 196.174C48.706 195.096 45.416 191.435 45.416 191.435H40.425C40.2733 191.659 40.1354 191.893 40.012 192.135C39.466 193.255 38.528 195.558 40.439 198.743Z" fill="#F83758"/>
<path d="M40.012 192.156C40.67 191.421 43.673 194.648 45.864 195.747C47.831 196.727 50.029 197.147 51.009 196.16C48.699 195.082 45.066 190.35 45.066 190.35H41.055C41.055 190.35 40.285 191.687 40.012 192.156Z" fill="#E4897B"/>
<path d="M82.726 28.8456L90.279 27.0816L86.527 22.0066C86.527 22.0066 79.597 23.4696 80.311 26.2066L82.726 28.8456Z" fill="#E4897B"/>
<path d="M84.21 29.2866C84.21 29.2866 83.9229 54.8086 78.2529 54.8086C75.1099 54.8086 71.5469 52.7646 68.5159 50.4476C65.9722 48.4693 63.6108 46.2671 61.46 43.8676V43.7836L59.507 31.9326C65.107 31.7926 74.823 44.5746 74.823 44.5746L79.485 28.3836L84.21 29.2866Z" fill="#F83758"/>
<path opacity="0.2" d="M68.516 50.4476C65.9723 48.4693 63.6108 46.2671 61.46 43.8676V43.7836L63.28 39.7166C66.3218 42.501 68.1932 46.3364 68.516 50.4476Z" fill="black"/>
<path d="M36.589 3.64557C36.589 3.64557 38.36 0.579578 43.435 0.0615782C48.51 -0.456422 55.237 2.24558 56.266 9.99458C57.295 17.7436 59.493 21.9926 59.493 21.9926C59.493 21.9926 43.148 26.2626 38.556 24.7226C33.964 23.1826 26.859 5.85057 36.589 3.64557Z" fill="#263238"/>
<path d="M70.4831 139.369C68.1941 143.933 65.8911 148.847 63.6791 153.754C60.7741 160.236 58.0441 166.725 55.72 172.535C54.0611 176.679 51.898 181.908 50.764 185.072C48.3082 184.877 45.9808 183.895 44.1281 182.272C44.9821 176.581 47.2571 161.797 51.5551 148.791C53.8091 141.945 56.63 135.19 60.102 129.695C43.869 87.8416 47.012 71.8606 47.012 71.8606L64.232 70.5376C64.232 70.5376 67.333 86.2456 69.937 102.346C71.295 110.788 72.513 119.342 73.073 125.817V125.88C73.471 130.529 72.5746 135.197 70.4831 139.369Z" fill="#263238"/>
<path opacity="0.2" d="M55.552 117.221C53.144 110.095 51.352 103.921 50.092 98.6076C51.058 94.4076 52.514 90.7676 54.572 88.5486C54.572 88.5486 58.002 100.092 55.552 117.221Z" fill="black"/>
<path opacity="0.2" d="M55.72 172.535C54.0611 176.679 51.898 181.908 50.764 185.072C48.3082 184.877 45.9808 183.895 44.1281 182.272C44.9821 176.581 47.2571 161.797 51.5551 148.791C53.0321 155.742 54.726 164.555 55.72 172.535Z" fill="black"/>
<path d="M57.288 68.8436C57.288 68.8436 52.269 107.701 49.392 126.398C46.368 146.033 45.983 177.547 46.739 190.385C45.64 191.022 41.629 191.785 39.466 191.12C39.466 191.12 29.225 151.402 36.022 128.337C29.834 82.8996 38.822 71.7696 38.822 71.7696L57.288 68.8436Z" fill="#263238"/>
<path opacity="0.7" d="M55.6149 44.3786C50.5675 39.8282 44.9707 35.9269 38.955 32.7656C39.501 32.7026 40.068 32.6466 40.628 32.5976C44.4474 32.1937 48.291 32.065 52.129 32.2126C53.081 32.2686 54.061 32.3456 55.02 32.4226C57.4 37.8826 55.6149 44.3786 55.6149 44.3786Z" fill="white"/>
<path d="M38.955 68.8436L64.085 67.1496C64.085 67.1496 64.834 74.6886 64.659 74.5836C64.484 74.4786 37.786 75.5216 37.786 75.5216L38.955 68.8436Z" fill="#263238"/>
<path d="M39.1859 69.2566L64.029 67.8846V70.2436L38.955 71.5736L39.1859 69.2566Z" fill="black"/>
<path d="M53.165 71.2376C52.9864 71.2379 52.8145 71.17 52.6843 71.0476C52.5542 70.9253 52.4757 70.7579 52.465 70.5796L52.353 69.1796C52.3444 69.0859 52.3548 68.9915 52.3835 68.902C52.4121 68.8124 52.4586 68.7296 52.52 68.6583C52.5814 68.5871 52.6565 68.529 52.7409 68.4875C52.8253 68.4459 52.9171 68.4218 53.011 68.4166L55.734 68.1996C55.8321 68.1914 55.9308 68.204 56.0237 68.2366C56.1166 68.2692 56.2015 68.321 56.273 68.3886C56.3464 68.4548 56.405 68.5358 56.4448 68.6263C56.4846 68.7168 56.5048 68.8147 56.504 68.9136V70.3696C56.504 70.5552 56.4303 70.7333 56.299 70.8646C56.1677 70.9958 55.9897 71.0696 55.804 71.0696L53.193 71.2096L53.165 71.2376ZM55.783 68.6966L53.06 68.9066C53.0287 68.9092 52.9983 68.918 52.9704 68.9325C52.9425 68.947 52.9178 68.9668 52.8976 68.9909C52.8774 69.015 52.8622 69.0428 52.8529 69.0728C52.8435 69.1028 52.8402 69.1343 52.843 69.1656L52.948 70.5656C52.9549 70.6275 52.9845 70.6846 53.0311 70.7259C53.0776 70.7673 53.1378 70.79 53.2 70.7896L55.811 70.6496C55.8729 70.6478 55.9317 70.6219 55.9748 70.5774C56.0179 70.533 56.0421 70.4735 56.042 70.4116V68.9556C56.0424 68.9226 56.0358 68.8899 56.0225 68.8597C56.0092 68.8296 55.9896 68.8026 55.965 68.7806C55.943 68.7538 55.9151 68.7324 55.8836 68.7178C55.8521 68.7033 55.8177 68.696 55.783 68.6966Z" fill="white"/>
<path d="M38.955 68.8436C38.43 62.9496 36.323 52.1486 32.69 40.8016C31.507 37.1126 33.509 32.9476 33.509 32.9476C33.509 32.9476 38.458 32.8216 38.955 32.7656C39.452 32.7096 40.068 32.6466 40.628 32.5976C44.4475 32.1937 48.291 32.065 52.129 32.2126C53.081 32.2686 54.061 32.3456 55.02 32.4226C55.328 32.4226 58.807 32.4856 59.108 32.5206C59.108 32.5206 63.924 38.0226 64.218 42.4816C64.5714 45.9135 64.7024 49.3647 64.61 52.8136C64.61 56.8596 64.022 67.8846 64.022 67.8846C63.252 72.1476 54.565 68.2486 54.565 68.2486C42.028 74.4576 38.955 68.8436 38.955 68.8436Z" fill="#F83758"/>
<path opacity="0.8" d="M38.955 68.8436C38.43 62.9496 36.323 52.1486 32.69 40.8016C31.507 37.1126 33.509 32.9476 33.509 32.9476C33.509 32.9476 38.458 32.8216 38.955 32.7656C39.452 32.7096 40.068 32.6466 40.628 32.5976C44.4475 32.1937 48.291 32.065 52.129 32.2126C53.081 32.2686 54.061 32.3456 55.02 32.4226C55.328 32.4226 58.807 32.4856 59.108 32.5206C59.108 32.5206 63.924 38.0226 64.218 42.4816C64.5714 45.9135 64.7024 49.3647 64.61 52.8136C64.61 56.8596 64.022 67.8846 64.022 67.8846C63.252 72.1476 54.565 68.2486 54.565 68.2486C42.028 74.4576 38.955 68.8436 38.955 68.8436Z" fill="white"/>
<path opacity="0.2" d="M53.011 43.3706C53.011 43.4481 52.9881 43.5239 52.945 43.5884C52.9019 43.6528 52.8407 43.7031 52.7691 43.7327C52.6974 43.7624 52.6186 43.7702 52.5426 43.755C52.4665 43.7399 52.3967 43.7026 52.3419 43.6478C52.287 43.5929 52.2497 43.5231 52.2346 43.4471C52.2195 43.371 52.2272 43.2922 52.2569 43.2206C52.2866 43.1489 52.3368 43.0877 52.4013 43.0446C52.4657 43.0016 52.5415 42.9786 52.619 42.9786C52.723 42.9786 52.8227 43.0199 52.8962 43.0934C52.9698 43.1669 53.011 43.2666 53.011 43.3706Z" fill="black"/>
<path opacity="0.2" d="M54.439 51.6516C54.439 51.7291 54.416 51.8049 54.373 51.8694C54.3299 51.9338 54.2687 51.9841 54.197 52.0137C54.1254 52.0434 54.0466 52.0512 53.9706 52.036C53.8945 52.0209 53.8247 51.9836 53.7698 51.9288C53.715 51.8739 53.6777 51.8041 53.6626 51.7281C53.6474 51.652 53.6552 51.5732 53.6849 51.5016C53.7145 51.4299 53.7648 51.3687 53.8292 51.3256C53.8937 51.2826 53.9695 51.2596 54.047 51.2596C54.151 51.2596 54.2507 51.3009 54.3242 51.3744C54.3977 51.4479 54.439 51.5476 54.439 51.6516Z" fill="black"/>
<path opacity="0.2" d="M54.439 59.9396C54.6555 59.9396 54.831 59.7641 54.831 59.5476C54.831 59.3311 54.6555 59.1556 54.439 59.1556C54.2225 59.1556 54.047 59.3311 54.047 59.5476C54.047 59.7641 54.2225 59.9396 54.439 59.9396Z" fill="black"/>
<path opacity="0.2" d="M54.831 67.5416C55.0475 67.5416 55.223 67.3661 55.223 67.1496C55.223 66.9331 55.0475 66.7576 54.831 66.7576C54.6145 66.7576 54.439 66.9331 54.439 67.1496C54.439 67.3661 54.6145 67.5416 54.831 67.5416Z" fill="black"/>
<path d="M40.985 86.0916L32.305 84.5236L37.359 65.8545C37.359 65.8545 36.085 61.2206 34.685 55.9076C33.985 53.3176 33.285 50.5736 32.662 48.1306C31.9712 45.7033 31.4242 43.2373 31.024 40.7456C30.863 37.7706 33.516 32.9546 33.516 32.9546L37.373 32.3246C37.373 32.3246 45.493 38.2466 45.864 50.3286C46.235 62.4106 40.985 86.0916 40.985 86.0916Z" fill="#F83758"/>
<path d="M56.973 31.9326C56.973 31.9326 59.528 41.4456 60.781 48.4456C62.034 55.4456 65.485 85.2516 65.485 85.2516L67.368 84.3136L64.785 66.5266C64.785 66.5266 65.73 45.9116 64.995 41.6766C64.26 37.4416 59.521 31.9326 59.521 31.9326H56.973Z" fill="#F83758"/>
<path d="M53.6199 33.8366C54.8309 38.2536 52.2199 42.1666 52.2199 42.1666C44.4709 39.7166 41.2649 32.5766 41.2649 32.5766C43.5819 30.0286 42.1189 23.2876 40.9919 19.6196L44.0929 21.9436L48.7129 25.3946C48.6259 26.3454 48.7017 27.3042 48.9369 28.2296C49.2869 29.6996 49.91 31.0786 50.603 31.3726L53.6199 33.8366Z" fill="#E4897B"/>
<path opacity="0.2" d="M48.937 28.2296C47.096 27.8166 44.681 25.9126 44.296 24.0296C44.1471 23.3398 44.079 22.6351 44.093 21.9296L48.713 25.3806C48.6244 26.3361 48.7001 27.2997 48.937 28.2296Z" fill="black"/>
<path d="M37.583 12.2976C38.906 18.2336 39.34 20.7746 42.854 23.4976C48.132 27.6346 55.097 25.1146 55.566 18.9966C55.986 13.4946 53.746 4.70956 47.516 2.94556C46.1897 2.51885 44.7733 2.45558 43.4143 2.76233C42.0553 3.06909 40.8034 3.73465 39.7891 4.68967C38.7747 5.6447 38.035 6.85425 37.647 8.19232C37.259 9.5304 37.2369 10.948 37.583 12.2976Z" fill="#E4897B"/>
<path d="M45.248 13.0326C45.339 13.5366 45.675 13.9146 45.997 13.8796C46.319 13.8446 46.508 13.4106 46.417 12.9066C46.326 12.4026 45.99 12.0246 45.668 12.0596C45.346 12.0946 45.185 12.5286 45.248 13.0326Z" fill="#263238"/>
<path d="M51.485 12.1576C51.576 12.6616 51.912 13.0396 52.234 13.0116C52.556 12.9836 52.745 12.5356 52.661 12.0316C52.577 11.5276 52.234 11.1496 51.912 11.1846C51.59 11.2196 51.429 11.6536 51.485 12.1576Z" fill="#263238"/>
<path d="M51.8 11.2266L52.927 10.7506C52.927 10.7506 52.486 11.7656 51.8 11.2266Z" fill="#263238"/>
<path d="M49.791 13.4456C50.4373 14.5498 51.2231 15.5661 52.129 16.4696C51.9034 16.6797 51.6332 16.8361 51.3387 16.927C51.0441 17.0179 50.7328 17.041 50.428 16.9946L49.791 13.4456Z" fill="#DE5753"/>
<path d="M43.785 9.98058C43.824 9.9806 43.8626 9.97179 43.8977 9.95482C43.9329 9.93785 43.9637 9.91316 43.988 9.88259C44.2145 9.60007 44.5078 9.3785 44.8415 9.23794C45.1752 9.09737 45.5387 9.04226 45.899 9.07758C45.9363 9.08349 45.9745 9.08178 46.0112 9.07255C46.0478 9.06331 46.0822 9.04676 46.1123 9.02386C46.1424 9.00097 46.1676 8.97222 46.1862 8.93934C46.2049 8.90647 46.2167 8.87015 46.221 8.83259C46.2256 8.75186 46.2003 8.67225 46.1499 8.60899C46.0996 8.54572 46.0277 8.50321 45.948 8.48958C45.4934 8.43972 45.0335 8.50457 44.6104 8.67821C44.1873 8.85185 43.8145 9.12874 43.526 9.48358C43.479 9.54662 43.4579 9.62524 43.467 9.70332C43.4762 9.78141 43.5148 9.85306 43.575 9.90358C43.6347 9.95153 43.7085 9.97858 43.785 9.98058Z" fill="#263238"/>
<path d="M53.501 8.54558C53.5757 8.55516 53.6511 8.53505 53.711 8.48958C53.739 8.4622 53.7612 8.42953 53.7763 8.39347C53.7915 8.35741 53.7993 8.31869 53.7993 8.27957C53.7993 8.24046 53.7915 8.20174 53.7763 8.16568C53.7612 8.12962 53.739 8.09696 53.711 8.06958C53.4183 7.68969 53.0417 7.38268 52.6106 7.17259C52.1795 6.9625 51.7056 6.85502 51.226 6.85858C51.1882 6.86103 51.1512 6.87137 51.1175 6.88891C51.0839 6.90645 51.0542 6.93082 51.0305 6.96046C51.0068 6.99011 50.9895 7.02437 50.9798 7.06107C50.9701 7.09776 50.9681 7.13608 50.974 7.17357C50.9861 7.2527 51.0272 7.32451 51.0893 7.37498C51.1514 7.42545 51.2301 7.45097 51.31 7.44657C51.6899 7.45316 52.0634 7.54534 52.4028 7.71622C52.7421 7.8871 53.0386 8.1323 53.27 8.43358C53.2979 8.46812 53.3331 8.49607 53.373 8.51544C53.4129 8.5348 53.4567 8.54509 53.501 8.54558Z" fill="#263238"/>
<path d="M45.535 12.1016L46.655 11.6256C46.655 11.6256 46.214 12.6336 45.535 12.1016Z" fill="#263238"/>
<path d="M40.6281 15.7346C40.6281 15.7346 43.5471 11.4856 41.3281 5.19258C41.3281 5.19258 47.9291 1.98657 52.9341 6.87257C52.9341 6.87257 48.2791 -1.28243 38.5631 2.62357C28.8471 6.52957 36.1761 15.8606 37.3801 16.6236C38.5841 17.3866 40.6281 15.7346 40.6281 15.7346Z" fill="#263238"/>
<path d="M36.3929 17.4286C37.1735 18.4615 38.3311 19.1435 39.6129 19.3256C41.2509 19.5216 41.7129 17.8626 41.0129 16.3366C40.3129 14.9366 38.6679 13.2146 37.1629 13.7256C35.6579 14.2366 35.3849 16.1266 36.3929 17.4286Z" fill="#E4897B"/>
<path d="M50.7851 18.4016C50.4652 19.1655 50.2008 19.9516 49.9941 20.7536C49.8471 20.7536 49.7001 20.7536 49.5601 20.7116C47.5861 20.5156 46.7601 19.7666 46.3961 19.0036C46.2385 18.6277 46.1714 18.2201 46.2001 17.8136C46.2087 17.5754 46.2511 17.3398 46.3261 17.1136C47.3131 17.8486 49.1261 18.1776 50.1131 18.3106C50.5121 18.3876 50.7851 18.4016 50.7851 18.4016Z" fill="#263238"/>
<path d="M50.085 18.3456L49.833 19.0456C47.978 18.8496 46.697 18.4646 46.172 17.8486C46.1806 17.6104 46.223 17.3747 46.298 17.1486C47.285 17.8626 49.119 18.1916 50.085 18.3456Z" fill="white"/>
<path d="M49.546 20.7116C47.572 20.5156 46.746 19.7666 46.382 19.0036C47.1293 19.0942 47.8546 19.317 48.524 19.6616C48.966 19.8962 49.3234 20.2634 49.546 20.7116Z" fill="#DE5753"/>
<path opacity="0.2" d="M35.798 54.4656C35.5815 55.0578 35.1787 55.5639 34.65 55.9076C33.95 53.3176 33.25 50.5736 32.627 48.1306C34.23 46.1916 35.581 44.5746 35.581 44.5746C35.581 44.5746 37.429 50.3146 35.798 54.4656Z" fill="black"/>
<path d="M33.509 32.9476C30.079 33.3606 19.565 59.4776 20.209 63.6006C20.853 67.7236 43.456 65.8546 43.456 65.8546V59.5546L30.254 56.8946L34.825 47.9346C35.6339 45.332 35.9706 42.6057 35.819 39.8846C35.5279 37.4394 34.7419 35.0791 33.509 32.9476Z" fill="#F83758"/>
<path d="M30.156 75.5146C30.1193 75.5241 30.0807 75.5241 30.044 75.5146C29.9878 75.4835 29.9461 75.4316 29.9277 75.3701C29.9094 75.3086 29.916 75.2423 29.946 75.1856C30.009 75.0596 36.547 62.5156 34.069 58.5676C33.7839 58.1524 33.3881 57.8255 32.9266 57.6238C32.4651 57.4221 31.9563 57.3538 31.458 57.4266C22.435 57.7416 18.158 70.8246 18.116 70.9576C18.0902 71.0105 18.0463 71.0523 17.9922 71.0754C17.9381 71.0986 17.8775 71.1015 17.8215 71.0837C17.7654 71.0659 17.7177 71.0284 17.6869 70.9783C17.6562 70.9282 17.6445 70.8686 17.654 70.8106C17.696 70.6706 22.071 57.2656 31.437 56.9366C32.0235 56.8636 32.6188 56.956 33.1556 57.2034C33.6924 57.4508 34.1494 57.8433 34.475 58.3366C37.107 62.5366 30.653 74.9126 30.373 75.4376C30.3463 75.4677 30.3124 75.4906 30.2744 75.5041C30.2365 75.5175 30.1957 75.5211 30.156 75.5146Z" fill="#F83758"/>
<g opacity="0.6">
<path d="M30.156 75.5146C30.1193 75.5241 30.0807 75.5241 30.044 75.5146C29.9878 75.4835 29.9461 75.4316 29.9277 75.3701C29.9094 75.3086 29.916 75.2423 29.946 75.1856C30.009 75.0596 36.547 62.5156 34.069 58.5676C33.7839 58.1524 33.3881 57.8255 32.9266 57.6238C32.4651 57.4221 31.9563 57.3538 31.458 57.4266C22.435 57.7416 18.158 70.8246 18.116 70.9576C18.0902 71.0105 18.0463 71.0523 17.9922 71.0754C17.9381 71.0986 17.8775 71.1015 17.8215 71.0837C17.7654 71.0659 17.7177 71.0284 17.6869 70.9783C17.6562 70.9282 17.6445 70.8686 17.654 70.8106C17.696 70.6706 22.071 57.2656 31.437 56.9366C32.0235 56.8636 32.6188 56.956 33.1556 57.2034C33.6924 57.4508 34.1494 57.8433 34.475 58.3366C37.107 62.5366 30.653 74.9126 30.373 75.4376C30.3463 75.4677 30.3124 75.4906 30.2744 75.5041C30.2365 75.5175 30.1957 75.5211 30.156 75.5146Z" fill="white"/>
</g>
<path d="M14.168 68.0106L0 97.6206L2.18401 106.525L27.034 115.016L38.815 79.4346L35.56 76.1236L35.252 74.1846L14.168 68.0106Z" fill="#263238"/>
<path opacity="0.2" d="M14.168 68.0106L0 97.6206L2.18401 106.525L27.034 115.016L38.815 79.4346L17.661 74.3806L17.864 71.8326L14.168 68.0106Z" fill="white"/>
<path opacity="0.1" d="M17.661 74.3736L17.8641 71.8326L14.175 68.0106L35.2451 74.1846L35.5601 76.1236L38.815 79.4346L17.661 74.3736Z" fill="white"/>
<path opacity="0.2" d="M17.6609 74.3806L2.18396 106.525L27.034 115.016L38.8149 79.4346L17.6609 74.3806Z" fill="white"/>
<path opacity="0.1" d="M17.864 71.8326L3.647 98.1456L0 97.6206L2.18401 106.525L4.046 98.6566L17.864 71.8326Z" fill="white"/>
<path d="M31.885 56.8036C31.2883 56.4924 30.6229 56.3364 29.9501 56.3498C29.2773 56.3633 28.6187 56.5458 28.035 56.8806C22.785 59.8626 20.993 74.4786 20.783 76.3546C20.6744 76.3975 20.5843 76.4774 20.5287 76.5801C20.4731 76.6828 20.4554 76.8018 20.4788 76.9163C20.5022 77.0307 20.5652 77.1332 20.6566 77.2059C20.7481 77.2786 20.8622 77.3167 20.979 77.3136C21.1108 77.3136 21.2372 77.2612 21.3304 77.168C21.4236 77.0748 21.476 76.9484 21.476 76.8166C21.4744 76.7383 21.4545 76.6615 21.4181 76.5923C21.3816 76.523 21.3296 76.4632 21.266 76.4176C21.462 74.6956 23.289 60.1356 28.266 57.3076C28.7817 57.0073 29.3656 56.8439 29.9623 56.8329C30.559 56.8219 31.1485 56.9636 31.675 57.2446C39.067 60.6746 33.852 76.9006 32.907 79.6446C32.8102 79.6514 32.7175 79.6864 32.6404 79.7453C32.5632 79.8043 32.505 79.8845 32.473 79.976C32.4409 80.0676 32.4363 80.1666 32.4598 80.2608C32.4834 80.3549 32.5339 80.4401 32.6053 80.5059C32.6767 80.5716 32.7658 80.6151 32.8615 80.6308C32.9573 80.6465 33.0556 80.6338 33.1442 80.5943C33.2329 80.5548 33.308 80.4903 33.3604 80.4086C33.4128 80.3269 33.4401 80.2316 33.439 80.1346C33.4375 80.0385 33.4056 79.9454 33.348 79.8686C34.335 77.1456 39.816 60.4786 31.885 56.8036Z" fill="#F83758"/>
<path opacity="0.7" d="M31.885 56.8036C31.2883 56.4924 30.6229 56.3364 29.9501 56.3498C29.2773 56.3633 28.6187 56.5458 28.035 56.8806C22.785 59.8626 20.993 74.4786 20.783 76.3546C20.6744 76.3975 20.5843 76.4774 20.5287 76.5801C20.4731 76.6828 20.4554 76.8018 20.4788 76.9163C20.5022 77.0307 20.5652 77.1332 20.6566 77.2059C20.7481 77.2786 20.8622 77.3167 20.979 77.3136C21.1108 77.3136 21.2372 77.2612 21.3304 77.168C21.4236 77.0748 21.476 76.9484 21.476 76.8166C21.4744 76.7383 21.4545 76.6615 21.4181 76.5923C21.3816 76.523 21.3296 76.4632 21.266 76.4176C21.462 74.6956 23.289 60.1356 28.266 57.3076C28.7817 57.0073 29.3656 56.8439 29.9623 56.8329C30.559 56.8219 31.1485 56.9636 31.675 57.2446C39.067 60.6746 33.852 76.9006 32.907 79.6446C32.8102 79.6514 32.7175 79.6864 32.6404 79.7453C32.5632 79.8043 32.505 79.8845 32.473 79.976C32.4409 80.0676 32.4363 80.1666 32.4598 80.2608C32.4834 80.3549 32.5339 80.4401 32.6053 80.5059C32.6767 80.5716 32.7658 80.6151 32.8615 80.6308C32.9573 80.6465 33.0556 80.6338 33.1442 80.5943C33.2329 80.5548 33.308 80.4903 33.3604 80.4086C33.4128 80.3269 33.4401 80.2316 33.439 80.1346C33.4375 80.0385 33.4056 79.9454 33.348 79.8686C34.335 77.1456 39.816 60.4786 31.885 56.8036Z" fill="white"/>
<path d="M37.065 74.6186H37.03C36.968 74.6099 36.9119 74.5771 36.8739 74.5273C36.8359 74.4775 36.819 74.4147 36.827 74.3526C36.827 74.2196 38.598 60.6816 34.867 57.6086C34.4475 57.2845 33.9481 57.0802 33.4218 57.0174C32.8955 56.9545 32.362 57.0354 31.878 57.2516C23.345 60.1566 24.262 73.5546 24.269 73.6876C24.2729 73.7187 24.2703 73.7502 24.2613 73.7803C24.2522 73.8103 24.237 73.8381 24.2165 73.8618C24.1961 73.8856 24.1709 73.9048 24.1425 73.9182C24.1142 73.9316 24.0834 73.9388 24.052 73.9396C23.99 73.9435 23.9289 73.9229 23.8818 73.8824C23.8347 73.8418 23.8054 73.7845 23.8 73.7226C23.8 73.5826 22.841 59.8276 31.724 56.8036C32.2849 56.5618 32.9005 56.4752 33.5064 56.5528C34.1122 56.6303 34.6861 56.8693 35.168 57.2446C39.102 60.4786 37.373 73.8486 37.268 74.4156C37.262 74.4674 37.2387 74.5156 37.2019 74.5524C37.165 74.5893 37.1168 74.6126 37.065 74.6186Z" fill="#263238"/>
<path d="M19.656 72.0566L10.374 108.849L15.043 116.738L41.286 117.676L46.55 75.8716L42.476 73.6386L41.622 71.8746L19.656 72.0566Z" fill="#F83758"/>
<path opacity="0.5" d="M19.656 72.0565L10.374 108.849L15.043 116.738L41.286 117.676L46.55 75.8715L24.843 77.1456L24.297 74.6465L19.656 72.0565Z" fill="white"/>
<path opacity="0.3" d="M24.836 77.1456L24.297 74.6466L19.656 72.0566L41.615 71.8676L42.476 73.6386L46.55 75.8716L24.836 77.1456Z" fill="white"/>
<path opacity="0.2" d="M24.843 77.1456L15.043 116.738L41.286 117.676L46.55 75.8716L24.843 77.1456Z" fill="white"/>
<path d="M28.686 78.5036C28.6314 78.5045 28.5782 78.486 28.5359 78.4514C28.4936 78.4168 28.465 78.3683 28.455 78.3146C28.329 77.6706 25.48 62.5506 29.764 58.0496C30.2352 57.5524 30.8238 57.1815 31.4758 56.9711C32.1277 56.7608 32.8221 56.7176 33.495 56.8456C42.707 58.1546 41.496 77.4186 41.44 78.2376C41.4383 78.2686 41.4303 78.2989 41.4166 78.3267C41.4029 78.3546 41.3836 78.3794 41.3601 78.3996C41.3366 78.4199 41.3092 78.4352 41.2797 78.4446C41.2501 78.4541 41.2189 78.4574 41.188 78.4546C41.1567 78.4538 41.1259 78.4465 41.0975 78.4331C41.0692 78.4198 41.044 78.4006 41.0235 78.3768C41.0031 78.3531 40.9878 78.3253 40.9788 78.2953C40.9697 78.2653 40.9671 78.2337 40.971 78.2026C40.971 78.0066 42.21 58.5606 33.425 57.3146C32.8277 57.1955 32.21 57.2301 31.6296 57.4149C31.0493 57.5998 30.5254 57.929 30.107 58.3716C25.984 62.7046 28.889 78.0696 28.917 78.2236C28.9275 78.2856 28.9137 78.3492 28.8785 78.4014C28.8433 78.4535 28.7894 78.4901 28.728 78.5036H28.686Z" fill="#263238"/>
<path opacity="0.1" d="M24.297 74.6466L14.021 108.289L10.374 108.849L15.043 116.738L14.553 108.667L24.297 74.6466Z" fill="white"/>
<path d="M29.2041 78.3706C29.2234 78.4326 29.2303 78.4979 29.2242 78.5626C29.2181 78.6273 29.1992 78.6901 29.1685 78.7475C29.1379 78.8048 29.0962 78.8555 29.0458 78.8965C28.9954 78.9376 28.9374 78.9682 28.8751 78.9866C28.7809 79.0158 28.6802 79.0164 28.5858 78.9883C28.4913 78.9602 28.4073 78.9046 28.3445 78.8286C28.2817 78.7526 28.2429 78.6597 28.2331 78.5616C28.2232 78.4636 28.2428 78.3648 28.2892 78.2778C28.3356 78.1909 28.4069 78.1197 28.4939 78.0733C28.5809 78.027 28.6797 78.0075 28.7777 78.0175C28.8758 78.0274 28.9687 78.0663 29.0446 78.1292C29.1205 78.1921 29.176 78.2761 29.2041 78.3706Z" fill="#263238"/>
<path d="M41.629 78.0906C41.6582 78.1847 41.6588 78.2854 41.6307 78.3799C41.6026 78.4743 41.547 78.5583 41.471 78.6211C41.395 78.6839 41.3021 78.7227 41.204 78.7325C41.1059 78.7424 41.0071 78.7228 40.9202 78.6764C40.8333 78.63 40.7621 78.5587 40.7157 78.4718C40.6694 78.3848 40.6499 78.286 40.6599 78.1879C40.6698 78.0898 40.7087 77.9969 40.7716 77.921C40.8344 77.8451 40.9185 77.7896 41.013 77.7616C41.075 77.7422 41.1403 77.7354 41.205 77.7414C41.2697 77.7475 41.3325 77.7664 41.3899 77.7971C41.4472 77.8277 41.4979 77.8694 41.5389 77.9198C41.58 77.9702 41.6106 78.0282 41.629 78.0906Z" fill="#263238"/>
<path d="M78.421 40.9626C78.3643 40.963 78.3094 40.9425 78.2668 40.9051C78.2242 40.8677 78.1969 40.8159 78.19 40.7596C78.19 40.6196 76.153 26.4446 84.441 22.0836C84.9329 21.7659 85.5028 21.59 86.0882 21.5752C86.6735 21.5604 87.2517 21.7072 87.759 21.9996C91.959 24.6386 91.651 38.7996 91.63 39.3806C91.6282 39.4425 91.6023 39.5012 91.5579 39.5444C91.5134 39.5875 91.4539 39.6116 91.392 39.6116C91.3604 39.6116 91.3292 39.6052 91.3002 39.5928C91.2712 39.5803 91.2451 39.562 91.2235 39.539C91.2018 39.5161 91.1851 39.4889 91.1744 39.4593C91.1636 39.4296 91.1591 39.3981 91.161 39.3666C91.161 39.2266 91.511 24.8976 87.507 22.4056C87.0712 22.1553 86.5742 22.0319 86.072 22.0492C85.5698 22.0665 85.0825 22.2239 84.665 22.5036C76.671 26.7036 78.638 40.5496 78.659 40.7036C78.6639 40.7345 78.6625 40.766 78.6549 40.7964C78.6472 40.8267 78.6335 40.8552 78.6145 40.8801C78.5955 40.905 78.5717 40.9257 78.5444 40.9411C78.5172 40.9565 78.4871 40.9662 78.456 40.9696L78.421 40.9626Z" fill="#263238"/>
<path d="M73.8431 39.7726L70.3781 77.5586L76.2091 84.6286L102.284 81.4926L101.003 39.3736L96.6351 37.7986L95.5081 36.1886L73.8431 39.7726Z" fill="#263238"/>
<path opacity="0.5" d="M73.8431 39.7726L70.3781 77.5586L76.2091 84.6286L102.284 81.4926L101.003 39.3736L79.7511 44.0006L78.8271 41.6136L73.8431 39.7726Z" fill="white"/>
<path opacity="0.3" d="M79.751 44.0006L78.827 41.6136L73.843 39.7726L95.508 36.1886L96.635 37.7986L101.003 39.3736L79.751 44.0006Z" fill="white"/>
<path opacity="0.2" d="M79.751 44.0006L76.209 84.6286L102.284 81.4926L101.003 39.3736L79.751 44.0006Z" fill="white"/>
<path d="M83.727 44.7496C83.6782 44.7509 83.6302 44.7367 83.59 44.709C83.5497 44.6813 83.5193 44.6416 83.503 44.5956C83.293 44.0286 78.491 30.5956 81.893 24.6526C82.2731 23.9598 82.8059 23.3627 83.4512 22.9067C84.0964 22.4506 84.8372 22.1476 85.617 22.0206C86.3518 21.877 87.1091 21.8973 87.8351 22.08C88.5611 22.2627 89.2378 22.6033 89.817 23.0776C95.284 27.3406 96.264 41.8936 96.299 42.5096C96.3012 42.5712 96.2801 42.6313 96.2398 42.678C96.1996 42.7247 96.1433 42.7546 96.082 42.7616C96.0508 42.7635 96.0194 42.7592 95.9898 42.7489C95.9602 42.7387 95.9329 42.7227 95.9095 42.7019C95.8861 42.6811 95.8671 42.6558 95.8534 42.6276C95.8398 42.5995 95.8318 42.5688 95.83 42.5376C95.83 42.3906 94.829 27.5786 89.53 23.4486C88.9987 23.0146 88.3782 22.703 87.7128 22.5361C87.0474 22.3691 86.3533 22.3508 85.68 22.4826C84.969 22.5988 84.2938 22.8755 83.7056 23.2915C83.1174 23.7075 82.6316 24.2519 82.285 24.8836C78.988 30.6376 83.874 44.2946 83.923 44.4346C83.9341 44.4635 83.9393 44.4943 83.9382 44.5253C83.9372 44.5562 83.9299 44.5866 83.9168 44.6147C83.9038 44.6428 83.8852 44.668 83.8622 44.6887C83.8392 44.7095 83.8123 44.7254 83.783 44.7356L83.727 44.7496Z" fill="#263238"/>
<path opacity="0.1" d="M78.8271 41.6136L73.8921 76.4456L70.3781 77.5586L76.2091 84.6286L74.4731 76.7326L78.8271 41.6136Z" fill="white"/>
<path d="M84.252 44.5326C84.2933 44.62 84.3078 44.7176 84.2938 44.8132C84.2797 44.9088 84.2377 44.9981 84.173 45.0699C84.1083 45.1417 84.0238 45.1928 83.9301 45.2167C83.8365 45.2406 83.7379 45.2362 83.6467 45.2042C83.5555 45.1722 83.4758 45.114 83.4176 45.0368C83.3595 44.9596 83.3254 44.8669 83.3198 44.7704C83.3142 44.6739 83.3372 44.578 83.386 44.4945C83.4348 44.4111 83.5072 44.344 83.594 44.3016C83.6523 44.2731 83.7157 44.2565 83.7804 44.2527C83.8452 44.2489 83.9101 44.2581 83.9713 44.2796C84.0325 44.3011 84.0888 44.3345 84.137 44.3779C84.1852 44.4213 84.2243 44.4739 84.252 44.5326Z" fill="#263238"/>
<path d="M96.488 42.3276C96.5269 42.4155 96.5395 42.5129 96.5242 42.6078C96.5088 42.7028 96.4663 42.7912 96.4017 42.8625C96.3371 42.9338 96.2532 42.9847 96.1602 43.0093C96.0672 43.0338 95.9691 43.0308 95.8778 43.0006C95.7864 42.9705 95.7058 42.9145 95.6457 42.8394C95.5855 42.7644 95.5484 42.6735 95.5389 42.5778C95.5294 42.4821 95.5479 42.3857 95.5921 42.3002C95.6363 42.2148 95.7044 42.1441 95.788 42.0965C95.8484 42.0622 95.9153 42.041 95.9844 42.0341C96.0535 42.0272 96.1233 42.035 96.1892 42.0567C96.2552 42.0785 96.3159 42.1138 96.3673 42.1605C96.4188 42.2071 96.4599 42.264 96.488 42.3276Z" fill="#263238"/>
<path d="M54.985 55.4456L55.132 54.2346L55.237 54.1226C55.783 53.4226 55.678 52.2116 55.531 51.2666C55.384 50.3216 54.887 49.0476 53.991 48.7046C54.1221 48.4499 54.1546 48.1557 54.082 47.8786C54.0272 47.695 53.926 47.5286 53.788 47.3956C54.439 46.6956 54.411 45.4076 54.187 44.4766C53.963 43.5456 53.585 42.3766 52.787 41.9496C52.7393 41.9256 52.6902 41.9046 52.64 41.8866L52.045 40.8366L51.289 40.9906L51.233 41.8656C49.903 42.2786 48.559 43.3286 48.902 45.0226C48.8988 45.0458 48.8988 45.0694 48.902 45.0926C49.273 46.7376 51.1 47.6196 52.766 47.7596C52.9699 47.8054 53.183 47.7858 53.375 47.7036C53.4738 47.7849 53.5447 47.895 53.578 48.0186C53.6185 48.214 53.5808 48.4176 53.473 48.5856C53.2886 48.6142 53.1122 48.681 52.955 48.7816C51.485 49.5516 50.155 51.0636 50.435 52.7296C50.435 52.7296 50.435 52.7786 50.435 52.7996C50.778 54.4936 52.36 54.9486 53.802 54.8086L54.201 55.6066L54.985 55.4456ZM52.801 47.2696C51.401 47.1436 49.7 46.3806 49.385 44.9736C49.07 43.5666 50.267 42.6286 51.485 42.2786C51.6541 42.2203 51.8335 42.1976 52.0118 42.2121C52.1901 42.2265 52.3635 42.2778 52.521 42.3626C53.144 42.7266 53.466 43.7626 53.669 44.5816L53.711 44.7566C53.844 45.4566 53.907 46.5626 53.375 47.0736C53.144 47.2976 53.144 47.2976 52.78 47.2696H52.801ZM53.921 54.3046C53.305 54.3886 51.24 54.4796 50.925 52.6386C50.68 51.2386 51.926 49.8386 53.207 49.1946C53.515 49.0406 53.515 49.0406 53.816 49.1946C54.516 49.4606 54.88 50.5106 55.02 51.2036C55.02 51.2596 55.02 51.3226 55.02 51.3716C55.153 52.2326 55.258 53.2896 54.817 53.8706C54.702 54.0019 54.5613 54.1081 54.4036 54.1828C54.2458 54.2574 54.0744 54.2989 53.9 54.3046H53.921Z" fill="#263238"/>
<path d="M53.935 54.5496C52.535 54.7316 50.96 54.3186 50.666 52.6806C50.372 51.0426 51.695 49.7056 53.06 48.9916C53.459 48.7816 53.473 48.7676 53.886 48.9286C54.726 49.2576 55.146 50.5246 55.286 51.3016C55.503 52.8066 55.524 54.3466 53.935 54.5496Z" fill="#F83758"/>
<path d="M51.4219 42.0476C50.0219 42.4326 48.7689 43.4476 49.1329 45.0296C49.4969 46.6116 51.2329 47.3816 52.7589 47.5076C53.2069 47.5496 53.2279 47.5566 53.5429 47.2486C54.1939 46.6186 54.0959 45.2886 53.9069 44.5256C53.5429 43.0416 52.9619 41.6136 51.4219 42.0476Z" fill="#F83758"/>
<path d="M54.341 54.8646C53.347 50.8746 52.108 46.4646 51.765 46.0866C51.1955 45.8529 50.6047 45.6747 50.001 45.5546L50.099 45.0926C50.7601 45.2214 51.4055 45.4209 52.024 45.6876C52.549 45.9886 53.984 51.4976 54.824 54.7526L54.341 54.8646Z" fill="#263238"/>
<path opacity="0.4" d="M53.935 54.5496C52.535 54.7316 50.96 54.3186 50.666 52.6806C50.372 51.0426 51.695 49.7056 53.06 48.9916C53.459 48.7816 53.473 48.7676 53.886 48.9286C54.726 49.2576 55.146 50.5246 55.286 51.3016C55.503 52.8066 55.524 54.3466 53.935 54.5496Z" fill="white"/>
<path opacity="0.4" d="M51.4219 42.0476C50.0219 42.4326 48.7689 43.4476 49.1329 45.0296C49.4969 46.6116 51.2329 47.3816 52.7589 47.5076C53.2069 47.5496 53.2279 47.5566 53.5429 47.2486C54.1939 46.6186 54.0959 45.2886 53.9069 44.5256C53.5429 43.0416 52.9619 41.6136 51.4219 42.0476Z" fill="white"/>
<path d="M83.685 41.8096C83.6366 41.8089 83.5896 41.7939 83.5497 41.7665C83.5098 41.7391 83.479 41.7005 83.461 41.6556C83.188 41.0116 76.846 25.6886 85.449 21.8036C85.9558 21.5609 86.5126 21.4408 87.0744 21.453C87.6361 21.4651 88.1872 21.6092 88.683 21.8736C93.583 24.3516 96.25 37.0496 96.383 37.5886C96.3902 37.6194 96.3912 37.6513 96.386 37.6825C96.3807 37.7137 96.3692 37.7436 96.3523 37.7703C96.3353 37.797 96.3132 37.8201 96.2873 37.8382C96.2613 37.8562 96.232 37.8689 96.201 37.8756C96.1379 37.8903 96.0715 37.8794 96.0164 37.8453C95.9613 37.8112 95.922 37.7566 95.907 37.6936C95.907 37.5606 93.149 24.6806 88.48 22.2936C88.0511 22.0631 87.5736 21.9378 87.0868 21.9281C86.6 21.9183 86.1178 22.0244 85.68 22.2376C77.511 25.9266 83.881 41.2986 83.944 41.4526C83.9578 41.4818 83.9655 41.5136 83.9666 41.546C83.9677 41.5783 83.9621 41.6105 83.9503 41.6407C83.9385 41.6708 83.9207 41.6982 83.898 41.7213C83.8752 41.7443 83.848 41.7624 83.818 41.7746C83.7779 41.7987 83.7318 41.8108 83.685 41.8096Z" fill="#263238"/>
<g opacity="0.7">
<path d="M83.685 41.8096C83.6366 41.8089 83.5896 41.7939 83.5497 41.7665C83.5098 41.7391 83.479 41.7005 83.461 41.6556C83.188 41.0116 76.846 25.6886 85.449 21.8036C85.9558 21.5609 86.5126 21.4408 87.0744 21.453C87.6361 21.4651 88.1872 21.6092 88.683 21.8736C93.583 24.3516 96.25 37.0496 96.383 37.5886C96.3902 37.6194 96.3912 37.6513 96.386 37.6825C96.3807 37.7137 96.3692 37.7436 96.3523 37.7703C96.3353 37.797 96.3132 37.8201 96.2873 37.8382C96.2613 37.8562 96.232 37.8689 96.201 37.8756C96.1379 37.8903 96.0715 37.8794 96.0164 37.8453C95.9613 37.8112 95.922 37.7566 95.907 37.6936C95.907 37.5606 93.149 24.6806 88.48 22.2936C88.0511 22.0631 87.5736 21.9378 87.0868 21.9281C86.6 21.9183 86.1178 22.0244 85.68 22.2376C77.511 25.9266 83.881 41.2986 83.944 41.4526C83.9578 41.4818 83.9655 41.5136 83.9666 41.546C83.9677 41.5783 83.9621 41.6105 83.9503 41.6407C83.9385 41.6708 83.9207 41.6982 83.898 41.7213C83.8752 41.7443 83.848 41.7624 83.818 41.7746C83.7779 41.7987 83.7318 41.8108 83.685 41.8096Z" fill="white"/>
</g>
<path d="M79.0229 41.5506L85.6939 73.7016L92.827 79.4626L117.74 71.1536L105.553 35.7126L100.954 35.0476L99.533 33.6896L79.0229 41.5506Z" fill="#F83758"/>
<path opacity="0.2" d="M79.0229 41.5506L85.6939 73.7016L92.827 79.4626L117.74 71.1536L105.553 35.7126L85.659 44.5046L84.2729 42.3556L79.0229 41.5506Z" fill="white"/>
<path opacity="0.1" d="M85.6519 44.5046L84.2729 42.3556L79.0229 41.5506L99.526 33.6896L100.954 35.0476L105.546 35.7126L85.6519 44.5046Z" fill="white"/>
<path opacity="0.2" d="M85.6591 44.5046L92.8271 79.4626L117.74 71.1536L105.553 35.7126L85.6591 44.5046Z" fill="white"/>
<path opacity="0.1" d="M84.2729 42.3556L88.914 71.9026L85.6939 73.7016L92.827 79.4626L89.5439 72.0706L84.2729 42.3556Z" fill="white"/>
<path d="M101.717 39.5136C101.655 39.4416 101.575 39.3862 101.486 39.3526C100.576 36.5526 94.668 19.6336 86.142 21.5166C85.4846 21.6291 84.866 21.9055 84.3436 22.3202C83.8212 22.735 83.4117 23.2747 83.153 23.8896C80.759 29.4896 88.368 42.5376 89.348 44.1896C89.3017 44.2749 89.281 44.3719 89.2884 44.4688C89.2959 44.5656 89.3312 44.6583 89.39 44.7356C89.4292 44.7885 89.4787 44.833 89.5356 44.8664C89.5924 44.8998 89.6553 44.9214 89.7207 44.9299C89.786 44.9384 89.8524 44.9336 89.9159 44.9159C89.9794 44.8981 90.0386 44.8677 90.09 44.8266C90.1427 44.7873 90.1871 44.7379 90.2206 44.6813C90.2541 44.6248 90.2761 44.5621 90.2852 44.497C90.2943 44.4319 90.2904 44.3656 90.2737 44.3021C90.2571 44.2385 90.2279 44.1788 90.188 44.1266C90.1407 44.0646 90.079 44.0151 90.0083 43.9822C89.9376 43.9493 89.8599 43.9339 89.782 43.9376C88.886 42.4256 81.333 29.4056 83.608 24.0786C83.8361 23.5337 84.1983 23.0554 84.6609 22.6882C85.1236 22.321 85.6716 22.0769 86.254 21.9786C94.213 20.2286 100.065 36.6226 101.01 39.4786C100.915 39.559 100.855 39.6724 100.84 39.7959C100.826 39.9193 100.859 40.0436 100.933 40.1436C101.015 40.247 101.133 40.3149 101.263 40.3331C101.394 40.3514 101.526 40.3186 101.633 40.2416C101.688 40.2005 101.734 40.1486 101.768 40.0891C101.802 40.0297 101.824 39.9638 101.832 39.8957C101.84 39.8275 101.834 39.7585 101.814 39.6928C101.794 39.6271 101.761 39.5661 101.717 39.5136Z" fill="#263238"/>
<path opacity="0.8" d="M101.717 39.5136C101.655 39.4416 101.575 39.3862 101.486 39.3526C100.576 36.5526 94.668 19.6336 86.142 21.5166C85.4846 21.6291 84.866 21.9055 84.3436 22.3202C83.8212 22.735 83.4117 23.2747 83.153 23.8896C80.759 29.4896 88.368 42.5376 89.348 44.1896C89.3017 44.2749 89.281 44.3719 89.2884 44.4688C89.2959 44.5656 89.3312 44.6583 89.39 44.7356C89.4292 44.7885 89.4787 44.833 89.5356 44.8664C89.5924 44.8998 89.6553 44.9214 89.7207 44.9299C89.786 44.9384 89.8524 44.9336 89.9159 44.9159C89.9794 44.8981 90.0386 44.8677 90.09 44.8266C90.1427 44.7873 90.1871 44.7379 90.2206 44.6813C90.2541 44.6248 90.2761 44.5621 90.2852 44.497C90.2943 44.4319 90.2904 44.3656 90.2737 44.3021C90.2571 44.2385 90.2279 44.1788 90.188 44.1266C90.1407 44.0646 90.079 44.0151 90.0083 43.9822C89.9376 43.9493 89.8599 43.9339 89.782 43.9376C88.886 42.4256 81.333 29.4056 83.608 24.0786C83.8361 23.5337 84.1983 23.0554 84.6609 22.6882C85.1236 22.321 85.6716 22.0769 86.254 21.9786C94.213 20.2286 100.065 36.6226 101.01 39.4786C100.915 39.559 100.855 39.6724 100.84 39.7959C100.826 39.9193 100.859 40.0436 100.933 40.1436C101.015 40.247 101.133 40.3149 101.263 40.3331C101.394 40.3514 101.526 40.3186 101.633 40.2416C101.688 40.2005 101.734 40.1486 101.768 40.0891C101.802 40.0297 101.824 39.9638 101.832 39.8957C101.84 39.8275 101.834 39.7585 101.814 39.6928C101.794 39.6271 101.761 39.5661 101.717 39.5136Z" fill="white"/>
<path d="M92.827 21.2576L87.549 19.6126L84.553 24.3236L90.279 27.0816L92.827 21.2576Z" fill="#E4897B"/>
<path d="M48.272 58.7986L43.085 60.2756L42.007 63.6986C42.504 66.4986 47.845 65.2876 47.845 65.2876L48.937 65.9876C49.1425 66.1161 49.3764 66.1923 49.6182 66.2095C49.86 66.2267 50.1023 66.1845 50.324 66.0864C50.5457 65.9883 50.74 65.8375 50.8899 65.647C51.0398 65.4564 51.1408 65.2321 51.184 64.9936L51.751 61.7596C51.792 61.4981 51.7624 61.2304 51.6651 60.9843C51.5679 60.7381 51.4066 60.5224 51.198 60.3596L49.5669 59.0856C49.3884 58.9401 49.1783 58.8384 48.9535 58.7885C48.7286 58.7387 48.4952 58.7421 48.272 58.7986Z" fill="#E4897B"/>
<path d="M22.9951 52.8206C21.1821 57.7836 19.9641 62.1166 20.1951 63.6006C20.8251 67.7306 43.4421 65.8546 43.4421 65.8546V59.5546L30.2401 56.8946L22.9951 52.8206Z" fill="#F83758"/>
<path d="M19.033 68.2486C18.9983 68.2552 18.9627 68.2552 18.928 68.2486C18.8992 68.2351 18.8734 68.216 18.8522 68.1924C18.8309 68.1688 18.8145 68.1412 18.8041 68.1112C18.7937 68.0812 18.7893 68.0494 18.7914 68.0177C18.7934 67.986 18.8018 67.955 18.816 67.9266C20.664 63.9226 24.773 57.1676 31.416 56.9296C31.4805 56.9295 31.5426 56.9541 31.5894 56.9984C31.6363 57.0426 31.6644 57.1032 31.668 57.1676C31.6699 57.2314 31.6469 57.2934 31.6037 57.3405C31.5606 57.3876 31.5008 57.416 31.437 57.4196C25.032 57.6436 21.042 64.2236 19.236 68.1296C19.2149 68.1648 19.1852 68.1942 19.1497 68.215C19.1143 68.2358 19.0741 68.2474 19.033 68.2486Z" fill="#F83758"/>
<g opacity="0.6">
<path d="M19.033 68.2486C18.9983 68.2552 18.9627 68.2552 18.928 68.2486C18.8992 68.2351 18.8734 68.216 18.8522 68.1924C18.8309 68.1688 18.8145 68.1412 18.8041 68.1112C18.7937 68.0812 18.7893 68.0494 18.7914 68.0177C18.7934 67.986 18.8018 67.955 18.816 67.9266C20.664 63.9226 24.773 57.1676 31.416 56.9296C31.4805 56.9295 31.5426 56.9541 31.5894 56.9984C31.6363 57.0426 31.6644 57.1032 31.668 57.1676C31.6699 57.2314 31.6469 57.2934 31.6037 57.3405C31.5606 57.3876 31.5008 57.416 31.437 57.4196C25.032 57.6436 21.042 64.2236 19.236 68.1296C19.2149 68.1648 19.1852 68.1942 19.1497 68.215C19.1143 68.2358 19.0741 68.2474 19.033 68.2486Z" fill="white"/>
</g>
<path d="M21.938 70.9996H21.889C21.8257 70.986 21.7701 70.9487 21.7336 70.8953C21.6971 70.8418 21.6826 70.7764 21.693 70.7126C22.771 65.3226 24.78 58.5326 28.231 56.7826C28.7988 56.4925 29.4274 56.3413 30.065 56.3413C30.7026 56.3413 31.3311 56.4925 31.899 56.7826C31.9325 56.7928 31.9633 56.81 31.9896 56.8331C32.0158 56.8562 32.0368 56.8847 32.0512 56.9166C32.0655 56.9485 32.0728 56.9831 32.0726 57.0181C32.0725 57.0531 32.0648 57.0876 32.0502 57.1194C32.0356 57.1512 32.0143 57.1794 31.9878 57.2023C31.9614 57.2252 31.9303 57.2421 31.8968 57.252C31.8632 57.2619 31.8279 57.2644 31.7933 57.2595C31.7587 57.2546 31.7255 57.2424 31.696 57.2236C31.1958 56.9623 30.6398 56.8258 30.0755 56.8258C29.5111 56.8258 28.9552 56.9623 28.455 57.2236C25.179 58.8826 23.226 65.5326 22.155 70.8106C22.1434 70.8609 22.1161 70.9063 22.0772 70.9403C22.0382 70.9742 21.9895 70.995 21.938 70.9996Z" fill="#F83758"/>
<g opacity="0.7">
<path d="M21.938 70.9996H21.889C21.8257 70.986 21.7701 70.9487 21.7336 70.8953C21.6971 70.8418 21.6826 70.7764 21.693 70.7126C22.771 65.3226 24.78 58.5326 28.231 56.7826C28.7988 56.4925 29.4274 56.3413 30.065 56.3413C30.7026 56.3413 31.3311 56.4925 31.899 56.7826C31.9325 56.7928 31.9633 56.81 31.9896 56.8331C32.0158 56.8562 32.0368 56.8847 32.0512 56.9166C32.0655 56.9485 32.0728 56.9831 32.0726 57.0181C32.0725 57.0531 32.0648 57.0876 32.0502 57.1194C32.0356 57.1512 32.0143 57.1794 31.9878 57.2023C31.9614 57.2252 31.9303 57.2421 31.8968 57.252C31.8632 57.2619 31.8279 57.2644 31.7933 57.2595C31.7587 57.2546 31.7255 57.2424 31.696 57.2236C31.1958 56.9623 30.6398 56.8258 30.0755 56.8258C29.5111 56.8258 28.9552 56.9623 28.455 57.2236C25.179 58.8826 23.226 65.5326 22.155 70.8106C22.1434 70.8609 22.1161 70.9063 22.0772 70.9403C22.0382 70.9742 21.9895 70.995 21.938 70.9996Z" fill="white"/>
</g>
<path d="M24.1221 69.9496C24.0908 69.9469 24.0603 69.9381 24.0324 69.9237C24.0045 69.9092 23.9798 69.8894 23.9596 69.8653C23.9394 69.8412 23.9242 69.8134 23.9149 69.7834C23.9055 69.7534 23.9022 69.7219 23.9051 69.6906C24.2691 65.7496 25.7671 58.8406 31.7451 56.8036C31.7744 56.7926 31.8057 56.7878 31.837 56.7893C31.8683 56.7908 31.899 56.7987 31.9271 56.8125C31.9553 56.8262 31.9803 56.8456 32.0008 56.8693C32.0212 56.893 32.0366 56.9207 32.0461 56.9506C32.0662 57.01 32.062 57.075 32.0345 57.1313C32.0069 57.1877 31.9583 57.2309 31.8991 57.2516C26.4601 59.0996 24.8081 65.0636 24.3741 69.7396C24.3714 69.77 24.3628 69.7995 24.3487 69.8266C24.3346 69.8536 24.3152 69.8776 24.2918 69.8971C24.2684 69.9166 24.2413 69.9313 24.2122 69.9403C24.183 69.9493 24.1524 69.9525 24.1221 69.9496Z" fill="#263238"/>
<path d="M28.686 78.5036C28.6314 78.5045 28.5782 78.486 28.5359 78.4514C28.4936 78.4168 28.465 78.3683 28.455 78.3146C28.329 77.6706 25.48 62.5506 29.764 58.0496C30.2352 57.5524 30.8238 57.1815 31.4758 56.9711C32.1277 56.7608 32.8221 56.7176 33.495 56.8456C33.5563 56.8559 33.6113 56.8891 33.649 56.9385C33.6867 56.9879 33.7042 57.0498 33.698 57.1116C33.6877 57.1742 33.6534 57.2303 33.6025 57.2682C33.5516 57.3061 33.488 57.3227 33.425 57.3146C32.8277 57.1955 32.21 57.2301 31.6296 57.4149C31.0493 57.5998 30.5254 57.929 30.107 58.3716C25.984 62.7046 28.889 78.0696 28.917 78.2236C28.9275 78.2856 28.9137 78.3492 28.8785 78.4014C28.8433 78.4535 28.7894 78.4901 28.728 78.5036H28.686Z" fill="#263238"/>
</svg>
