<svg width="53" height="60" viewBox="0 0 53 60" fill="none" xmlns="http://www.w3.org/2000/svg">
<path d="M42.063 0H10.759C9.34613 0 7.94705 0.278292 6.64171 0.818983C5.33637 1.35967 4.1503 2.15217 3.15124 3.15124C2.15217 4.1503 1.35968 5.33637 0.818988 6.64171C0.278298 7.94705 0 9.34611 0 10.759V41.181C0 42.5939 0.278298 43.993 0.818988 45.2983C1.35968 46.6036 2.15217 47.7897 3.15124 48.7888C4.1503 49.7878 5.33637 50.5803 6.64171 51.121C7.94705 51.6617 9.34613 51.94 10.759 51.94H12.915L13.111 59.927L20.153 51.94H42.063C43.4759 51.94 44.875 51.6617 46.1803 51.121C47.4856 50.5803 48.6717 49.7878 49.6708 48.7888C50.6698 47.7897 51.4623 46.6036 52.003 45.2983C52.5437 43.993 52.822 42.5939 52.822 41.181V10.759C52.822 7.90554 51.6885 5.16894 49.6708 3.15124C47.6531 1.13354 44.9165 0 42.063 0Z" fill="#F83758"/>
<path opacity="0.7" d="M37.828 40.551H14.994L16.688 20.048L15.841 15.974H36.981L36.134 20.048L37.828 40.551Z" fill="white"/>
<path d="M32.676 17.325C32.494 13.125 29.757 9.81401 26.411 9.81401C23.065 9.81401 20.321 13.146 20.146 17.325C20.0765 17.3712 20.0193 17.4336 19.979 17.5067C19.9388 17.5798 19.9169 17.6616 19.915 17.745C19.915 17.8861 19.9711 18.0214 20.0709 18.1212C20.1706 18.221 20.306 18.277 20.447 18.277C20.5881 18.277 20.7234 18.221 20.8232 18.1212C20.923 18.0214 20.979 17.8861 20.979 17.745C20.9772 17.6676 20.958 17.5915 20.9229 17.5224C20.8877 17.4534 20.8376 17.3931 20.776 17.346C20.944 13.503 23.401 10.444 26.411 10.444C29.421 10.444 31.878 13.503 32.011 17.346C31.9519 17.3948 31.9038 17.4556 31.87 17.5244C31.8362 17.5932 31.8175 17.6684 31.815 17.745C31.815 17.8861 31.8711 18.0214 31.9709 18.1212C32.0706 18.221 32.206 18.277 32.347 18.277C32.4881 18.277 32.6234 18.221 32.7232 18.1212C32.823 18.0214 32.879 17.8861 32.879 17.745C32.8804 17.664 32.8627 17.5838 32.8275 17.5109C32.7922 17.4379 32.7404 17.3743 32.676 17.325Z" fill="white"/>
<path d="M45.528 28.266C45.528 29.404 45.1906 30.5165 44.5583 31.4628C43.926 32.409 43.0274 33.1465 41.976 33.582C40.9246 34.0175 39.7676 34.1315 38.6515 33.9094C37.5353 33.6874 36.51 33.1394 35.7053 32.3347C34.9006 31.53 34.3526 30.5047 34.1306 29.3886C33.9086 28.2724 34.0225 27.1155 34.458 26.064C34.8935 25.0126 35.631 24.114 36.5773 23.4817C37.5235 22.8495 38.636 22.512 39.774 22.512C41.3001 22.512 42.7636 23.1182 43.8427 24.1973C44.9218 25.2764 45.528 26.74 45.528 28.266Z" fill="#263238"/>
<path d="M39.165 30.541C39.0704 30.5408 38.9798 30.503 38.913 30.436L36.253 27.776C36.1889 27.7106 36.153 27.6226 36.153 27.531C36.153 27.4394 36.1889 27.3514 36.253 27.286C36.2855 27.2532 36.3242 27.2272 36.3669 27.2094C36.4095 27.1916 36.4553 27.1825 36.5015 27.1825C36.5477 27.1825 36.5935 27.1916 36.6361 27.2094C36.6788 27.2272 36.7175 27.2532 36.75 27.286L39.165 29.694L42.798 26.089C42.8634 26.0249 42.9514 25.989 43.043 25.989C43.1346 25.989 43.2226 26.0249 43.288 26.089C43.3208 26.1215 43.3468 26.1603 43.3646 26.2029C43.3824 26.2456 43.3915 26.2913 43.3915 26.3375C43.3915 26.3837 43.3824 26.4295 43.3646 26.4721C43.3468 26.5148 43.3208 26.5535 43.288 26.586L39.41 30.436C39.3454 30.5019 39.2573 30.5397 39.165 30.541Z" fill="white"/>
</svg>
