<svg width="38" height="160" viewBox="0 0 38 160" fill="none" xmlns="http://www.w3.org/2000/svg">
<path d="M30.8356 68.334C34.4361 76.4827 36.5689 85.2033 37.1356 94.094C37.1704 94.7746 36.9693 95.4465 36.5664 95.9961C36.1634 96.5457 35.5832 96.9395 34.9236 97.111C34.6666 97.1851 34.4 97.2204 34.1326 97.216H20.6016V157.087H29.7016C30.4309 157.096 31.1279 157.389 31.6443 157.904C32.1607 158.419 32.4557 159.116 32.4666 159.845H4.73957C4.7506 159.11 5.05046 158.408 5.57437 157.892C6.09828 157.376 6.80418 157.087 7.53957 157.087H16.6396V97.216H3.08057C2.81315 97.2204 2.54656 97.1851 2.28957 97.111C1.63061 96.9393 1.0512 96.5452 0.649387 95.9955C0.247578 95.4457 0.048048 94.774 0.0845677 94.094C0.651538 85.2034 2.7843 76.4828 6.38457 68.334C7.98296 64.6431 8.73403 60.641 8.58262 56.6217C8.4312 52.6024 7.38113 48.6682 5.50957 45.108C2.36657 39.13 -0.559431 32.928 0.0915692 31.619C1.41457 28.959 2.73757 27.671 9.34557 26.901C13.6646 26.39 14.4976 23.863 14.5536 22.19C14.5659 21.7748 14.4878 21.3619 14.3246 20.9799C14.1615 20.598 13.9171 20.2561 13.6086 19.978C7.53957 14.455 7.21057 1.778 17.4516 0.175V0C17.7946 0 18.1516 2.13571e-06 18.4386 0.0350021H18.7676C19.0966 0.0350021 19.4256 0 19.7616 0V0.175C30.0096 1.806 29.6736 14.455 23.6116 19.978C23.3045 20.2573 23.0612 20.5994 22.8981 20.9811C22.735 21.3627 22.6561 21.7751 22.6666 22.19C22.7226 23.863 23.5556 26.39 27.8746 26.901C34.4896 27.671 35.8056 28.959 37.1286 31.619C37.7796 32.928 34.8606 39.13 31.7176 45.108C29.8449 48.6676 28.7936 52.6016 28.641 56.6209C28.4884 60.6402 29.2383 64.6426 30.8356 68.334Z" fill="#263238"/>
<path opacity="0.4" d="M30.8356 68.334C34.4361 76.4827 36.5689 85.2033 37.1356 94.094C37.1704 94.7746 36.9693 95.4465 36.5664 95.9961C36.1634 96.5457 35.5832 96.9395 34.9236 97.111C34.6666 97.1851 34.4 97.2204 34.1326 97.216H20.6016V157.087H29.7016C30.4309 157.096 31.1279 157.389 31.6443 157.904C32.1607 158.419 32.4557 159.116 32.4666 159.845H4.73957C4.7506 159.11 5.05046 158.408 5.57437 157.892C6.09828 157.376 6.80418 157.087 7.53957 157.087H16.6396V97.216H3.08057C2.81315 97.2204 2.54656 97.1851 2.28957 97.111C1.63061 96.9393 1.0512 96.5452 0.649387 95.9955C0.247578 95.4457 0.048048 94.774 0.0845677 94.094C0.651538 85.2034 2.7843 76.4828 6.38457 68.334C7.98296 64.6431 8.73403 60.641 8.58262 56.6217C8.4312 52.6024 7.38113 48.6682 5.50957 45.108C2.36657 39.13 -0.559431 32.928 0.0915692 31.619C1.41457 28.959 2.73757 27.671 9.34557 26.901C13.6646 26.39 14.4976 23.863 14.5536 22.19C14.5659 21.7748 14.4878 21.3619 14.3246 20.9799C14.1615 20.598 13.9171 20.2561 13.6086 19.978C7.53957 14.455 7.21057 1.778 17.4516 0.175V0C17.7946 0 18.1516 2.13571e-06 18.4386 0.0350021H18.7676C19.0966 0.0350021 19.4256 0 19.7616 0V0.175C30.0096 1.806 29.6736 14.455 23.6116 19.978C23.3045 20.2573 23.0612 20.5994 22.8981 20.9811C22.735 21.3627 22.6561 21.7751 22.6666 22.19C22.7226 23.863 23.5556 26.39 27.8746 26.901C34.4896 27.671 35.8056 28.959 37.1286 31.619C37.7796 32.928 34.8606 39.13 31.7176 45.108C29.8449 48.6676 28.7936 52.6016 28.641 56.6209C28.4884 60.6402 29.2383 64.6426 30.8356 68.334Z" fill="white"/>
<path d="M30.8356 68.334C34.4361 76.4827 36.5689 85.2033 37.1356 94.094C37.1704 94.7746 36.9693 95.4465 36.5664 95.9961C36.1634 96.5457 35.5832 96.9395 34.9236 97.111H2.28957C1.63061 96.9393 1.0512 96.5452 0.649387 95.9955C0.247578 95.4457 0.048048 94.774 0.0845677 94.094C0.651538 85.2034 2.7843 76.4828 6.38457 68.334C7.98296 64.6431 8.73403 60.641 8.58262 56.6217C8.4312 52.6024 7.38113 48.6682 5.50957 45.108C2.36657 39.13 -0.559431 32.928 0.0915692 31.619C1.41457 28.959 2.73757 27.671 9.34557 26.901C13.6646 26.39 14.4976 23.863 14.5536 22.19C14.5659 21.7748 14.4878 21.3619 14.3246 20.9799C14.1615 20.598 13.9171 20.2561 13.6086 19.978C7.53957 14.455 7.21057 1.778 17.4516 0.175V0C17.7946 0 18.1516 2.13571e-06 18.4386 0.0350021H18.7676C19.0966 0.0350021 19.4256 0 19.7616 0V0.175C30.0096 1.806 29.6736 14.455 23.6116 19.978C23.3045 20.2573 23.0612 20.5994 22.8981 20.9811C22.735 21.3627 22.6561 21.7751 22.6666 22.19C22.7226 23.863 23.5556 26.39 27.8746 26.901C34.4896 27.671 35.8056 28.959 37.1286 31.619C37.7796 32.928 34.8606 39.13 31.7176 45.108C29.8449 48.6676 28.7936 52.6016 28.641 56.6209C28.4884 60.6402 29.2383 64.6426 30.8356 68.334Z" fill="#F83758"/>
<path opacity="0.7" d="M30.8356 68.334C34.4361 76.4827 36.5689 85.2033 37.1356 94.094C37.1704 94.7746 36.9693 95.4465 36.5664 95.9961C36.1634 96.5457 35.5832 96.9395 34.9236 97.111H2.28957C1.63061 96.9393 1.0512 96.5452 0.649387 95.9955C0.247578 95.4457 0.048048 94.774 0.0845677 94.094C0.651538 85.2034 2.7843 76.4828 6.38457 68.334C7.98296 64.6431 8.73403 60.641 8.58262 56.6217C8.4312 52.6024 7.38113 48.6682 5.50957 45.108C2.36657 39.13 -0.559431 32.928 0.0915692 31.619C1.41457 28.959 2.73757 27.671 9.34557 26.901C13.6646 26.39 14.4976 23.863 14.5536 22.19C14.5659 21.7748 14.4878 21.3619 14.3246 20.9799C14.1615 20.598 13.9171 20.2561 13.6086 19.978C7.53957 14.455 7.21057 1.778 17.4516 0.175V0C17.7946 0 18.1516 2.13571e-06 18.4386 0.0350021H18.7676C19.0966 0.0350021 19.4256 0 19.7616 0V0.175C30.0096 1.806 29.6736 14.455 23.6116 19.978C23.3045 20.2573 23.0612 20.5994 22.8981 20.9811C22.735 21.3627 22.6561 21.7751 22.6666 22.19C22.7226 23.863 23.5556 26.39 27.8746 26.901C34.4896 27.671 35.8056 28.959 37.1286 31.619C37.7796 32.928 34.8606 39.13 31.7176 45.108C29.8449 48.6676 28.7936 52.6016 28.641 56.6209C28.4884 60.6402 29.2383 64.6426 30.8356 68.334Z" fill="white"/>
</svg>
