<svg width="142" height="93" viewBox="0 0 142 93" fill="none" xmlns="http://www.w3.org/2000/svg">
<path d="M123.851 90.3C123.34 90.3 122.851 90.5028 122.49 90.8638C122.129 91.2248 121.926 91.7145 121.926 92.225H141.211C141.211 91.7157 141.009 91.2271 140.65 90.8663C140.29 90.5055 139.802 90.3018 139.293 90.3H133.882V57.4H138.082V13.3H133.882V0H7.32201V13.3H4.42401V57.4H7.32201V90.3H1.91801C1.66555 90.3 1.41557 90.3498 1.18241 90.4467C0.949246 90.5435 0.737494 90.6854 0.559299 90.8642C0.381105 91.0431 0.239976 91.2553 0.144 91.4889C0.0480241 91.7224 -0.000908632 91.9725 1.27743e-05 92.225H19.292C19.292 91.7145 19.0892 91.2248 18.7282 90.8638C18.3672 90.5028 17.8776 90.3 17.367 90.3H11.963V57.4H129.248V90.3H123.851ZM11.963 13.3V4.48H129.248V13.3H11.963Z" fill="#EBEBEB"/>
</svg>
