<svg width="144" height="198" viewBox="0 0 144 198" fill="none" xmlns="http://www.w3.org/2000/svg">
<path d="M139.153 197.96H3.99C2.93114 197.958 1.91629 197.536 1.16822 196.787C0.420149 196.037 -1.62381e-06 195.022 0 193.963V3.962C0.00921757 2.90922 0.433436 1.90259 1.18051 1.16075C1.92759 0.418921 2.93718 0.00180347 3.99 0H139.153C140.213 0 141.23 0.421111 141.979 1.17069C142.729 1.92028 143.15 2.93693 143.15 3.997V193.963C143.15 195.023 142.729 196.04 141.979 196.789C141.23 197.539 140.213 197.96 139.153 197.96ZM3.99 0.140001C2.97756 0.141855 2.00721 0.545346 1.29196 1.26191C0.576712 1.97847 0.174998 2.94955 0.175 3.962V193.963C0.174998 194.975 0.576712 195.947 1.29196 196.663C2.00721 197.38 2.97756 197.783 3.99 197.785H139.153C140.166 197.783 141.137 197.38 141.854 196.664C142.57 195.947 142.973 194.976 142.975 193.963V3.962C142.973 2.94891 142.57 1.97784 141.854 1.26148C141.137 0.545118 140.166 0.141851 139.153 0.140001H3.99Z" fill="#EBEBEB"/>
</svg>
