<svg width="142" height="93" viewBox="0 0 142 93" fill="none" xmlns="http://www.w3.org/2000/svg">
<path d="M123.844 90.3C123.335 90.3018 122.847 90.5055 122.487 90.8663C122.128 91.2271 121.926 91.7157 121.926 92.225H141.218C141.218 91.7145 141.015 91.2248 140.654 90.8638C140.293 90.5028 139.804 90.3 139.293 90.3H133.889V57.4H138.089V13.3H133.889V0H7.329V13.3H4.431V57.4H7.329V90.3H1.925C1.41446 90.3 0.924834 90.5028 0.563826 90.8638C0.202818 91.2248 0 91.7145 0 92.225H19.292C19.292 91.7169 19.0911 91.2294 18.7331 90.8688C18.3752 90.5081 17.8891 90.3037 17.381 90.3H11.97V57.4H129.255V90.3H123.844ZM11.963 13.3V4.48H129.255V13.3H11.963Z" fill="#E0E0E0"/>
</svg>
