<svg width="144" height="198" viewBox="0 0 144 198" fill="none" xmlns="http://www.w3.org/2000/svg">
<path d="M139.167 197.96H3.99699C2.93749 197.958 1.92193 197.536 1.17275 196.787C0.423566 196.038 0.00185066 195.022 0 193.963V3.962C0.011049 2.90858 0.436819 1.90195 1.18501 1.16031C1.9332 0.418676 2.94352 0.0017838 3.99699 0H139.167C140.219 0.00364315 141.226 0.421574 141.972 1.16321C142.718 1.90484 143.141 2.91043 143.15 3.962V193.963C143.15 195.021 142.731 196.035 141.984 196.784C141.238 197.534 140.225 197.956 139.167 197.96ZM3.99699 0.140001C2.9839 0.141851 2.01284 0.545118 1.29648 1.26148C0.580115 1.97784 0.17685 2.94891 0.175 3.962V193.963C0.17685 194.976 0.580115 195.947 1.29648 196.664C2.01284 197.38 2.9839 197.783 3.99699 197.785H139.167C140.18 197.783 141.151 197.38 141.868 196.664C142.584 195.947 142.987 194.976 142.989 193.963V3.962C142.987 2.94891 142.584 1.97784 141.868 1.26148C141.151 0.545118 140.18 0.141851 139.167 0.140001H3.99699Z" fill="#EBEBEB"/>
</svg>
