<svg width="67" height="12" viewBox="0 0 67 12" fill="none" xmlns="http://www.w3.org/2000/svg">
<rect opacity="0.35" x="42.8335" y="0.502686" width="21" height="10.3333" rx="2.16667" stroke="black"/>
<path opacity="0.4" d="M65.3335 3.66935V7.66935C66.1382 7.33057 66.6615 6.54248 66.6615 5.66935C66.6615 4.79622 66.1382 4.00813 65.3335 3.66935Z" fill="black"/>
<rect x="44.3335" y="2.00269" width="18" height="7.33333" rx="1.33333" fill="black"/>
<path fill-rule="evenodd" clip-rule="evenodd" d="M27.4482 8.42669C28.7289 7.34442 30.6051 7.34442 31.8857 8.42669C31.9501 8.4849 31.9875 8.56751 31.9893 8.65423C31.9909 8.74086 31.9564 8.82399 31.8945 8.8847L29.8897 10.9072C29.8309 10.9666 29.7506 10.9999 29.667 10.9999C29.5834 10.9999 29.5031 10.9666 29.4443 10.9072L27.4385 8.8847C27.3769 8.824 27.343 8.74065 27.3447 8.65423C27.3466 8.56755 27.3839 8.48485 27.4482 8.42669ZM24.7725 5.72942C27.5316 3.16504 31.8043 3.1651 34.5635 5.72942C34.6258 5.78956 34.6612 5.87238 34.6621 5.95892C34.6629 6.04526 34.6293 6.12811 34.5684 6.18938L33.4092 7.36028C33.2897 7.47959 33.0971 7.48144 32.9746 7.36517C32.0685 6.5454 30.8893 6.09165 29.667 6.09173C28.4456 6.09225 27.2677 6.5461 26.3623 7.36517C26.2398 7.48151 26.0462 7.47979 25.9268 7.36028L24.7686 6.18938C24.7075 6.12818 24.6731 6.04533 24.6738 5.95892C24.6747 5.87244 24.7103 5.78954 24.7725 5.72942ZM22.0967 3.03899C26.3285 -1.01307 33.0044 -1.01292 37.2363 3.03899C37.2976 3.09919 37.3325 3.18166 37.333 3.26751C37.3334 3.35327 37.2998 3.43615 37.2393 3.497L36.0791 4.66692C35.9595 4.78702 35.765 4.7881 35.6436 4.66985C34.0312 3.13845 31.8916 2.28421 29.667 2.28411C27.4421 2.28412 25.302 3.13822 23.6895 4.66985C23.5682 4.78822 23.3744 4.78703 23.2549 4.66692L22.0938 3.497C22.0333 3.43612 21.9995 3.35324 22 3.26751C22.0006 3.18166 22.0354 3.09915 22.0967 3.03899Z" fill="black"/>
<path d="M2 7.00317C2.55228 7.00317 3 7.45089 3 8.00317V10.0032C2.99982 10.5553 2.55218 11.0032 2 11.0032H1C0.447824 11.0032 0.000175969 10.5553 0 10.0032V8.00317C0 7.45089 0.447715 7.00317 1 7.00317H2ZM6.66699 5.00317C7.21913 5.00335 7.66699 5.451 7.66699 6.00317V10.0032C7.66682 10.5552 7.21902 11.003 6.66699 11.0032H5.66699C5.11482 11.0032 4.66717 10.5553 4.66699 10.0032V6.00317C4.66699 5.45089 5.11471 5.00317 5.66699 5.00317H6.66699ZM11.333 2.66919C11.8852 2.66919 12.3328 3.11705 12.333 3.66919V10.0032C12.3328 10.5553 11.8852 11.0032 11.333 11.0032H10.333C9.78098 11.003 9.33318 10.5552 9.33301 10.0032V3.66919C9.33318 3.11716 9.78098 2.66937 10.333 2.66919H11.333ZM16 0.336182C16.5523 0.336182 17 0.783897 17 1.33618V10.0032C16.9998 10.5553 16.5522 11.0032 16 11.0032H15C14.4478 11.0032 14.0002 10.5553 14 10.0032V1.33618C14 0.783897 14.4477 0.336182 15 0.336182H16Z" fill="black"/>
</svg>
