<svg width="12" height="12" viewBox="0 0 12 12" fill="none" xmlns="http://www.w3.org/2000/svg">
<path d="M1.22781 11.9999H9.71083C10.0363 11.9996 10.3484 11.8702 10.5787 11.64C10.8089 11.4098 10.9384 11.0976 10.9386 10.7721V5.86089C10.9386 5.67592 10.7887 5.52603 10.6038 5.52603C10.4188 5.52603 10.2689 5.67592 10.2689 5.86089V10.7721C10.2688 10.9201 10.2099 11.0619 10.1053 11.1666C10.0006 11.2712 9.85882 11.3301 9.71083 11.3302H1.22781C1.07981 11.3301 0.938005 11.2712 0.833352 11.1666C0.728708 11.0619 0.669809 10.9201 0.66971 10.7721V2.28909C0.669809 2.14109 0.728708 1.99929 0.833352 1.89463C0.937995 1.78999 1.07981 1.73109 1.22781 1.73099H6.13903C6.324 1.73099 6.47389 1.5811 6.47389 1.39614C6.47389 1.21117 6.324 1.06128 6.13903 1.06128H1.22781C0.902313 1.06158 0.590189 1.19103 0.359961 1.42124C0.129733 1.65144 0.000280641 1.96359 0 2.28909V10.7721C0.000298985 11.0976 0.129756 11.4097 0.359961 11.64C0.590166 11.8702 0.902316 11.9996 1.22781 11.9999Z" fill="black"/>
<path d="M3.6459 6.38538L3.59358 7.59186C3.58391 7.80483 3.66194 8.01251 3.80934 8.16658C3.95673 8.32066 4.16073 8.40776 4.37401 8.40756C4.38538 8.40756 4.39664 8.40736 4.4076 8.40686L5.61448 8.35434C5.80992 8.34617 5.99519 8.26475 6.13331 8.12612L10.5562 3.70296L11.7064 2.5532C11.8948 2.36484 12.0007 2.10933 12.0007 1.84282C12.0007 1.57634 11.8948 1.3208 11.7064 1.13244L10.8676 0.293296C10.6789 0.105437 10.4235 -0.000101977 10.1573 7.39404e-08C9.89097 7.39404e-08 9.63556 0.105539 9.447 0.293602L8.29683 1.44357L3.87341 5.86698H3.87331C3.73528 6.00521 3.65406 6.19018 3.64579 6.38541L3.6459 6.38538ZM9.92053 0.767451H9.92043C10.0512 0.636797 10.2631 0.636697 10.394 0.767251L11.2329 1.60639H11.2328C11.2956 1.66908 11.3309 1.75419 11.3309 1.84299C11.3309 1.93178 11.2956 2.01689 11.2328 2.07968L10.3193 2.99286L9.00702 1.68045L9.92053 0.767451ZM4.31484 6.41446H4.31474C4.31614 6.38656 4.3278 6.36015 4.34743 6.34032L8.53358 2.15392L9.84599 3.46632L5.65933 7.65298C5.6398 7.67271 5.61338 7.68417 5.58568 7.68527L4.37879 7.73779C4.3472 7.74078 4.31611 7.72872 4.29468 7.7053C4.27276 7.68318 4.261 7.65278 4.26239 7.62159L4.31484 6.41446Z" fill="black"/>
</svg>
