<svg width="25" height="25" viewBox="0 0 25 25" fill="none" xmlns="http://www.w3.org/2000/svg">
<path d="M12.25 0.25C5.63331 0.25 0.25 5.63331 0.25 12.25C0.25 18.8667 5.63331 24.25 12.25 24.25C18.8667 24.25 24.25 18.8667 24.25 12.25C24.25 5.63331 18.8667 0.25 12.25 0.25ZM12.25 23.2286C6.19632 23.2286 1.27135 18.3032 1.27135 12.25C1.27135 6.19677 6.19632 1.27135 12.25 1.27135C18.3037 1.27135 23.2286 6.19677 23.2286 12.25C23.2286 18.3032 18.3037 23.2286 12.25 23.2286Z" fill="black" stroke="black" stroke-width="0.5"/>
<path d="M12.2499 4.84558C11.968 4.84558 11.7393 5.07413 11.7393 5.35625V19.1436C11.7393 19.4256 11.9678 19.6543 12.2499 19.6543C12.5319 19.6543 12.7606 19.4257 12.7606 19.1436V5.35625C12.7606 5.0743 12.5319 4.84558 12.2499 4.84558Z" fill="black" stroke="black" stroke-width="0.5"/>
<path d="M19.1437 11.7394H5.35638C5.07443 11.7394 4.8457 11.9679 4.8457 12.2501C4.8457 12.532 5.07426 12.7607 5.35638 12.7607H19.1437C19.4257 12.7607 19.6544 12.5322 19.6544 12.2501C19.6544 11.9681 19.4257 11.7394 19.1437 11.7394Z" fill="black" stroke="black" stroke-width="0.5"/>
</svg>
