<svg width="13" height="16" viewBox="0 0 13 16" fill="none" xmlns="http://www.w3.org/2000/svg">
<path d="M6.04995 0.0504667C2.74102 0.0504667 0.0500488 2.57328 0.0500488 5.67544V6.05035C0.0500488 7.34811 0.486499 8.6136 1.2969 9.66544L5.09226 14.59C5.31431 14.8784 5.67082 15.05 6.05012 15.05C6.43209 15.05 6.79074 14.8724 7.00636 14.5769L10.8501 9.3094C11.6313 8.23888 12.05 6.97201 12.05 5.67502C12.05 2.57287 9.35908 0.0500488 6.05015 0.0500488L6.04995 0.0504667ZM6.04995 0.80042C8.92654 0.80042 11.25 2.9786 11.25 5.6755C11.25 6.82145 10.8809 7.9407 10.1906 8.8864L6.34521 14.1539C6.27811 14.2459 6.1687 14.3005 6.0499 14.3005C5.92682 14.3005 5.81258 14.2461 5.74053 14.1526L1.94517 9.22637C1.23307 8.30201 0.849794 7.19071 0.849794 6.05051V5.6756C0.849794 2.97876 3.17316 0.800517 6.04982 0.800517L6.04995 0.80042Z" fill="black" stroke="black" stroke-width="0.1"/>
<path d="M6.05 2.67529C4.2874 2.67529 2.8501 4.02291 2.8501 5.67524C2.8501 7.32769 4.28754 8.67518 6.05 8.67518C7.8126 8.67518 9.2499 7.32756 9.2499 5.67524C9.2499 4.02278 7.81246 2.67529 6.05 2.67529ZM6.05 3.42525C7.38016 3.42525 8.44996 4.42819 8.44996 5.67524C8.44996 6.92228 7.38016 7.92522 6.05 7.92522C4.71984 7.92522 3.65004 6.92228 3.65004 5.67524C3.65004 4.42819 4.71984 3.42525 6.05 3.42525Z" fill="black" stroke="black" stroke-width="0.1"/>
</svg>
