<svg width="26" height="12" viewBox="0 0 26 12" fill="none" xmlns="http://www.w3.org/2000/svg">
<path opacity="0.35" d="M2.66699 0.5H20.3896C21.5861 0.500172 22.5557 1.47048 22.5557 2.66699V8.66699C22.5555 9.86335 21.586 10.8328 20.3896 10.833H2.66699C1.47048 10.833 0.500176 9.86346 0.5 8.66699V2.66699L0.510742 2.44531C0.621596 1.35265 1.54509 0.5 2.66699 0.5Z" stroke="black"/>
<path opacity="0.4" d="M24.104 3.66663V7.66663C24.9474 7.32785 25.4958 6.53976 25.4958 5.66663C25.4958 4.79349 24.9474 4.0054 24.104 3.66663Z" fill="black"/>
<path d="M2.09595 3.33333C2.09595 2.59695 2.6929 2 3.42928 2H19.6266C20.363 2 20.9599 2.59695 20.9599 3.33333V8C20.9599 8.73638 20.363 9.33333 19.6266 9.33333H3.42928C2.6929 9.33333 2.09595 8.73638 2.09595 8V3.33333Z" fill="black"/>
</svg>
