<svg width="20" height="16" viewBox="0 0 20 16" fill="none" xmlns="http://www.w3.org/2000/svg">
<path d="M9.89581 15.543L8.74599 14.6451C7.01924 13.2843 5.59128 12.1149 4.46214 11.137C3.333 10.159 2.43825 9.28864 1.77786 8.52587C1.11747 7.7631 0.656059 7.06733 0.393646 6.43855C0.131215 5.80978 0 5.17173 0 4.52439C0 3.24016 0.498463 2.16504 1.49539 1.29903C2.49232 0.433009 3.72996 0 5.20831 0C6.11777 0 6.97714 0.184754 7.78643 0.554263C8.59572 0.923756 9.29885 1.45363 9.89581 2.14389C10.4928 1.45363 11.1959 0.923756 12.0052 0.554263C12.8145 0.184754 13.6738 0 14.5833 0C16.0617 0 17.2993 0.433009 18.2962 1.29903C19.2932 2.16504 19.7916 3.24016 19.7916 4.52439C19.7916 5.17173 19.6604 5.80978 19.398 6.43855C19.1356 7.06733 18.6742 7.7631 18.0138 8.52587C17.3534 9.28864 16.4603 10.159 15.3345 11.137C14.2087 12.1149 12.7791 13.2843 11.0456 14.6451L9.89581 15.543ZM9.89581 13.7089C11.5625 12.4061 12.934 11.2895 14.0104 10.3591C15.0868 9.42874 15.9375 8.62044 16.5625 7.93423C17.1875 7.24803 17.6215 6.63868 17.8646 6.10619C18.1076 5.5737 18.2291 5.04643 18.2291 4.52439C18.2291 3.61951 17.8819 2.86544 17.1875 2.26218C16.493 1.65893 15.625 1.3573 14.5833 1.3573C13.7607 1.3573 13.0004 1.56003 12.3027 1.96549C11.6049 2.37094 11.0523 2.93505 10.645 3.6578H9.14661C8.73262 2.92925 8.1784 2.36369 7.48396 1.96113C6.78951 1.55858 6.03096 1.3573 5.20831 1.3573C4.17332 1.3573 3.30694 1.65893 2.60914 2.26218C1.91136 2.86544 1.56247 3.61951 1.56247 4.52439C1.56247 5.04643 1.684 5.5737 1.92706 6.10619C2.17011 6.63868 2.60414 7.24803 3.22914 7.93423C3.85414 8.62044 4.70484 9.42729 5.78122 10.3548C6.85761 11.2823 8.22914 12.4003 9.89581 13.7089Z" fill="black"/>
</svg>
