<svg width="18" height="11" viewBox="0 0 18 11" fill="none" xmlns="http://www.w3.org/2000/svg">
<path d="M2.0957 6.66699C2.6745 6.66699 3.14355 7.11471 3.14355 7.66699V9.66699C3.14337 10.2191 2.67438 10.667 2.0957 10.667H1.04785C0.469239 10.6669 0.0001844 10.2191 0 9.66699V7.66699C0 7.11475 0.469125 6.66707 1.04785 6.66699H2.0957ZM6.98633 4.66699C7.56512 4.66699 8.03418 5.11471 8.03418 5.66699V9.66699C8.034 10.2191 7.56501 10.667 6.98633 10.667H5.93848C5.35988 10.6669 4.89081 10.2191 4.89062 9.66699V5.66699C4.89062 5.11477 5.35977 4.66709 5.93848 4.66699H6.98633ZM11.877 2.33301C12.4556 2.33301 12.9256 2.78087 12.9258 3.33301V9.66699C12.9256 10.2191 12.4556 10.667 11.877 10.667H10.8291C10.2505 10.6669 9.78143 10.2191 9.78125 9.66699V3.33301C9.78143 2.78094 10.2505 2.33312 10.8291 2.33301H11.877ZM16.7676 0C17.3464 0 17.8164 0.447715 17.8164 1V9.66699C17.8162 10.2191 17.3463 10.667 16.7676 10.667H15.7197C15.1412 10.6669 14.6721 10.219 14.6719 9.66699V1C14.6719 0.447799 15.1411 0.00013651 15.7197 0H16.7676Z" fill="black"/>
</svg>
