<svg width="16" height="11" viewBox="0 0 16 11" fill="none" xmlns="http://www.w3.org/2000/svg">
<path fill-rule="evenodd" clip-rule="evenodd" d="M5.68751 8.40056C7.02431 7.32169 8.98255 7.32168 10.3193 8.40056C10.3864 8.45858 10.4249 8.54074 10.4268 8.62712C10.4286 8.71349 10.3937 8.79703 10.3291 8.85759L8.23536 10.8732C8.17401 10.9324 8.09019 10.966 8.00294 10.966C7.91572 10.9659 7.83183 10.9324 7.77051 10.8732L5.67774 8.85759C5.61312 8.79699 5.57725 8.71355 5.57911 8.62712C5.58103 8.54061 5.6202 8.45854 5.68751 8.40056ZM2.89454 5.7111C5.77454 3.1552 10.2343 3.15518 13.1143 5.7111C13.1792 5.77096 13.2168 5.8535 13.2178 5.93962C13.2187 6.02587 13.1829 6.1089 13.1191 6.17009L11.9092 7.33708C11.7845 7.45615 11.583 7.4589 11.4551 7.34294C10.5093 6.52575 9.27885 6.07333 8.00294 6.07341C6.72796 6.07396 5.49882 6.52636 4.55372 7.34294C4.42583 7.45889 4.22432 7.45612 4.09962 7.33708L2.88966 6.17009C2.82591 6.109 2.79017 6.02583 2.79102 5.93962C2.79201 5.8535 2.8296 5.77094 2.89454 5.7111ZM0.100593 3.02946C4.51788 -1.00994 11.4869 -1.0097 15.9043 3.02946C15.9682 3.08941 16.0053 3.17152 16.0059 3.257C16.0064 3.34258 15.9704 3.4248 15.9072 3.48552L14.6963 4.65251C14.5715 4.77223 14.3689 4.77331 14.2422 4.65544C12.5592 3.12866 10.3252 2.27761 8.00294 2.27751C5.68061 2.27756 3.44685 3.12869 1.76368 4.65544C1.63702 4.7735 1.43432 4.77241 1.30958 4.65251L0.0976635 3.48552C0.0346341 3.42477 -0.000582141 3.34249 7.28164e-06 3.257C0.000652796 3.17149 0.0366539 3.08938 0.100593 3.02946Z" fill="black"/>
</svg>
