<svg width="16" height="16" viewBox="0 0 16 16" fill="none" xmlns="http://www.w3.org/2000/svg">
<g clip-path="url(#clip0_17_7960)">
<path d="M8.00004 2.66659C9.28671 2.66659 11.3334 3.59992 11.3334 6.09992C11.3334 7.53992 10.1867 9.21325 8.00004 10.9799C5.81337 9.21325 4.66671 7.53325 4.66671 6.09992C4.66671 3.59992 6.71337 2.66659 8.00004 2.66659ZM8.00004 1.33325C5.82004 1.33325 3.33337 2.97325 3.33337 6.09992C3.33337 8.17992 4.88671 10.3733 8.00004 12.6666C11.1134 10.3733 12.6667 8.17992 12.6667 6.09992C12.6667 2.97325 10.18 1.33325 8.00004 1.33325Z" fill="#828282"/>
<path d="M8.00004 4.66675C7.26671 4.66675 6.66671 5.26675 6.66671 6.00008C6.66671 6.73341 7.26671 7.33341 8.00004 7.33341C8.35366 7.33341 8.6928 7.19294 8.94285 6.94289C9.1929 6.69284 9.33337 6.3537 9.33337 6.00008C9.33337 5.64646 9.1929 5.30732 8.94285 5.05727C8.6928 4.80722 8.35366 4.66675 8.00004 4.66675ZM3.33337 13.3334H12.6667V14.6667H3.33337V13.3334Z" fill="#828282"/>
</g>
<defs>
<clipPath id="clip0_17_7960">
<rect width="16" height="16" fill="white"/>
</clipPath>
</defs>
</svg>
