<svg width="20" height="20" viewBox="0 0 20 20" fill="none" xmlns="http://www.w3.org/2000/svg">
<g clip-path="url(#clip0_96_7845)">
<path d="M5.83337 15C4.91671 15 4.17504 15.75 4.17504 16.6666C4.17504 17.5833 4.91671 18.3333 5.83337 18.3333C6.75004 18.3333 7.50004 17.5833 7.50004 16.6666C7.50004 15.75 6.75004 15 5.83337 15ZM14.1667 15C13.25 15 12.5084 15.75 12.5084 16.6666C12.5084 17.5833 13.25 18.3333 14.1667 18.3333C15.0834 18.3333 15.8334 17.5833 15.8334 16.6666C15.8334 15.75 15.0834 15 14.1667 15ZM12.9584 10.8333C13.5834 10.8333 14.1334 10.4916 14.4167 9.97496L17.4 4.56663C17.7084 4.01663 17.3084 3.33329 16.675 3.33329H4.34171L3.55837 1.66663H0.833374V3.33329H2.50004L5.50004 9.65829L4.37504 11.6916C3.76671 12.8083 4.56671 14.1666 5.83337 14.1666H15.8334V12.5H5.83337L6.75004 10.8333H12.9584ZM5.13337 4.99996H15.2584L12.9584 9.16662H7.10837L5.13337 4.99996Z" fill="#323232"/>
</g>
<defs>
<clipPath id="clip0_96_7845">
<rect width="20" height="20" fill="white"/>
</clipPath>
</defs>
</svg>
