<svg width="58" height="10" viewBox="0 0 58 10" fill="none" xmlns="http://www.w3.org/2000/svg">
<path d="M5 0C2.25 0 0 2.25 0 5C0 7.75 2.25 10 5 10C7.75 10 10 7.75 10 5C10 2.25 7.75 0 5 0Z" fill="#F83758"/>
<path d="M18 1C15.8 1 14 2.8 14 5C14 7.2 15.8 9 18 9C20.2 9 22 7.2 22 5C22 2.8 20.2 1 18 1Z" fill="#DEDBDB"/>
<path d="M30 1C27.8 1 26 2.8 26 5C26 7.2 27.8 9 30 9C32.2 9 34 7.2 34 5C34 2.8 32.2 1 30 1Z" fill="#DEDBDB"/>
<path d="M42 1C39.8 1 38 2.8 38 5C38 7.2 39.8 9 42 9C44.2 9 46 7.2 46 5C46 2.8 44.2 1 42 1Z" fill="#DEDBDB"/>
<path d="M54 1C51.8 1 50 2.8 50 5C50 7.2 51.8 9 54 9C56.2 9 58 7.2 58 5C58 2.8 56.2 1 54 1Z" fill="#DEDBDB"/>
</svg>
